<?xml version="1.0" standalone="no"?>
<!DOCTYPE svg PUBLIC "-//W3C//DTD SVG 1.1//EN" "http://www.w3.org/Graphics/SVG/1.1/DTD/svg11.dtd" >
<svg>
<metadata>
Created by FontForge 20090622 at Mon Jan 20 12:58:13 2020
 By deploy user
Copyright (c) 2013 by Lucas Sharp. All rights reserved.
</metadata>
<defs>
<font id="Ogg-Roman" horiz-adv-x="558" >
  <font-face 
    font-family="Ogg"
    font-weight="400"
    font-stretch="normal"
    units-per-em="1000"
    panose-1="0 0 0 0 0 0 0 0 0 0"
    ascent="800"
    descent="-200"
    x-height="500"
    cap-height="693"
    bbox="-170.125 -352 1350 1024"
    underline-thickness="50"
    underline-position="-50"
    unicode-range="U+000D-U+FA48"
  />
<missing-glyph horiz-adv-x="850" 
d="M80 690h690v-690h-690v690zM756 14v662h-662v-662h662zM435 345l239 -239l-10 -10l-239 239l-239 -239l-10 10l239 239l-239 239l10 10l239 -239l239 239l10 -10z" />
    <glyph glyph-name="f_b" unicode="fb" horiz-adv-x="905" 
d="M380 687q0 4 -11 10.5t-28.5 12t-40 9.5t-44.5 4q-52 0 -79 -53.5t-27 -172.5h99q22 0 28.5 0.5t6.5 -1.5q0 -5 -15.5 -20.5l-31.5 -32.5q-22 0 -42 0.5t-45 0.5v-202q0 -63 1 -132q0 -37 2 -57.5t9 -30t20.5 -11.5t35.5 -2q6 0 6 -4.5t-6 -4.5q-11 0 -26.5 0.5
t-30.5 0.5t-27.5 0.5t-18.5 0.5t-18 -0.5t-26.5 -0.5t-29.5 -0.5t-26 -0.5q-6 0 -6 4.5t6 4.5q22 0 34.5 3.5t18.5 14t7 30.5t1 53q-1 92 -1 165v163v7h-41q-14 0 -14 5l35 47h25q8 46 27.5 88t46 76t59 59.5t67.5 39.5q32 13 64 13q16 0 32 -6t21 -6q14 6 27.5 21t20.5 27
q2 2 6 1.5t4 -4.5v-404q35 51 88.5 79.5t111.5 28.5q43 0 81 -17.5t67 -48.5t46 -74t17 -95q0 -62 -24.5 -114t-64.5 -90t-91.5 -59.5t-105.5 -21.5q-53 0 -91 19.5t-61 40.5q-24 -33 -31.5 -42t-11.5 -9q-5 0 -5 9v679zM622 12q81 0 125.5 58t44.5 169q0 44 -11.5 86.5
t-35 76.5t-58.5 54.5t-81 20.5q-42 0 -83.5 -23t-67.5 -63v-285q13 -15 31 -31.5t39 -30.5t45.5 -23t51.5 -9z" />
    <glyph glyph-name="f_h" unicode="fh" horiz-adv-x="868" 
d="M455 9h61q6 0 6 -4.5t-6 -4.5q-3 0 -15.5 0.5t-28 0.5t-29.5 0.5t-20 0.5q-8 0 -20.5 -0.5t-27.5 -0.5t-29.5 -0.5t-25.5 -0.5q-6 0 -6 4.5t6 4.5q21 0 33 2t18 12.5t7.5 33t1.5 62.5v568q0 4 -11 10.5t-28.5 12t-40 9.5t-44.5 4q-52 0 -79 -53.5t-27 -172.5h99
q22 0 28.5 0.5t6.5 -1.5q0 -5 -15.5 -20.5l-31.5 -32.5q-22 0 -42 0.5t-45 0.5v-202q0 -63 1 -132q0 -37 2 -57.5t9 -30t20.5 -11.5t35.5 -2q6 0 6 -4.5t-6 -4.5q-11 0 -26.5 0.5t-30.5 0.5t-27.5 0.5t-18.5 0.5t-18 -0.5t-26.5 -0.5t-29.5 -0.5t-26 -0.5q-6 0 -6 4.5t6 4.5
q22 0 34.5 3.5t18.5 14t7 30.5t1 53q-1 92 -1 165v163v7h-41q-14 0 -14 5l35 47h25q8 46 27.5 88t46 76t59 59.5t67.5 39.5q32 13 64 13q16 0 32 -6t21 -6q14 6 27.5 21t20.5 27q2 2 6 1.5t4 -4.5v-403q38 51 82 79t101 28q34 0 63.5 -9.5t51.5 -33t35 -62.5t13 -98v-257
q0 -29 12.5 -35.5t38.5 -5.5q6 0 6 -4.5t-6 -4.5q-3 0 -15.5 0.5t-27.5 0.5t-29 0.5t-20 0.5t-16 -0.5t-22.5 -0.5t-25.5 -0.5t-24 -0.5q-6 0 -6 4.5t6 4.5q17 0 27.5 2t16 12.5t7.5 32t2 61.5v200q0 46 -10 77.5t-27 50.5t-38.5 27t-44.5 8q-47 0 -81 -21t-69 -68v-382z
" />
    <glyph glyph-name="f_j" unicode="fj" horiz-adv-x="533" 
d="M249 497q22 0 28.5 0.5t6.5 -1.5q0 -5 -15.5 -20.5l-31.5 -32.5q-22 0 -42 0.5t-45 0.5v-202q0 -63 1 -132q0 -37 2 -57.5t9 -30t20.5 -11.5t35.5 -2q6 0 6 -4.5t-6 -4.5q-11 0 -26.5 0.5t-30.5 0.5t-27.5 0.5t-18.5 0.5t-18 -0.5t-26.5 -0.5t-29.5 -0.5t-26 -0.5
q-6 0 -6 4.5t6 4.5q22 0 34.5 3.5t18.5 14t7 30.5t1 53q-1 90 -1 161v164v10h-41q-14 0 -14 5l35 47h27q13 55 45 101.5t73 80t87.5 52t87.5 18.5q19 0 37.5 -2t32.5 -5.5t23 -8.5t9 -10q0 -6 -4 -15t-11 -17t-17 -13.5t-22 -5.5q-25 0 -62 9.5t-82 9.5q-26 0 -49 -8
t-41 -30t-28.5 -59.5t-10.5 -96.5h99zM459 49q-1 -32 -9 -61t-22 -56t-33 -54t-42 -55q-29 -36 -56 -60t-51 -24q-8 0 -18 2q-22 5 -22 18t12 30t29 22q6 2 16 2q15 0 29 -0.5t19 -0.5q8 0 17.5 3.5t14.5 8.5l11 13.5t13.5 29t11.5 57t5 98.5v355q0 28 -3.5 44t-11 22.5
t-20 6t-31.5 -4.5q-6 -2 -7.5 2t4.5 6q38 8 67 22.5t58 34.5q2 2 10 -0.5t8 -6.5z" />
    <glyph glyph-name="f_k" unicode="fk" horiz-adv-x="862" 
d="M776 0q-10 0 -19.5 2t-18.5 8q-19 12 -41.5 43t-56.5 90l-82 137l-103 -105v-166h61q6 0 6 -4.5t-6 -4.5q-3 0 -15.5 0.5t-28 0.5t-29.5 0.5t-20 0.5q-8 0 -20.5 -0.5t-27.5 -0.5t-29.5 -0.5t-25.5 -0.5q-6 0 -6 4.5t6 4.5q21 0 33 2t18 12.5t7.5 33t1.5 62.5v568
q0 4 -11 10.5t-28.5 12t-40 9.5t-44.5 4q-52 0 -79 -53.5t-27 -172.5h99q22 0 28.5 0.5t6.5 -1.5q0 -5 -15.5 -20.5l-31.5 -32.5q-22 0 -42 0.5t-45 0.5v-202q0 -63 1 -132q0 -37 2 -57.5t9 -30t20.5 -11.5t35.5 -2q6 0 6 -4.5t-6 -4.5q-11 0 -26.5 0.5t-30.5 0.5t-27.5 0.5
t-18.5 0.5t-18 -0.5t-26.5 -0.5t-29.5 -0.5t-26 -0.5q-6 0 -6 4.5t6 4.5q22 0 34.5 3.5t18.5 14t7 30.5t1 53q-1 92 -1 165v163v7h-41q-14 0 -14 5l35 47h25q8 46 27.5 88t46 76t59 59.5t67.5 39.5q32 13 64 13q16 0 32 -6t21 -6q14 6 27.5 21t20.5 27q2 2 6 1.5t4 -4.5
v-619l157 162q33 34 49 60t18 44t-9 27.5t-33 9.5q-5 0 -5 4.5t5 4.5q10 0 25 -0.5t30 -0.5t27.5 -0.5t17.5 -0.5t22 0.5t35.5 0.5t33.5 0.5t18 0.5q5 0 5 -4.5t-5 -4.5q-48 0 -101.5 -36t-125.5 -111l-13 -13l97 -154q30 -48 54.5 -80.5t44.5 -51.5t36.5 -27t31.5 -8
q6 0 6.5 -4.5t-6.5 -4.5h-94z" />
    <glyph glyph-name="fi" unicode="fi" horiz-adv-x="536" 
d="M249 497q22 0 28.5 0.5t6.5 -1.5q0 -5 -15.5 -20.5l-31.5 -32.5q-22 0 -42 0.5t-45 0.5v-202q0 -63 1 -132q0 -37 2 -57.5t9 -30t20.5 -11.5t35.5 -2q6 0 6 -4.5t-6 -4.5q-11 0 -26.5 0.5t-30.5 0.5t-27.5 0.5t-18.5 0.5t-18 -0.5t-26.5 -0.5t-29.5 -0.5t-26 -0.5
q-6 0 -6 4.5t6 4.5q22 0 34.5 3.5t18.5 14t7 30.5t1 53q-1 90 -1 161v164v10h-41q-14 0 -14 5l35 47h27q13 55 45 101.5t73 80t87.5 52t87.5 18.5q19 0 37.5 -2t32.5 -5.5t23 -8.5t9 -10q0 -6 -4 -15t-11 -17t-17 -13.5t-22 -5.5q-25 0 -62 9.5t-82 9.5q-26 0 -49 -8
t-41 -30t-28.5 -59.5t-10.5 -96.5h99zM382 377q0 28 -3 44t-10.5 22.5t-19.5 6t-31 -4.5q-6 -2 -7.5 2t4.5 6q38 8 67 22.5t58 34.5q2 2 10 -0.5t8 -6.5v-393q0 -32 1.5 -52t8 -31t19 -14.5t34.5 -3.5q6 0 6 -4.5t-6 -4.5q-11 0 -25.5 0.5t-29 0.5t-26.5 0.5t-18 0.5
t-18.5 -0.5t-28 -0.5t-31 -0.5t-26.5 -0.5q-6 0 -6 4.5t6 4.5q22 0 35 3.5t19.5 14.5t8 31t1.5 52v267z" />
    <glyph glyph-name="fl" unicode="fl" horiz-adv-x="527" 
d="M249 497q22 0 28.5 0.5t6.5 -1.5q0 -5 -15.5 -20.5l-31.5 -32.5q-22 0 -42 0.5t-45 0.5v-202q0 -63 1 -132q0 -37 2 -57.5t9 -30t20.5 -11.5t35.5 -2q6 0 6 -4.5t-6 -4.5q-11 0 -26.5 0.5t-30.5 0.5t-27.5 0.5t-18.5 0.5t-18 -0.5t-26.5 -0.5t-29.5 -0.5t-26 -0.5
q-6 0 -6 4.5t6 4.5q22 0 34.5 3.5t18.5 14t7 30.5t1 53q-1 92 -1 165v163v7h-41q-14 0 -14 5l35 47h25q8 46 27.5 88t46 76t59 59.5t67.5 39.5q32 13 64 13q16 0 32 -6t21 -6q14 6 27.5 21t20.5 27q2 2 6 1.5t4 -4.5v-687q0 -32 1.5 -53.5t8 -34t19 -17.5t34.5 -5
q6 0 6 -4.5t-6 -4.5q-22 0 -50.5 1t-44.5 1q-8 0 -20.5 -0.5t-27.5 -0.5t-29.5 -0.5t-25.5 -0.5q-6 0 -6 4.5t6 4.5q21 0 33 2t18 12.5t7.5 33t1.5 62.5v568q0 4 -11 10.5t-28.5 12t-40 9.5t-44.5 4q-52 0 -79 -53.5t-27 -172.5h99z" />
    <glyph glyph-name="g_g" unicode="gg" horiz-adv-x="985" 
d="M465 484q-11 0 -33 3t-49 6l-56.5 6t-56.5 3v-2q78 -11 120 -57t42 -114q0 -40 -16 -71.5t-44 -54t-67 -34.5t-84 -12h-18q-23 -2 -44 -5.5t-37.5 -10.5t-26.5 -16.5t-10 -21.5q0 -29 33.5 -36t99.5 -7h89q42 0 72 -9.5t50 -25.5t29.5 -37t9.5 -43q0 -46 -28 -90
t-72.5 -78.5t-100.5 -55.5t-111 -21q-45 0 -76.5 9t-51 25.5t-28 39t-8.5 49.5q0 29 15 55.5t38.5 49t53.5 40t60 28.5q-60 2 -93.5 16.5t-33.5 51.5q0 16 11 32t30 28.5t45 22t56 14.5q-64 11 -102.5 52.5t-38.5 113.5q0 38 16 71t44.5 57.5t66.5 38.5t82 14q37 0 75.5 6
t72 13t58 13t33.5 6q8 0 18.5 -3t10.5 -12q0 -6 -3 -14.5t-9 -15.5t-14.5 -12t-18.5 -5zM948 484q-11 0 -33 3t-49 6l-56.5 6t-56.5 3v-2q78 -11 120 -57t42 -114q0 -40 -16 -71.5t-44 -54t-67 -34.5t-84 -12h-18q-23 -2 -44 -5.5t-37.5 -10.5t-26.5 -16.5t-10 -21.5
q0 -29 33.5 -36t99.5 -7h106q49 0 83 -10t54 -26t29 -36.5t9 -41.5q0 -50 -29.5 -95t-75.5 -78.5t-102 -52.5t-109 -19q-73 -1 -113 32t-40 91q0 29 15 55.5t39 49t54 39.5t60 28h-5q-36 0 -65.5 3t-50.5 11t-33 21t-12 33q0 16 11 32t30 28.5t45 22t56 14.5
q-64 11 -102.5 52.5t-38.5 113.5q0 38 16 71t44.5 57.5t66.5 38.5t82 14q37 0 75.5 6t72 13t58 13t33.5 6q8 0 18.5 -3t10.5 -12q0 -6 -3 -14.5t-9 -15.5t-14.5 -12t-18.5 -5zM220 -245q52 0 92.5 12t68.5 32t43 47t15 56q0 48 -39.5 71t-127.5 23h-91q-65 -20 -105 -56
t-40 -78q0 -54 48 -80.5t132 -26.5h4zM730 -244q45 0 85.5 10.5t71 29.5t48.5 46t18 61q0 48 -42 70.5t-145 22.5h-63q-66 -19 -106 -55t-40 -78q0 -54 44.5 -80.5t123.5 -26.5h5zM232 167q61 0 93.5 41.5t32.5 120.5q0 32 -8 62.5t-23.5 54t-38 38t-52.5 14.5
q-128 0 -128 -160q0 -36 7.5 -67.5t23 -54.5t39 -36t54.5 -13zM715 167q61 0 93.5 41.5t32.5 120.5q0 32 -8 62.5t-23.5 54t-38 38t-52.5 14.5q-128 0 -128 -160q0 -36 7.5 -67.5t23 -54.5t39 -36t54.5 -13z" />
    <glyph glyph-name=".notdef" horiz-adv-x="850" 
d="M80 690h690v-690h-690v690zM756 14v662h-662v-662h662zM435 345l239 -239l-10 -10l-239 239l-239 -239l-10 10l239 239l-239 239l10 10l239 -239l239 239l10 -10z" />
    <glyph glyph-name="NULL" horiz-adv-x="0" 
 />
    <glyph glyph-name="NULL" horiz-adv-x="0" 
 />
    <glyph glyph-name="nonmarkingreturn" unicode="&#xd;" horiz-adv-x="309" 
 />
    <glyph glyph-name="space" unicode=" " horiz-adv-x="309" 
 />
    <glyph glyph-name="exclam" unicode="!" horiz-adv-x="252" 
d="M68 54q0 23 16.5 40.5t41.5 17.5q23 0 40.5 -17.5t17.5 -40.5q0 -25 -17.5 -41.5t-40.5 -16.5q-25 0 -41.5 16.5t-16.5 41.5zM94 613q0 8 7 21t16 25.5t18 21.5t13 9q11 0 17.5 -9t6.5 -26v-4q0 -38 -6.5 -95.5l-14 -124t-14 -136t-6.5 -132.5q0 -4 -3 -4t-3 4
q0 63 -5 129t-10.5 126.5t-10.5 110t-5 79.5v5z" />
    <glyph glyph-name="quotedbl" unicode="&#x22;" horiz-adv-x="281" 
d="M82 709q11 0 20 -8.5t9 -20.5q0 -7 -4 -33.5t-8.5 -63t-8.5 -79t-4 -81.5q0 -7 -5 -7t-5 7q0 39 -3.5 81.5t-7.5 79t-7.5 63t-3.5 33.5q0 12 8.5 20.5t19.5 8.5zM198 709q11 0 20 -8.5t9 -20.5q0 -7 -4 -33.5t-8.5 -63t-8.5 -79t-4 -81.5q0 -7 -5 -7t-5 7q0 39 -3.5 81.5
t-7.5 79t-7.5 63t-3.5 33.5q0 12 8.5 20.5t19.5 8.5z" />
    <glyph glyph-name="numbersign" unicode="#" horiz-adv-x="809" 
d="M537 227q60 1 107 2t96 3q7 -9 7.5 -12.5t-1.5 -14.5q-54 4 -102 7t-107 5v-42t0.5 -43.5t1.5 -51.5t2 -66l-12.5 -10t-12.5 0q1 40 2.5 70t3 54t2.5 45.5l2 44.5q-26 1 -56 1h-65q-40 0 -72 -0.5t-59 -0.5v-42.5t0.5 -43.5t1.5 -51.5t2 -66.5l-12.5 -10t-12.5 0
q1 40 2.5 69.5t3 54t2.5 45.5l2 44q-25 0 -48 -1t-46 -1.5t-47.5 -1.5t-53.5 -2l-10 12.5t0 12.5q30 -2 56 -3.5t50.5 -2.5l48.5 -2t50 -1q1 25 1.5 54t0.5 69v71.5t-1 56.5q-26 0 -48.5 -1t-45.5 -1.5t-48 -1.5t-54 -2l-10 12.5t0 12.5q61 -4 107 -6t99 -3l-3 193
q9 7 12.5 7.5t14.5 -1.5q-2 -35 -4 -61.5t-3.5 -49.5t-2.5 -44l-2 -44q27 -1 58 -1h70h123l-3 194q9 7 12.5 7.5t14.5 -1.5q-2 -35 -4 -61.5t-3.5 -49.5t-2.5 -44.5l-2 -44.5q59 1 105.5 2t95.5 3q7 -9 7.5 -12.5t-1.5 -14.5q-54 4 -101.5 7t-106.5 5q-1 -25 -1 -55.5v-70.5
v-124zM405 479q-40 0 -71.5 -0.5t-58.5 -0.5q-1 -26 -1 -56v-71v-124h252q1 25 1.5 54t0.5 69v71.5t-1 56.5q-26 1 -56.5 1h-65.5z" />
    <glyph glyph-name="dollar" unicode="$" horiz-adv-x="561" 
d="M53 513q0 44 17 79t46.5 59.5t69 37.5t85.5 14q-1 20 -1 39v39q9 7 11 7.5t13 -1.5q-2 -22 -2.5 -43t-1.5 -41q34 0 60.5 -2.5t49 -6.5t42 -8.5t40.5 -8.5q5 -2 7.5 -3.5t3.5 -7.5q1 -8 0 -32.5t-2.5 -56t-2.5 -63.5t-1 -53q0 -9 -5 -9t-5 9q0 106 -44 165t-143 67
q-2 -73 -3.5 -145t-1.5 -152l80.5 -37t72.5 -43.5t52.5 -56.5t20.5 -77q0 -43 -15.5 -80t-44.5 -64.5t-70.5 -43t-93.5 -15.5h-1q0 -20 0.5 -41.5t1.5 -43.5q-4 -7 -9 -9.5t-15 -0.5l3 95q-36 1 -62 3.5t-47.5 6.5t-41 9l-42.5 11q-7 2 -9.5 4t-3.5 9q-1 9 -0.5 35.5t2 60
l3 68t1.5 60.5q0 8 5 8t5 -8q0 -54 11 -99.5t34 -79t59.5 -53.5t86.5 -24q2 88 3.5 170t1.5 163l-79 35.5t-70.5 39.5t-51 49.5t-19.5 65.5zM295 -11q37 0 66.5 11t49 30.5t30 46.5t10.5 58q0 36 -13.5 63t-37 48.5t-53.5 39t-63 32.5v-165.5t2 -163.5h9zM116 560
q0 -30 12.5 -53t34.5 -41.5t50 -34t60 -29.5q0 79 -0.5 151t-1.5 141h-2q-75 0 -114 -38.5t-39 -95.5z" />
    <glyph glyph-name="percent" unicode="%" horiz-adv-x="777" 
d="M384 340l-68 -83l-70 -87l-69.5 -87.5l-66.5 -83.5q-11 -2 -22 -3t-19 3l154.5 173l148.5 170l71.5 87.5l76.5 94.5l73 90.5l62 77.5q20 4 35 -2l-72.5 -80l-80.5 -90.5l-80.5 -93zM473 297q7 5 20.5 12.5t30 14.5t33.5 12t31 5q75 0 110.5 -38.5t35.5 -119.5
q0 -26 -7.5 -48.5t-18.5 -40.5t-24 -31t-25 -21q-7 -5 -20 -13t-29 -16t-33.5 -14t-33.5 -6q-68 0 -105.5 36.5t-37.5 117.5q0 27 7 50.5t17.5 42.5t23.5 33.5t25 23.5zM478 290q-5 -7 -8.5 -16t-6 -22.5t-4 -33t-1.5 -47.5q0 -73 32 -106.5t87 -33.5q26 0 46.5 5.5
t29.5 10.5q9 10 15 37t6 83q0 72 -26.5 105.5t-89.5 33.5q-26 0 -46 -4t-34 -12zM113 655q7 5 20.5 12.5t30 14.5t33.5 12t31 5q75 0 110.5 -38.5t35.5 -119.5q0 -26 -7.5 -48.5t-18.5 -40.5t-24 -31t-25 -21q-7 -5 -20 -13t-29 -16t-33.5 -14t-33.5 -6q-68 0 -105.5 36.5
t-37.5 117.5q0 27 7 50.5t17.5 42.5t23.5 33.5t25 23.5zM118 648q-5 -7 -8.5 -16t-6 -22.5t-4 -33t-1.5 -47.5q0 -73 32 -106.5t87 -33.5q26 0 46.5 5.5t29.5 10.5q9 10 15 37t6 83q0 72 -26.5 105.5t-89.5 33.5q-26 0 -46 -4t-34 -12z" />
    <glyph glyph-name="ampersand" unicode="&#x26;" horiz-adv-x="839" 
d="M598 -2q-27 0 -76 34t-118 103q-9 -17 -30 -40.5t-48 -46t-58 -38t-60 -15.5q-26 0 -52 14t-46.5 36t-33.5 49.5t-13 54.5q0 28 15 56.5t39.5 53t55 41t61.5 20.5l3 -2q-45 56 -74.5 104t-29.5 79q0 45 14.5 80.5t39.5 60.5t59 38.5t74 14.5q19 0 45.5 -3.5t52.5 -9.5
t46.5 -13t27.5 -12q-3 -26 -5 -55q-2 -25 -3.5 -55.5t-1.5 -61.5q0 -12 -5.5 -12t-5.5 12q-3 42 -13.5 79t-29 64t-45.5 43t-64 16q-63 0 -97 -32t-34 -89q0 -29 16 -63.5t43 -72t62 -78l72 -81.5q107 -119 182 -176.5t113 -57.5q14 0 23.5 13.5t15.5 35t8.5 48.5t2.5 54
q0 48 -9 88.5t-23 60.5l-112 1q-41 0 -66 -0.5t-42 -2.5q-10 -2 -4 5q7 8 14 18t14 19t12.5 15t8.5 6h138q27 0 54 2t36 4q5 1 7.5 0t-3.5 -6q-17 -14 -26 -30.5t-21 -29.5q17 -13 33.5 -28t29 -34t20.5 -42t8 -52q0 -30 -19 -62.5t-48 -59.5t-63.5 -44.5t-66.5 -17.5z
M313 231q-19 20 -37 41l-35 42q-62 -16 -88.5 -40.5t-29.5 -75.5q1 -31 16 -58.5t36 -48t45 -32.5t43 -12q40 0 74.5 26.5t58.5 68.5l-40 42z" />
    <glyph glyph-name="quotesingle" unicode="'" horiz-adv-x="164" 
d="M82 709q11 0 20 -8.5t9 -20.5q0 -7 -4 -33.5t-8.5 -63t-8.5 -79t-4 -81.5q0 -7 -5 -7t-5 7q0 39 -3.5 81.5t-7.5 79t-7.5 63t-3.5 33.5q0 12 8.5 20.5t19.5 8.5z" />
    <glyph glyph-name="parenleft" unicode="(" horiz-adv-x="400" 
d="M102 262q0 79 19 156.5t53.5 147t82.5 127t105 96.5q7 5 11.5 0.5t-1.5 -9.5q-55 -39 -99 -96t-75 -125.5t-48 -144.5t-17 -152q0 -77 16 -153.5t46 -146t73 -127.5t98 -97q7 -5 2 -9t-11 0q-57 39 -104 97.5t-80.5 129t-52 149t-18.5 157.5z" />
    <glyph glyph-name="parenright" unicode=")" horiz-adv-x="400" 
d="M298 262q0 -79 -18.5 -157.5t-52 -149t-80.5 -129t-104 -97.5q-6 -4 -11 0t2 9q55 39 98 97t73 127.5t46 146t16 153.5q0 76 -17 152t-48 144.5t-75 125.5t-99 96q-6 5 -1.5 9.5t11.5 -0.5q57 -39 104.5 -96.5t82 -127t54 -147t19.5 -156.5z" />
    <glyph glyph-name="asterisk" unicode="*" horiz-adv-x="351" 
d="M145 430q0 1 4 14t8.5 30t8.5 36t5 32q-11 -7 -25.5 -19.5t-27 -25.5l-22 -22.5l-10.5 -10.5q-18 -11 -33 -8t-20 9q-3 7 2 21.5t24 25.5q1 1 14 4t30.5 7.5t35 10.5t29.5 12q-12 6 -29.5 12t-35 10.5t-30.5 7.5t-14 4q-19 11 -24 25.5t-2 20.5q5 7 20 10t33 -8
l10.5 -10.5l22 -22.5t27 -26t25.5 -20q-1 13 -5 32t-8.5 36.5t-8.5 30t-4 14.5q0 21 10 33t18 12t18 -12t10 -33q0 -2 -4 -15t-8.5 -30t-9 -36t-4.5 -32q11 7 25 20l27 26l22.5 22.5l10.5 10.5q18 11 33 8t20 -10q3 -6 -2 -20.5t-24 -25.5q-1 -1 -14 -4t-30 -7.5
t-35.5 -10.5t-30.5 -12q12 -6 30.5 -12t35.5 -10.5t30 -7.5t14 -4q19 -11 24 -25.5t2 -21.5q-5 -6 -20 -9t-33 8q-1 0 -10.5 10t-22.5 22.5l-27 25.5t-25 20q0 -13 4.5 -32t9 -36t8.5 -30t4 -14q0 -21 -10 -33t-18 -12t-18 12t-10 33z" />
    <glyph glyph-name="plus" unicode="+" 
d="M268 416q4 5 12.5 5t11.5 -5q-2 -20 -3 -37.5l-2 -36t-1.5 -40.5t-0.5 -51q28 0 50.5 0.5t41.5 1.5t36 2l35 2q5 -4 5 -12.5t-5 -11.5q-20 1 -37.5 2.5t-36 2.5t-40 1.5t-49.5 0.5q0 -29 0.5 -51t1.5 -40.5l2 -36t3 -36.5q-3 -5 -11.5 -5t-12.5 5q2 36 2.5 71.5t0.5 92.5
q-29 0 -50.5 -0.5t-40 -1.5t-36 -2.5t-36.5 -2.5q-5 3 -5 11.5t5 12.5l70.5 -4t92.5 -2v51.5t-0.5 42t-1 36.5t-1.5 35z" />
    <glyph glyph-name="comma" unicode="," horiz-adv-x="269" 
d="M116 -123q-4 -2 -6 -0.5t3 4.5q21 12 41 38.5t20 71.5q0 18 -6 33q-13 -24 -43 -24q-22 0 -37 15t-15 37q0 23 15.5 40.5t44.5 17.5q33 0 52 -27t19 -75q0 -23 -10 -44.5t-24 -38.5t-29 -29.5t-25 -18.5z" />
    <glyph glyph-name="hyphen" unicode="-" horiz-adv-x="538" 
d="M272 251q62 0 112 2t86 4q7 -4 6.5 -12.5t-5.5 -11.5q-42 3 -90 5t-109 2t-111 -2t-90 -5q-6 3 -5.5 11.5t4.5 12.5q38 -2 90 -4t112 -2z" />
    <glyph glyph-name="period" unicode="." horiz-adv-x="252" 
d="M68 54q0 23 16.5 40.5t41.5 17.5q23 0 40.5 -17.5t17.5 -40.5q0 -25 -17.5 -41.5t-40.5 -16.5q-25 0 -41.5 16.5t-16.5 41.5z" />
    <glyph glyph-name="slash" unicode="/" horiz-adv-x="356" 
d="M188 247l-51.5 -125.5l-53.5 -132.5l-53 -133l-50 -127q-13 -4 -16 -4.5t-12 5.5l57 128.5l57.5 133l55.5 132.5l53 127l53 132l57.5 142.5l55 138.5l46.5 118q12 3 15 2t13 -6l-55.5 -121l-59.5 -138l-59 -141.5z" />
    <glyph glyph-name="zero" unicode="0" horiz-adv-x="706" 
d="M344 -10q-140 0 -214.5 85t-74.5 266q0 58 10 104t27.5 82t41 63t49.5 47q14 10 36 22t47 21.5t51 16t49 6.5q76 0 131 -23t89.5 -67.5t51 -109.5t16.5 -150q0 -55 -13 -103.5t-33 -87.5t-44.5 -68.5t-48.5 -45.5q-14 -10 -33 -20.5t-41.5 -18.5t-47 -13.5t-49.5 -5.5z
M381 29q36 0 73 7t57 17q43 45 57 118.5t14 175.5q0 154 -59 236.5t-186 82.5q-42 0 -81 -8.5t-68 -24.5q-29 -32 -44.5 -98.5t-15.5 -184.5q0 -74 15 -133t46.5 -101t79 -64.5t112.5 -22.5z" />
    <glyph glyph-name="one" unicode="1" horiz-adv-x="257" 
d="M30 9q22 0 34.5 7t18.5 24.5t7.5 46.5t1.5 74v395q0 22 -2 36t-10 20.5t-23 5.5t-40 -10q-6 -2 -8 3t4 7q50 17 82.5 40.5t52.5 39.5q2 2 10 -0.5t8 -6.5v-530q0 -44 1.5 -73.5t8 -47t19.5 -24.5t36 -7h17q5 0 5 -4.5t-5 -4.5q-11 0 -28 0.5t-34 1.5t-31 1.5t-20 0.5
t-21 -0.5t-33.5 -1.5t-36.5 -1.5t-29 -0.5q-5 0 -5 4.5t5 4.5h15v0z" />
    <glyph glyph-name="two" unicode="2" horiz-adv-x="602" 
d="M219 -1q-25 0 -53.5 -0.5t-54 -1t-44 -1t-22.5 -0.5q-1 9 -1 17q0 7 0.5 13t2.5 8l65.5 55.5l55.5 48.5l49.5 44l46.5 42q50 46 86.5 85t60 76t35 74t11.5 79q0 71 -38 116t-119 45q-57 0 -97.5 -15t-65.5 -51.5t-36.5 -97.5t-11.5 -153q0 -7 -4.5 -7t-4.5 7q0 42 -3 84
t-7 76.5l-7 60t-3 34.5q0 7 1.5 14t9.5 8l57.5 17.5t58 15.5t61.5 11.5t68 4.5q105 0 164.5 -44t59.5 -124q0 -37 -21.5 -74t-58.5 -76t-86 -82l-104 -91l-81 -73.5l-84 -81.5h67h82.5t83.5 0.5t70 1.5q60 1 94.5 28t44.5 95l10 68q1 5 6.5 4.5t4.5 -5.5l-10 -69
q-5 -32 -9.5 -64t-8.5 -57.5t-7.5 -42.5t-5.5 -20q-2 -2 -11 -3t-33 -1q-10 0 -45.5 0.5t-78.5 0.5t-82.5 0.5t-57.5 0.5z" />
    <glyph glyph-name="three" unicode="3" horiz-adv-x="565" 
d="M75 2q-11 2 -10 6t8 3q33 -5 63 -7.5t56 -2.5q69 0 116.5 16t77 44.5t42.5 68t13 86.5q0 31 -11.5 58t-30.5 47.5t-44 32t-52 11.5q-24 0 -45.5 -12t-39.5 -27l-32 -27t-23 -12t-12 6t-3 13.5t2 13.5t2 7q55 18 100.5 42t78.5 54t51 64t18 71q0 60 -33 100t-108 40
q-39 0 -73 -15t-59 -46.5t-39 -80.5t-14 -118q0 -7 -4.5 -7t-4.5 7q0 89 -4 139.5t-4 61.5q0 7 1.5 14t9.5 8q63 22 122 35t101 13q43 0 78 -10t60.5 -27.5t39.5 -42.5t14 -55q0 -29 -18 -56t-48.5 -52.5t-71 -51t-84.5 -50.5q23 8 44 13t41 5q39 0 71.5 -12.5t56 -35
t36.5 -55t13 -72.5q0 -43 -15.5 -83t-47.5 -71t-83 -49.5t-121 -18.5q-19 0 -43 1t-48.5 3.5t-48 5.5t-41.5 7z" />
    <glyph glyph-name="four" unicode="4" horiz-adv-x="603" 
d="M440 274q57 1 91.5 28.5t43.5 86.5l6 38q1 5 6 4.5t4 -5.5l-6 -39l-9.5 -57.5l-8 -51t-6.5 -37t-4 -16.5q-2 -2 -17.5 -3.5t-39.5 -1.5h-138v-89q0 -44 1.5 -68t10.5 -35.5t29 -14t57 -3.5q5 0 5 -4.5t-5 -4.5q-11 0 -30.5 0.5t-40 0.5t-37.5 0.5t-23 0.5t-26 -0.5
t-44 -0.5t-46.5 -0.5t-33.5 -0.5q-5 0 -5 4.5t5 4.5q41 1 64 3.5t34.5 14t14 35.5t2.5 68v89h-214q-24 0 -57 -3q-15 -2 -12.5 8t31.5 46q48 58 82.5 104l66 91.5l64.5 97.5l78 123q6 10 11.5 15.5t15.5 7.5q28 8 39 1.5t2 -25.5q-10 -20 -24.5 -40t-14.5 -51v-321h78z
M294 274v286l-56.5 -68.5l-53.5 -64.5l-57.5 -69.5l-68.5 -83.5h236z" />
    <glyph glyph-name="five" unicode="5" horiz-adv-x="559" 
d="M509 206q0 -46 -16.5 -86.5t-49.5 -70.5t-82 -47t-114 -17q-15 0 -35 1t-41.5 3.5t-43 5.5t-39.5 7q-11 2 -10 6t8 3q33 -5 67 -7.5t60 -2.5q58 0 99.5 17.5t67 46.5t37.5 66.5t12 77.5q0 35 -13 67t-36.5 56t-57 38t-75.5 14q-26 0 -48.5 -6t-43.5 -17t-41 -26l-42 -33
q-4 -2 -9.5 1t-5.5 8l3 328q0 3 10.5 11.5t23 17.5t24 16t14.5 7q7 0 27 -0.5t44.5 -0.5t49.5 -0.5t42 -0.5h156q24 0 33.5 -1t9.5 -3q0 -6 -2.5 -23l-5.5 -39l-6.5 -46.5t-4.5 -46.5l-5 -71q0 -5 -4.5 -5.5t-4.5 4.5l5 72q2 30 -2 50t-16.5 31t-36.5 16t-61 5h-222
l-18 -292q36 29 80.5 51t93.5 22q55 0 97 -15.5t70.5 -43.5t43 -65.5t14.5 -82.5z" />
    <glyph glyph-name="six" unicode="6" horiz-adv-x="571" 
d="M40 268q0 51 21.5 113t63.5 122t105 112t146 83q5 2 7 -1t-3 -5q-75 -30 -125 -79t-79.5 -106.5t-42 -117t-12.5 -109.5q0 -55 16.5 -104t43 -85.5t60 -58t68.5 -21.5q28 0 53 5t45 17q13 19 22 37t15 37.5t8.5 42t2.5 50.5q0 48 -16 83.5t-41 59t-57 35t-63 11.5
q-12 0 -27 -3.5t-31.5 -9.5t-32 -14.5t-27.5 -19.5q-5 -2 -6 0t1 4q15 15 35.5 29t42.5 25.5t44 18t40 6.5q43 0 81.5 -12t67.5 -37.5t46 -64.5t17 -94q0 -33 -8.5 -59.5t-21.5 -48t-27 -37.5t-24 -26q-48 -27 -93 -43t-76 -16q-45 0 -87.5 17t-76.5 52t-54.5 87.5
t-20.5 124.5z" />
    <glyph glyph-name="seven" unicode="7" horiz-adv-x="542" 
d="M224 1q-5 0 -22.5 -0.5t-38 -0.5t-40 -0.5t-28.5 -0.5q-6 0 -5.5 4.5t6.5 4.5h28q17 0 34.5 9.5t37 32t41.5 61t49 96.5l70 153l63 139.5t47 109.5h-273q-41 0 -66 -3t-39 -13t-19.5 -29.5t-7.5 -52.5l-6 -100q0 -8 -5.5 -7.5t-4.5 8.5l7 99q1 21 2 48l2 52.5t1.5 45
t0.5 25.5q0 2 9 3t32 1h134h33t49 0.5t56.5 0.5t54.5 0.5t43 0.5h23q2 0 4 -10.5t3 -23t1 -24t-1 -13.5l-57.5 -108.5t-75.5 -152.5l-70 -154q-34 -76 -34 -138q0 -29 17.5 -43t47.5 -14q12 0 20 1.5t11 1.5q6 0 6 -6q0 -2 -2 -3.5t-10 -1.5q-6 0 -25 0.5t-40 0.5t-39 0.5
t-24 0.5z" />
    <glyph glyph-name="eight" unicode="8" horiz-adv-x="574" 
d="M82 527q0 51 22 84t60 56q10 5 26.5 12.5t35.5 14t38 11t34 4.5q46 0 80 -12t56.5 -32t33.5 -46.5t11 -56.5t-14.5 -56t-35.5 -48.5t-45.5 -41.5l-45.5 -34q32 -18 62 -37t53.5 -40.5t37.5 -47t14 -56.5q0 -56 -23.5 -94t-70.5 -67l-26 -12.5t-40 -16.5t-45 -14.5
t-41 -6.5q-56 0 -96.5 15t-67 40t-39 56t-12.5 63q0 35 16 66t40 57t52 46t52 34q-25 15 -47.5 31t-39 35t-26 42t-9.5 52zM304 27q28 0 56 4.5t48 12.5q13 15 21 26t12.5 22t6 22.5t1.5 26.5q0 44 -22.5 75.5t-57.5 56.5t-77 46t-82 44q-42 -27 -69.5 -69.5t-27.5 -98.5
q0 -37 13 -67.5t38 -53t60.5 -35t79.5 -12.5zM410 552q0 62 -37 94.5t-114 32.5q-11 0 -24.5 -1t-26.5 -3.5t-24 -5.5t-17 -6q-17 -26 -24 -46.5t-7 -50.5t17.5 -55t45 -46.5t63 -41l71.5 -39.5q35 34 56 73.5t21 94.5z" />
    <glyph glyph-name="nine" unicode="9" horiz-adv-x="578" 
d="M529 414q0 -45 -20 -106t-62 -122.5t-106 -116.5t-152 -88q-5 -2 -7 1t3 5q81 32 131 84.5t78 112.5t38.5 120.5t11.5 107.5q1 55 -13 103t-39 84t-59.5 56.5t-76.5 20.5q-28 0 -51.5 -5t-43.5 -17q-13 -19 -23 -37t-16.5 -37.5t-10 -42t-3.5 -50.5q0 -48 14.5 -83.5
t38 -59t53.5 -35.5t62 -12q28 0 61 12.5t57 34.5q5 2 6 0t-1 -4q-15 -15 -35 -29.5t-42.5 -26t-45 -18.5t-41.5 -7q-43 0 -79.5 12t-63.5 37.5t-42 64.5t-15 94q0 33 8.5 60t21 49t26 38t24.5 27q48 27 94 43t77 16q48 0 92 -18t77.5 -53.5t53.5 -89t20 -125.5z" />
    <glyph glyph-name="colon" unicode=":" horiz-adv-x="252" 
d="M68 54q0 23 16.5 40.5t41.5 17.5q23 0 40.5 -17.5t17.5 -40.5q0 -25 -17.5 -41.5t-40.5 -16.5q-25 0 -41.5 16.5t-16.5 41.5zM68 360q0 23 16.5 40.5t41.5 17.5q23 0 40.5 -17.5t17.5 -40.5q0 -25 -17.5 -41.5t-40.5 -16.5q-25 0 -41.5 16.5t-16.5 41.5z" />
    <glyph glyph-name="semicolon" unicode=";" horiz-adv-x="269" 
d="M116 -123q-4 -2 -6 -0.5t3 4.5q21 12 41 38.5t20 71.5q0 18 -6 33q-13 -24 -43 -24q-22 0 -37 15t-15 37q0 23 15.5 40.5t44.5 17.5q33 0 52 -27t19 -75q0 -23 -10 -44.5t-24 -38.5t-29 -29.5t-25 -18.5zM68 360q0 23 16.5 40.5t41.5 17.5q23 0 40.5 -17.5t17.5 -40.5
q0 -25 -17.5 -41.5t-40.5 -16.5q-25 0 -41.5 16.5t-16.5 41.5z" />
    <glyph glyph-name="less" unicode="&#x3c;" 
d="M278 181q27 -12 47 -20l36.5 -15t32.5 -12.5l34 -11.5q2 -6 0 -12t-7 -8l-31.5 15.5t-33 15l-38 16.5l-47.5 21l-148 67q-2 0 -2 6t2 6q21 9 37 16.5l32 14.5l35 16l46 21l46.5 20.5t36 16.5l30.5 15t30 16q11 -7 8 -20q-18 -6 -33 -12l-31 -12.5l-35.5 -15l-46.5 -20.5
l-43 -19l-33 -15l-29 -13.5l-31 -14.5l31 -14.5l29 -13l33 -14.5z" />
    <glyph glyph-name="equal" unicode="=" 
d="M280 317q-31 0 -53 0.5t-40.5 0.5t-37 -0.5t-41.5 -1.5q-5 4 -6 10.5t1 11.5q24 -3 43 -4l38.5 -2t41.5 -1h53h54.5t43.5 0.5t37.5 1.5l35.5 2q8 -10 3 -24q-20 3 -38.5 4.5t-38 2t-43 0t-53.5 -0.5zM280 162q-31 0 -53 0.5t-40.5 0.5t-37 -0.5t-41.5 -1.5q-5 2 -6.5 9
t1.5 13q24 -3 43 -4l38.5 -2t41.5 -1h53h54.5t43.5 0.5t37.5 1.5l35.5 2q5 -4 5.5 -11t-2.5 -13q-20 3 -38.5 4.5t-38 2t-43 0t-53.5 -0.5z" />
    <glyph glyph-name="greater" unicode="&#x3e;" 
d="M284 307l-46.5 20l-35.5 15t-31 12.5t-33 11.5q-2 6 0 12t7 8l30.5 -15.5t31.5 -15l37 -16.5l47 -21l148 -67q2 0 2 -6t-2 -6q-21 -9 -37 -16.5l-32 -14.5l-35 -16l-46 -21l-47 -21l-37 -17t-31.5 -15.5l-30.5 -16.5q-11 7 -8 20q18 6 33.5 12t32 13.5l36.5 16l47 20.5
l43 19l33 14.5t28.5 13l30.5 14.5l-30.5 14.5l-28.5 13.5l-33 15z" />
    <glyph glyph-name="question" unicode="?" horiz-adv-x="395" 
d="M120 54q0 23 17 40.5t42 17.5q23 0 40 -17.5t17 -40.5q0 -25 -17.5 -41.5t-40.5 -16.5q-25 0 -41.5 16.5t-16.5 41.5zM131 341q0 4 1 6.5t7 4.5q78 38 115 75.5t36 92.5q-1 56 -52 88t-152 32q-6 0 -6 6q0 4 4.5 19.5l10 34.5l10.5 38l8 31q2 4 4 3.5t2 -4.5
q-4 -23 -7 -38t-2 -19t6 -4h12q52 0 91 -12.5t65 -33.5t39 -47t13 -53q0 -31 -12.5 -60.5t-33 -54t-45.5 -44t-49 -31.5q0 -8 1.5 -30t3.5 -46.5l3.5 -44.5t0.5 -24q0 -2 -11.5 -9.5t-25 -15t-25 -13t-11.5 -3.5t-0.5 22t-0.5 45.5v50.5v38z" />
    <glyph glyph-name="at" unicode="@" horiz-adv-x="977" 
d="M793 -85q-26 -26 -60 -50t-74 -43t-85.5 -30.5t-93.5 -11.5q-89 0 -167 25.5t-136 75t-91.5 122.5t-33.5 167q0 75 21.5 141t58.5 121t86.5 98t106 73t116 45.5t117.5 15.5q68 0 121.5 -15.5t94.5 -41t70 -58.5t47.5 -68t27.5 -70t9 -64q0 -72 -25 -135.5t-68.5 -110
t-101 -73.5t-123.5 -27q-4 0 -13.5 2t-19.5 5t-18.5 6t-10.5 5q-13 14 -19.5 36t-7.5 35q-1 16 5.5 37.5t17 45t23 47t24.5 43.5q-26 -31 -57.5 -64.5l-63.5 -65.5l-64 -62t-59 -53q-3 -3 -9 -3.5t-12.5 -0.5t-12.5 1t-7 3q-16 12 -24.5 35t-10 53t4.5 63t19 65
q21 51 57 92.5t76 70t79.5 44t68.5 15.5q16 0 27.5 -2.5t23.5 -9.5t25.5 -20.5l33.5 -34.5l12 11.5l16.5 16l17 17.5t14.5 16q6 5 9 3q1 -1 2 -4q-14 -17 -32 -45.5l-37.5 -62t-37.5 -70t-32.5 -71t-22.5 -63t-7 -46.5q0 -5 5.5 -16t13.5 -22.5t16.5 -21t14.5 -11.5
q51 0 99 22.5t85.5 64t60.5 99.5t23 129q0 29 -8.5 63.5t-27 69t-47 67.5t-68.5 58t-92 40.5t-117 15.5q-84 0 -168 -33t-151.5 -93t-110 -143.5t-42.5 -183.5q0 -101 33 -175t90 -123t134 -73t166 -24q41 0 83 10.5t81 27.5t72 37.5t57 40.5zM360 60q10 3 29 17.5t43 36.5
t51.5 50.5l55.5 59.5l54 62.5t47 60.5l-37 41.5t-27 26.5t-23 13.5t-23 3.5q-23 0 -48 -14.5t-48.5 -40t-43.5 -59.5t-32 -73q-20 -64 -18 -114t20 -71z" />
    <glyph glyph-name="A" unicode="A" horiz-adv-x="711" 
d="M348 245q-18 0 -44 0.5l-52.5 1t-49 1t-33.5 0.5l-17 -42l-12.5 -35t-12 -39t-8.5 -39.5t-3 -35.5q0 -49 56 -49q6 0 15.5 1.5t12.5 1.5q7 0 7 -5q0 -2 -2 -4t-10 -2q-7 0 -23 0.5t-34 0.5t-34.5 0.5t-22.5 0.5q-5 0 -15 -0.5t-22 -0.5t-24.5 -0.5t-21.5 -0.5q-6 0 -6 5
q0 4 6 4h4q40 0 72 60q19 32 36.5 71t29.5 71l193 482q1 3 7 3h10q8 0 10 -3l182 -434q37 -88 60.5 -138t40 -75t30 -31t31.5 -6h8q7 0 7 -4q0 -5 -6 -5q-11 0 -26 0.5l-30 1t-27 1t-18 0.5t-21.5 -0.5t-34 -1l-36.5 -1t-29 -0.5q-6 0 -7.5 4.5t4.5 4.5h21q16 0 24.5 6t5 30
t-20.5 72t-53 131zM311 608l-139 -351l170 1h118v1z" />
    <glyph glyph-name="B" unicode="B" horiz-adv-x="605" 
d="M19 0q-6 0 -6 4.5t6 4.5h18q18 0 29 4.5t16.5 28.5t7 74.5t1.5 142.5v175q0 92 -1.5 142.5t-7 74.5t-16.5 28.5t-29 4.5h-18q-6 0 -6 4.5t6 4.5q10 0 27 -0.5l33.5 -1t30.5 -1t20 -0.5q5 0 29 0.5t52.5 1t53 1t31.5 0.5q63 0 112 -8t82.5 -27t51 -50.5t17.5 -77.5
q0 -38 -15 -66.5t-42 -48.5t-64.5 -32.5t-82.5 -18.5q48 -4 89.5 -16.5t72 -34.5t48 -53t17.5 -71q0 -89 -61.5 -139t-198.5 -50h-20t-35 0.5t-42.5 1t-42.5 1t-34.5 0.5h-17.5q-6 0 -20 -0.5t-30.5 -1l-33.5 -1t-27 -0.5zM307 9q100 0 145 44.5t45 135.5q0 83 -46 125
t-154 42h-127v-97q0 -61 0.5 -103.5t2 -70.5t5 -43.5t9.5 -22.5t14.5 -8.5t20.5 -1.5h85zM170 367h114q93 0 141.5 37t48.5 127q0 45 -12 74t-36.5 46t-60.5 23.5t-84 6.5h-72q-12 0 -20 -1t-12 -8t-6 -22t-2 -42.5t0.5 -70t0.5 -103.5v-67z" />
    <glyph glyph-name="C" unicode="C" horiz-adv-x="756" 
d="M133 346q0 -77 19 -140.5t56 -109.5t90.5 -71t121.5 -25q63 0 109 19t78 54t50 84.5t24 109.5h8l-12 -233q-41 -18 -107.5 -31t-147.5 -13t-150 27t-120 74.5t-80 112.5t-29 142q0 78 31 144t83.5 113t122 73.5t146.5 26.5q31 0 66.5 -3.5t69 -9.5t63.5 -14t50 -17
l12 -218h-9q-12 119 -73 185.5t-177 66.5q-68 0 -122.5 -25.5t-92.5 -71t-59 -109.5t-21 -141z" />
    <glyph glyph-name="D" unicode="D" horiz-adv-x="733" 
d="M601 346q0 77 -21 139.5t-59.5 106.5t-93 68t-121.5 24h-66q-26 0 -39.5 -4.5t-20.5 -28.5t-8 -74.5t-1 -142.5v-273q0 -58 -2.5 -96t-5.5 -51q9 0 27.5 -0.5t40 -1.5t44 -1.5t39.5 -0.5q68 0 121.5 23.5t90 67.5t56 106t19.5 139zM690 346q0 -77 -29 -140.5
t-79.5 -109.5t-119.5 -71t-150 -25h-38.5t-51.5 1l-65 2l-141 -3q-8 0 -8 3.5t8 3.5q22 0 35 3t21 16t12 40t7 74q2 26 2.5 62t0 73t-1 69t-0.5 49t-0.5 43l-1 54l-1 55t-0.5 48q0 34 -1.5 52.5t-7.5 27t-19.5 10t-37.5 1.5q-6 0 -6 4.5t6 4.5q3 0 20.5 -0.5t38 -0.5
t39 -0.5t24.5 -0.5t28 0.5t48.5 0.5t51 0.5t35.5 0.5q77 0 146.5 -25t122 -70.5t83 -109.5t30.5 -142z" />
    <glyph glyph-name="E" unicode="E" horiz-adv-x="622" 
d="M171 365h83q47 0 76.5 8.5t46.5 23.5t23 36t6 47v21q0 6 5 6t5 -6q0 -11 -1 -32.5t-1.5 -44t-1.5 -41t-1 -24.5q0 -5 1 -25t1.5 -43t1.5 -43t1 -26t-5 -6t-5 6v15q0 26 -6 47.5t-23 36.5t-46.5 23.5t-76.5 8.5h-83v-192q0 -58 -2.5 -96t-5.5 -51q11 0 37.5 -0.5t56.5 -1
t56.5 -1t38.5 -0.5q43 0 80 17t64.5 45.5t44.5 65t22 74.5l6 53q1 5 6.5 4.5t4.5 -5.5l-6 -54l-11.5 -100t-8 -62t-6 -33t-5.5 -12q-2 -2 -13 -2.5t-29 -1t-41.5 -0.5h-49.5h-31h-38.5t-42 0.5t-41.5 0.5l-100 2l-141 -3q-8 0 -8 3.5t8 3.5q22 0 35 3t21 16t12 40t7 74
q2 26 3 62t1 76v80.5v75.5q0 92 -2 142.5t-8.5 74.5t-18 28.5t-29.5 4.5h-18q-6 0 -6 4.5t6 4.5q10 0 27 -0.5l33.5 -1t30.5 -1t20 -0.5h28t61.5 0.5t78.5 1t80 1t66.5 0.5h37.5q14 0 28 -1t19 -3q4 -2 11 -52.5l18 -131.5l4 -36q2 -5 -3 -5t-7 5l-5 36q-14 85 -69.5 130
t-141.5 46h-127q-17 0 -25 -4t-11 -27.5t-2.5 -73.5t0.5 -142v-69z" />
    <glyph glyph-name="F" unicode="F" horiz-adv-x="622" 
d="M134 3q-6 0 -19 -0.5t-29 -1l-32 -1t-26 -0.5q-6 0 -6 4.5t6 4.5h13q18 0 29 4.5t16.5 28.5t7 74.5t1.5 142.5v175q0 92 -2 142.5t-8.5 74.5t-18 28.5t-29.5 4.5h-18q-6 0 -6 4.5t6 4.5q21 0 52 -0.5t85 -0.5q93 0 154.5 0.5t100 1t58.5 1t31 0.5q16 0 30.5 -0.5
t22.5 -2.5q1 -2 2.5 -14.5t4.5 -39.5t7 -70t12 -104l8 -66q1 -5 -4.5 -5.5t-6.5 4.5l-8 65q-7 49 -23.5 90t-42.5 69.5t-60.5 44t-76.5 15.5h-156q-17 0 -25 -4t-11 -27.5t-2.5 -73.5t0.5 -142v-88h80q47 0 76.5 9.5t46.5 26.5t23 41.5t6 53.5v14q0 6 5 6t5 -6q0 -11 -1 -34
t-1.5 -47t-1.5 -44.5t-1 -25.5q0 -6 1 -28t1.5 -48t1.5 -48t1 -28t-5 -6t-5 6v16q0 29 -6 53t-23 41t-46.5 26.5t-76.5 9.5h-80v-75q0 -92 1.5 -142.5t7 -74.5t16 -28.5t28.5 -4.5h37q6 0 6 -4.5t-6 -4.5q-11 0 -30 0.5l-39 1t-36.5 1t-21.5 0.5z" />
    <glyph glyph-name="G" unicode="G" horiz-adv-x="770" 
d="M428 693q-69 0 -123.5 -25t-92.5 -70.5t-58.5 -109.5t-20.5 -142q0 -77 19 -140.5t56 -109.5t90.5 -71t121.5 -25q65 0 112 16t89 40q1 2 1.5 7t1 18.5t0.5 38.5v66q0 38 -0.5 71t-1.5 41q-14 4 -34 5.5t-44 2.5q-17 1 -42.5 1.5t-55 1l-60.5 1t-59 0.5q-5 0 -4.5 3.5
t5.5 3.5h67.5t88.5 1t101.5 3.5t108.5 6.5q6 0 6 -8q-1 -72 -1 -152v-170q0 -7 -8 -1q-12 10 -31.5 20t-30.5 10q-15 0 -36.5 -6t-48 -12.5t-57.5 -12.5t-65 -6q-81 0 -150 27t-120 74.5t-80 112.5t-29 142q0 78 31 144t83.5 113t122 73.5t146.5 26.5q31 0 66.5 -3.5
t69 -9.5t63.5 -14t50 -17l12 -213q1 -6 -3.5 -7t-5.5 6q-24 248 -250 248z" />
    <glyph glyph-name="H" unicode="H" horiz-adv-x="696" 
d="M91 434q0 92 -1.5 142.5t-7 74.5t-16.5 28.5t-29 4.5h-13q-6 0 -6 4.5t6 4.5q10 0 26 -0.5l32 -1t29 -1t19 -0.5q5 0 19 0.5t31 1l33.5 1t27.5 0.5q6 0 6 -4.5t-6 -4.5h-20q-18 0 -29 -4.5t-16.5 -28.5t-7 -74.5t-1.5 -142.5v-80l184 2l178 -3v81q0 92 -1.5 142.5
t-7 74.5t-16.5 28.5t-29 4.5h-21q-6 0 -6 4.5t6 4.5q11 0 27.5 -0.5l33.5 -1t31 -1t20 -0.5t19.5 0.5t29.5 1l32 1t27 0.5q6 0 6 -4.5t-6 -4.5h-16q-18 0 -28.5 -4.5t-16 -28.5t-7 -74.5t-1.5 -142.5v-175q0 -92 1.5 -142.5t7 -74.5t16 -28.5t28.5 -4.5h16q6 0 6 -4.5
t-6 -4.5q-11 0 -27 0.5l-32 1t-29.5 1t-19.5 0.5t-20 -0.5t-31 -1l-33.5 -1t-27.5 -0.5q-6 0 -6 4.5t6 4.5h21q18 0 29 4.5t16.5 28.5t7 74.5t1.5 142.5v84l-177 -1q-54 0 -105 0.5t-80 1.5v-85q0 -92 1.5 -142.5t7 -74.5t16.5 -28.5t29 -4.5h20q6 0 6 -4.5t-6 -4.5
q-11 0 -27.5 0.5l-33.5 1t-31 1t-19 0.5q-6 0 -19 -0.5t-29 -1l-32 -1t-26 -0.5q-6 0 -6 4.5t6 4.5h13q18 0 29 4.5t16.5 28.5t7 74.5t1.5 142.5v175z" />
    <glyph glyph-name="I" unicode="I" horiz-adv-x="281" 
d="M102 434q0 92 -1.5 142.5t-7 74.5t-16.5 28.5t-29 4.5h-21q-6 0 -6 4.5t6 4.5q10 0 27.5 -0.5l35 -1t32 -1t19.5 -0.5q6 0 20 0.5t31.5 1l34 1t27.5 0.5q6 0 6 -4.5t-6 -4.5h-21q-18 0 -29 -4.5t-16.5 -28.5t-7 -74.5t-1.5 -142.5v-175q0 -92 1.5 -142.5t7 -74.5
t16.5 -28.5t29 -4.5h21q6 0 6 -4.5t-6 -4.5q-11 0 -27.5 0.5l-34 1t-31.5 1t-20 0.5q-5 0 -19.5 -0.5t-32 -1l-35 -1t-27.5 -0.5q-6 0 -6 4.5t6 4.5h21q18 0 29 4.5t16.5 28.5t7 74.5t1.5 142.5v175z" />
    <glyph glyph-name="J" unicode="J" horiz-adv-x="285" 
d="M188 319v-23.5t0.5 -28.5t0.5 -29.5v-24.5q0 -77 -9 -127.5t-28.5 -89.5t-50.5 -73t-75 -77q-8 -8 -20 -18t-24.5 -19t-23.5 -15t-17 -6t-12 0.5t-11 1.5q-12 3 -19.5 9t-7.5 14q0 16 9 33.5t30 23.5q8 2 20 2q19 0 37 -0.5t25 -0.5q10 0 22 4t18 11q16 17 27 40.5
t18 64.5t10 105.5t3 162.5v175q0 94 -1 145t-6.5 74.5t-16.5 27t-30 3.5h-26q-6 0 -6 4.5t6 4.5q10 0 28.5 -0.5l37 -1t34 -1t20.5 -0.5q6 0 20.5 0.5t31.5 1l34 1t28 0.5q6 0 6 -4.5t-6 -4.5h-20q-21 0 -32 -4t-16.5 -27.5t-6.5 -74.5t-1 -144v-115z" />
    <glyph glyph-name="K" unicode="K" horiz-adv-x="668" 
d="M243 0q-3 0 -18 0.5t-33 0.5t-34 0.5t-22 0.5t-23 -0.5t-36.5 -0.5t-35.5 -0.5t-19 -0.5q-6 0 -6 4.5t6 4.5q19 0 30 0.5t16 1.5q11 11 14.5 30t5.5 60q1 21 1.5 48l1 55t0.5 54v43v133q0 92 -1.5 142.5t-7 74.5t-16.5 28.5t-29 4.5h-18q-6 0 -6 4.5t6 4.5q10 0 27 -0.5
l34.5 -1t31.5 -1t20 -0.5q5 0 18.5 0.5t30 1l32.5 1t27 0.5q6 0 6 -4.5t-6 -4.5h-18q-18 0 -29 -4.5t-17 -28.5t-7.5 -74.5t-1.5 -142.5v-140l180 194q59 63 87.5 107t28.5 65q-2 25 -39 25q-6 0 -13 -2t-10 -2q-9 0 -9 6t11 6q6 0 22 -0.5t33 -0.5t32.5 -0.5t21.5 -0.5
q5 0 18.5 0.5t30 0.5t32.5 0.5t25 0.5q5 0 5 -4.5t-5 -4.5h-2q-26 0 -48 -8.5t-49.5 -31t-66 -61.5l-96.5 -101l-96 -103q14 9 31.5 15t38.5 6q25 0 37 -3t25 -10q23 -12 38.5 -29.5t27.5 -41t23 -52t25 -61.5q24 -60 41.5 -98t33.5 -59.5t31 -29t35 -7.5h12q10 0 9.5 -4.5
t-11.5 -4.5h-34q-26 0 -43.5 -2t-28.5 -2q-17 0 -28 5t-22 19q-14 18 -30.5 54.5t-38.5 96.5l-25 70t-29.5 67.5t-36 51t-43.5 20.5q-14 0 -27.5 -4t-35.5 -23l-68 -73v-21q0 -92 1.5 -142.5t7 -74.5t16.5 -28.5t29 -4.5h22q6 0 6 -4.5t-6 -4.5z" />
    <glyph glyph-name="L" unicode="L" horiz-adv-x="609" 
d="M171 161q0 -58 -2.5 -96t-5.5 -51q11 0 38 -0.5t57 -1t57 -1t39 -0.5q43 0 79 21.5t63 55t43.5 74t21.5 78.5l10 91q1 5 6.5 4.5t4.5 -5.5l-10 -92l-12 -106t-8.5 -70.5t-6.5 -40.5t-6 -15q-2 -2 -13 -3t-29 -1.5t-41.5 -1t-49.5 -0.5h-31h-38t-41 0.5t-41 0.5l-98 2
l-141 -3q-8 0 -8 3.5t8 3.5q22 0 35 3t21 16t12 40t7 74q2 26 2.5 62t0 73t-1 69t-0.5 49t-0.5 43l-1 54l-1 55t-0.5 48q0 34 -1.5 52.5t-7.5 27t-19.5 10t-37.5 1.5q-6 0 -6 4.5t6 4.5q3 0 20.5 -0.5t38 -0.5t39 -0.5t24.5 -0.5t21.5 0.5t34.5 0.5t37.5 0.5t29.5 0.5
q6 0 6 -4.5t-6 -4.5h-28q-26 0 -39.5 -4.5t-20.5 -28.5t-8 -74.5t-1 -142.5v-273z" />
    <glyph glyph-name="M" unicode="M" horiz-adv-x="855" 
d="M394 211q-4 0 -8 7l-275 401l-1 -360q0 -61 4 -103.5t11.5 -70.5t18 -43.5t22.5 -22.5t24.5 -8.5t24.5 -1.5h14q5 0 5 -4.5t-5 -4.5h-31t-40.5 1t-37.5 1.5t-23 0.5q-11 0 -35.5 -1.5t-45.5 -1.5q-5 0 -5.5 4.5t6.5 4.5h6q17 0 30.5 6t23 30.5t15 74.5t5.5 139v94
t0.5 100t0.5 89.5v61.5q0 28 -13 43q-13 14 -29.5 26t-35.5 12h-5q-5 0 -5 4t5 4q39 0 63 1t37.5 2.5t19 2.5t8.5 1q7 0 10 -6q5 -10 17 -28.5t23 -33.5l241 -355l203 316l49.5 81t29.5 26q6 0 22 -1t35 -2.5t36 -2.5t23 -1t6 -4.5t-6 -4.5h-15q-18 0 -29 -4.5t-16.5 -28.5
t-7 -74.5t-1.5 -142.5v-175q0 -92 1.5 -142.5t7 -74.5t16.5 -28.5t29 -4.5h15q6 0 6 -4.5t-6 -4.5q-11 0 -27 0.5l-32 1t-29.5 1t-18.5 0.5q-6 0 -20 -0.5t-31 -1l-34 -1t-27 -0.5q-6 0 -6 4.5t6 4.5h20q18 0 29 4.5t16.5 28.5t7 74.5t1.5 142.5v354q0 29 -8.5 18t-30.5 -44
l-236 -369q-4 -7 -9 -7h-9z" />
    <glyph glyph-name="N" unicode="N" horiz-adv-x="716" 
d="M-1 685q-5 0 -5 4t5 4q78 0 111 2t38 2q7 0 10 -6q5 -10 16 -24.5t23 -28.5l416 -517v313q0 92 -11 142.5t-28 74.5t-37 28.5t-38 4.5h-14q-6 0 -6 4.5t6 4.5q11 0 31 -0.5l41 -1t38.5 -1t23.5 -0.5q11 0 33.5 1.5t44.5 1.5q6 0 6 -4.5t-6 -4.5h-7q-18 0 -30.5 -4.5
t-20 -28.5t-10.5 -74.5t-3 -142.5v-427q0 -10 -8 -10q-5 0 -12 7t-13 15l-482 601l-1 -361q0 -92 9.5 -142.5t24.5 -74.5t34 -28.5t37 -4.5h14q5 0 5 -4.5t-5 -4.5h-31t-40.5 1t-37.5 1.5t-23 0.5q-11 0 -35.5 -1.5t-45.5 -1.5q-5 0 -5.5 4.5t6.5 4.5h6q17 0 30.5 6t23 30.5
t15 74.5t5.5 139l1 359q0 5 -3.5 13.5t-12.5 17.5q-17 17 -35 26.5t-44 9.5h-4z" />
    <glyph glyph-name="O" unicode="O" horiz-adv-x="794" 
d="M43 346q0 78 29 144t78 113t113 73.5t135 26.5q70 0 134 -27t112.5 -74.5t77 -113t28.5 -142.5t-29.5 -142t-79 -112.5t-114.5 -74.5t-135 -27q-71 0 -134 27t-111 74.5t-76 112.5t-28 142zM133 346q0 -77 17 -140.5t49.5 -109.5t80 -71t108.5 -25t111.5 25t86.5 71
t55.5 109.5t19.5 140.5t-17.5 141t-51 109.5t-81.5 71t-109 25.5q-62 0 -111.5 -25.5t-84.5 -71t-54 -109.5t-19 -141z" />
    <glyph glyph-name="P" unicode="P" horiz-adv-x="613" 
d="M144 2q-6 0 -24.5 -0.5t-39 -0.5t-38 -0.5t-20.5 -0.5q-6 0 -6 4.5t6 4.5q36 0 46.5 1.5t-0.5 0.5q11 11 14.5 30t5.5 60q1 21 1.5 48l1 55t0.5 54v43v133q0 92 -1.5 142.5t-7 74.5t-16.5 28.5t-29 4.5h-18q-6 0 -6 4.5t6 4.5q10 0 27 -0.5l33.5 -1t30.5 -1t20 -0.5
q5 0 31 0.5t57 1t57.5 1t33.5 0.5q61 0 109.5 -12.5t83 -37t53 -60.5t18.5 -82t-19 -84t-53 -65t-81.5 -42t-104.5 -15q-38 1 -74.5 1h-73.5v-36q0 -92 2.5 -142.5t8 -74.5t14.5 -29t22 -5h51q6 0 6 -4.5t-6 -4.5q-11 0 -29 0.5t-36.5 0.5t-34 0.5t-21.5 0.5zM167 306h126
q94 0 144 52.5t50 143.5q0 181 -193 181h-88q-14 0 -22 -3t-11.5 -17t-4.5 -44.5t-1 -85.5v-227z" />
    <glyph glyph-name="Q" unicode="Q" horiz-adv-x="794" 
d="M43 351q0 77 29 142t78 111.5t113 72.5t134 26t134 -26.5t112.5 -73.5t77 -111.5t28.5 -140.5q0 -71 -25.5 -131.5t-69 -106t-101 -75t-121.5 -36.5q0 -39 3.5 -70.5t14 -53.5t29.5 -33.5t50 -11.5q24 0 44.5 23t37.5 58q3 6 9.5 3.5t2.5 -9.5q-12 -20 -27.5 -39
t-34.5 -33t-41.5 -22.5t-46.5 -8.5q-65 0 -95 46.5t-30 151.5q-63 8 -119 37t-97 75t-65 106t-24 130zM133 351q0 -76 17 -139t49.5 -108.5t80 -70.5t108.5 -25t111 25t86 70.5t55.5 108.5t19.5 139t-17.5 139t-51 108t-81.5 70t-109 25t-110.5 -25t-84.5 -70t-54 -108
t-19 -139z" />
    <glyph glyph-name="R" unicode="R" horiz-adv-x="642" 
d="M132 2q-6 0 -22.5 -0.5t-35 -0.5t-34 -0.5t-18.5 -0.5q-6 0 -6 4.5t6 4.5q19 0 30 0.5t16 1.5q11 11 14.5 30t5.5 60q1 21 1.5 48l1 55t0.5 54v43v133q0 92 -1.5 142.5t-7 74.5t-16.5 28.5t-29 4.5h-18q-6 0 -6 4.5t6 4.5q10 0 27 -0.5l33.5 -1t30.5 -1t20 -0.5
q5 0 22.5 0.5t38 1t38.5 1t24 0.5q130 0 193 -42t63 -122q0 -32 -18 -58.5t-48 -47t-68.5 -35t-78.5 -21.5q32 -1 55.5 -8t44.5 -25.5t41 -50t44 -80.5q31 -66 52 -104.5t38 -58.5t33.5 -25.5t39.5 -5.5h7q7 0 7.5 -4.5t-7.5 -4.5h-36q-26 0 -42 -2t-27 -2q-17 0 -28 5
t-23 19q-16 18 -36.5 54.5t-46.5 96.5q-28 65 -49.5 102.5t-43 56.5t-48 24t-63.5 6h-41v-101q0 -92 1.5 -142.5t7 -74.5t16.5 -28.5t29 -4.5h20q6 0 6 -4.5t-6 -4.5q-11 0 -27 0.5t-32.5 0.5t-30.5 0.5t-19 0.5zM167 370q14 1 34.5 1h49.5t59 9t54.5 28t40 49t15.5 72
q0 78 -40.5 116.5t-134.5 38.5h-39q-14 0 -22 -3t-11.5 -17.5t-4.5 -45t-1 -85.5v-163z" />
    <glyph glyph-name="S" unicode="S" horiz-adv-x="561" 
d="M277 703q75 0 125 -8t93 -18q5 -2 7.5 -3.5t3.5 -7.5q1 -8 0 -24.5t-2.5 -45.5t-2.5 -72t-1 -102q0 -10 -5 -10t-5 10q1 58 -6 107.5t-29.5 86t-65 57t-112.5 20.5q-46 0 -78.5 -10t-53 -28t-30 -42.5t-9.5 -52.5q0 -36 17.5 -62.5t46.5 -47.5t66 -38t76 -33t76.5 -33.5
t67 -40.5t47.5 -53t18 -70q0 -43 -17 -78.5t-47 -60.5t-69.5 -39t-84.5 -14q-41 0 -72 2t-58 6t-51.5 9.5t-51.5 12.5q-7 2 -8.5 3.5t-1.5 6.5v52.5t-0.5 74.5t-0.5 75v54q0 11 5.5 11t5.5 -11q0 -70 13 -123.5t41 -89.5t72.5 -54.5t106.5 -18.5q82 0 120 38t38 97
q0 37 -17 63.5t-45.5 47.5t-65 37.5l-74.5 32.5q-40 16 -79 34t-69.5 41t-49 52.5t-18.5 69.5q0 45 18.5 80t50.5 59.5t74.5 37.5t90.5 13z" />
    <glyph glyph-name="T" unicode="T" horiz-adv-x="658" 
d="M368 259q0 -92 1.5 -142.5t7 -74.5t16.5 -28.5t29 -4.5h18q6 0 6 -4.5t-6 -4.5q-11 0 -27.5 0.5l-33 1t-30.5 1t-19 0.5q-6 0 -20 -0.5t-30.5 -1l-33.5 -1t-27 -0.5q-6 0 -6 4.5t6 4.5h18q18 0 29 4.5t16.5 28.5t7 74.5t1.5 142.5v435q-21 -1 -43 -1h-39q-40 0 -68 -13.5
t-47 -39.5t-31 -64t-19 -87l-8 -57q-2 -5 -7 -5t-3 5l8 57q5 40 6.5 77t2 65.5t0.5 46t2 18.5q5 2 37.5 4.5t84.5 2.5q9 0 29.5 -0.5t44.5 -0.5t47.5 -0.5t40.5 -0.5q16 0 29.5 0.5t30 0.5t40 0.5t61.5 0.5h1q52 0 84.5 -2.5t37.5 -4.5q2 -1 2 -18.5t0.5 -46t2 -65.5
t7.5 -77l7 -57q2 -5 -2.5 -5t-6.5 5l-9 57q-8 49 -19.5 87t-30.5 64t-47.5 40t-68.5 14h-80v-435z" />
    <glyph glyph-name="U" unicode="U" horiz-adv-x="665" 
d="M567 434q0 92 -10.5 142.5t-27 74.5t-36.5 28.5t-38 4.5h-9q-6 0 -6 4.5t6 4.5q11 0 30 -0.5l38.5 -1t36 -1t22.5 -0.5q11 0 35 1.5t45 1.5q6 0 6 -4.5t-6 -4.5h-7q-18 0 -30.5 -4.5t-20 -28.5t-11 -74.5t-3.5 -142.5v-190q0 -50 -17 -96t-49.5 -81t-80 -56t-107.5 -21
q-54 0 -98.5 18t-75.5 51.5t-48 82t-17 110.5v182q0 92 -1.5 142.5t-7 74.5t-16 28.5t-28.5 4.5h-14q-6 0 -6 4.5t6 4.5q10 0 26 -0.5l32 -1t29 -1t19 -0.5q5 0 19 0.5t30.5 1l33 1t27.5 0.5q6 0 6 -4.5t-6 -4.5h-18q-18 0 -29 -4.5t-16.5 -28.5t-7.5 -74.5t-2 -142.5
l-1 -155q0 -122 57.5 -189.5t156.5 -67.5q40 0 75 17t60.5 47t40 70.5t14.5 87.5v190z" />
    <glyph glyph-name="V" unicode="V" horiz-adv-x="692" 
d="M385 96q3 0 5 5l148 386l12.5 35t12 39t8.5 39t3 36q0 22 -15 35.5t-41 13.5q-6 0 -15.5 -2t-12.5 -2q-7 0 -7 6q0 2 2 4t10 2q7 0 23 -0.5t34 -0.5t34.5 -0.5t22.5 -0.5q5 0 15 0.5t22 0.5t24.5 0.5t21.5 0.5q6 0 4.5 -4.5t-6.5 -4.5h-2q-41 0 -72 -60
q-19 -32 -36.5 -71t-30.5 -71l-184 -482q-2 -3 -7 -3h-10q-7 0 -8 3l-191 483l-50.5 114t-32.5 60t-26.5 23t-31.5 4h-8q-7 0 -7 4q0 5 6 5q11 0 25.5 -0.5l29 -1t26.5 -1t18 -0.5t21.5 0.5t34 1l36.5 1t29 0.5q6 0 7.5 -4.5t-4.5 -4.5h-21q-19 0 -28 -5.5t-6.5 -26.5
t18.5 -62.5t48 -113.5l147 -375q2 -5 5 -5z" />
    <glyph glyph-name="W" unicode="W" horiz-adv-x="982" 
d="M486 350l-78 183q-24 55 -39 86t-26.5 45t-23.5 17t-31 3h-8q-7 0 -7 4q0 5 6 5q11 0 25.5 -0.5l29 -1t26.5 -1t18 -0.5t20 0.5t30.5 1l33 1t27.5 0.5q6 0 6 -4.5t-6 -4.5h-8q-14 0 -24 -4.5t-10 -20.5q0 -6 1 -15t5 -24t12 -38.5t23 -59.5l43 -100l41 100q14 32 22 64.5
t8 50.5q0 24 -9.5 36t-25.5 12q-6 0 -13.5 -1.5t-10.5 -1.5q-6 0 -6 5q0 2 1.5 4t9.5 2q7 0 20 -0.5t27 -0.5t27 -0.5t19 -0.5q5 0 18 0.5t29 0.5t31 0.5t24 0.5q6 0 5.5 -4.5t-5.5 -4.5h-26q-38 0 -68 -38.5t-65 -127.5l-47 -111l136 -316q2 -5 5 -5q2 0 4 5l152 396
q6 16 12 35t11.5 38.5t8.5 38.5t3 36q0 50 -51 50q-6 0 -15.5 -2t-12.5 -2q-7 0 -7 6q0 2 2 4t10 2q7 0 23 -0.5t33.5 -0.5t33.5 -0.5t22 -0.5q5 0 15.5 0.5t22.5 0.5t25 0.5t22 0.5q6 0 5.5 -4.5t-5.5 -4.5h-3q-37 0 -69.5 -48.5t-72.5 -153.5l-187 -483q-2 -3 -7 -3h-10
q-5 0 -5.5 0.5t-1.5 2.5l-144 335l-150 -334q-2 -3 -6 -3h-8q-7 0 -8 3l-184 485q-28 72 -45.5 112t-31.5 59.5t-27.5 23.5t-33.5 4h-2q-6 0 -6 4q0 5 5 5q11 0 24.5 -0.5l27 -1t24.5 -1t17 -0.5t24.5 0.5t40.5 1l43 1t32 0.5q6 0 6.5 -4.5t-5.5 -4.5h-26q-23 0 -33 -7.5
t-11 -20.5q0 -15 17 -67.5t57 -154.5l129 -338q2 -5 5 -5q2 0 4 5z" />
    <glyph glyph-name="X" unicode="X" horiz-adv-x="683" 
d="M367 399l69 95q43 59 61.5 97t18.5 64q0 29 -42 29q-6 0 -17.5 -1.5t-13.5 -1.5q-7 0 -5 5q1 2 3.5 4t10.5 2q6 0 24 -0.5t38.5 -0.5t38.5 -0.5t24 -0.5q5 0 15.5 0.5t22.5 0.5t24.5 0.5t21.5 0.5q7 0 6 -4.5t-6 -4.5h-2q-21 0 -47 -12.5t-49 -40.5q-15 -15 -30.5 -33.5
l-31 -37.5l-29.5 -37l-25 -33l-74 -100l114 -181q45 -73 73.5 -113t47.5 -59.5t33 -23.5t31 -4h9q8 0 8 -4q0 -5 -6 -5q-12 0 -27.5 0.5l-30.5 1t-27.5 1t-18.5 0.5t-22.5 -0.5t-36 -1l-38.5 -1t-30 -0.5q-7 0 -9 4.5t4 4.5h22q20 0 28.5 5.5t2 26.5t-31 62.5t-71.5 112.5
l-76 121l-97 -134q-15 -21 -29 -43t-24 -41.5t-16 -36t-6 -26.5q0 -20 13.5 -34t33.5 -14q13 0 28 2.5t18 2.5q7 0 5 -7q-1 -2 -4 -4t-11 -2q-7 0 -28.5 0.5t-46 0.5t-46 0.5t-27.5 0.5q-5 0 -15.5 -0.5t-22.5 -0.5t-25 -0.5t-23 -0.5q-6 0 -5.5 4.5t6.5 4.5h7
q22 0 43.5 12.5t45.5 37.5t52 62.5l65 87.5l102 139l-84 135l-73 113.5t-45 60t-32 23.5t-34 4h-8q-9 0 -9 4q0 5 7 5q11 0 26.5 -0.5l30.5 -1t27.5 -1t18.5 -0.5t22 0.5t35.5 1l38.5 1t31 0.5q6 0 8 -4.5t-4 -4.5h-22q-16 0 -25.5 -4t-5.5 -21.5t23.5 -54t61.5 -101.5z" />
    <glyph glyph-name="Y" unicode="Y" horiz-adv-x="615" 
d="M349 317v-58q0 -92 1.5 -142.5t7 -74.5t16.5 -28.5t29 -4.5h18q6 0 6 -4.5t-6 -4.5q-11 0 -27 0.5l-32.5 1t-30 1t-19.5 0.5q-5 0 -19 -0.5t-30.5 -1l-33.5 -1t-27 -0.5q-6 0 -6 4.5t6 4.5h18q18 0 29 4.5t16.5 28.5t7 74.5t1.5 142.5v55l-108 195l-49.5 86t-37.5 53.5
t-32.5 27.5t-34.5 8h-8q-7 0 -7 4q0 5 6 5q11 0 25.5 -0.5l29 -1t26.5 -1t18 -0.5t21.5 0.5t34 1l36.5 1t29 0.5q6 0 7.5 -4.5t-4.5 -4.5h-21q-19 0 -25 -9t-0.5 -30t22.5 -55.5t45 -85.5l95 -175l106 183q9 15 21.5 43.5t17.5 57.5t-5 50.5t-46 21.5q-6 0 -15.5 -2
t-12.5 -2q-7 0 -7 6q0 2 2 4t10 2q7 0 21.5 -0.5t31 -0.5t31.5 -0.5t21 -0.5q5 0 19 0.5t31 0.5t33.5 0.5t25.5 0.5q6 0 4.5 -4.5t-6.5 -4.5h-2q-21 0 -46.5 -22t-49 -51.5t-42 -58.5t-26.5 -43z" />
    <glyph glyph-name="Z" unicode="Z" horiz-adv-x="625" 
d="M73 399q-1 -5 -6.5 -4.5t-5.5 5.5l11 105q7 81 12.5 131.5t9.5 52.5q5 2 19.5 3t28.5 1h36t62 -0.5t74 -1t72.5 -1t56.5 -0.5h27q6 0 17 0.5t24 1l26 1t24 0.5q6 0 11 -1t0 -9l-443 -669h26t40.5 -0.5l47 -1t46.5 -1t39.5 -0.5h25.5q43 0 79 17t62.5 45.5t42.5 65
t20 74.5l7 99q1 5 6 4.5t4 -5.5l-6 -100q-5 -61 -8.5 -100t-6 -62t-5 -33t-4.5 -12t-13 -2.5t-29 -1t-41.5 -0.5h-49.5h-32h-40.5t-45.5 0.5t-46 0.5q-53 1 -112 2l-98 -6q-8 0 -6 5t6 11l441 668h-185q-87 -1 -144 -46t-67 -130z" />
    <glyph glyph-name="bracketleft" unicode="[" horiz-adv-x="400" 
d="M114 246l-3 525q0 8 7 8q35 0 72 -0.5t75 -0.5q35 0 68.5 0.5t68.5 0.5q5 0 5 -5t-5 -5q-34 -1 -70 0t-70 1h-115q-7 0 -7 -3l1 -521l-1 -512q0 -3 7 -3h115q34 0 70 1t70 0q5 0 5 -5t-5 -5q-35 0 -68.5 0.5t-68.5 0.5q-38 0 -75 -0.5t-72 -0.5q-7 0 -7 8z" />
    <glyph glyph-name="backslash" unicode="\" horiz-adv-x="356" 
d="M179 247l-53 130.5l-59 141.5l-59.5 138l-55.5 121q10 5 13 6t15 -2l46.5 -118l55 -138.5l57.5 -142.5l53 -132l52.5 -127l56 -132.5l57 -133l57.5 -128.5q-9 -6 -12 -5.5t-16 4.5l-50 127l-53 133l-53.5 132.5z" />
    <glyph glyph-name="bracketright" unicode="]" horiz-adv-x="400" 
d="M289 -270q0 -8 -7 -8q-35 0 -72 0.5t-75 0.5q-35 0 -68.5 -0.5t-68.5 -0.5q-5 0 -5 5t5 5q34 1 70 0t70 -1h115q7 0 7 3l-1 512l1 521q0 3 -7 3h-115q-34 0 -70 -1t-70 0q-5 0 -5 5t5 5q35 0 68.5 -0.5t68.5 -0.5q38 0 75 0.5t72 0.5q7 0 7 -8l-3 -525z" />
    <glyph glyph-name="asciicircum" unicode="^" horiz-adv-x="809" 
d="M420 443q-4 4 -7 0l-82 -122q-6 -8 -13 -13.5t-21 -5.5q-10 0 -15 4.5t-5 9.5q0 3 2.5 9t15.5 20q9 10 22.5 23l29 27l32 29t33.5 28q4 4 9 0l67.5 -52.5l53.5 -44.5q12 -11 16 -17.5t4 -11.5q0 -6 -6 -13.5t-17 -7.5q-13 0 -21 6.5t-14 14.5l-37.5 52.5z" />
    <glyph glyph-name="underscore" unicode="_" horiz-adv-x="678" 
d="M337 -20q31 0 70 0.5t77.5 1.5t72 2t51.5 2q5 -4 5 -12.5t-5 -11.5q-20 1 -53.5 2.5t-71.5 2.5t-76.5 1.5t-68.5 0.5t-68.5 -0.5t-76.5 -1.5t-71.5 -2.5t-53.5 -2.5q-5 3 -5 11.5t5 12.5q18 -1 51.5 -2t71.5 -2t77 -1.5t69 -0.5z" />
    <glyph glyph-name="grave" unicode="`" horiz-adv-x="809" 
d="M479 537q-19 20 -42.5 40t-45.5 36.5l-38.5 28.5t-21.5 17q-5 4 -8.5 8.5t-3.5 8.5q0 16 3 19q2 2 7 2.5t11 0.5q7 0 13.5 -1t10.5 -5t16 -21l28.5 -39.5t36 -46.5t39.5 -42q3 -3 3 -4q0 -4 -4 -4q-2 0 -4 2z" />
    <glyph glyph-name="a" unicode="a" horiz-adv-x="514" 
d="M156 -11q-60 0 -92 33t-32 79q0 25 13 50t42.5 50.5t77.5 51.5t117 53l83 32q-2 47 -8.5 78.5t-19.5 50t-32.5 26.5t-46.5 8q-33 0 -54 -13t-35 -30.5t-23 -36.5t-17 -31q-7 -10 -16 -14t-29 -4q-18 0 -29 6t-11 17q0 9 8 22t27 25q15 10 37.5 21.5t48.5 22t54 17.5t55 7
q37 0 68 -10t53.5 -32t35 -56.5t12.5 -83.5q0 -25 -1.5 -57l-3 -63t-2.5 -57.5t-1 -41.5q0 -43 6 -64t22 -21q7 0 14.5 6t15 14t14 17.5t10.5 17.5q4 6 10 2t2 -10q-6 -9 -19.5 -22.5t-30.5 -26.5t-35 -22.5t-33 -9.5q-29 0 -43 18.5t-14 52.5q0 20 1 43t3 39
q-10 -17 -33 -43.5t-52 -51t-60 -42t-57 -17.5zM102 130q0 -20 9.5 -38t24.5 -31t33.5 -20.5t36.5 -7.5q21 0 46.5 16t48 38t39.5 44.5t20 34.5q1 10 3.5 46t2.5 98v21l-82 -35q-55 -23 -90.5 -41.5t-55.5 -37t-28 -39t-8 -48.5z" />
    <glyph glyph-name="b" unicode="b" horiz-adv-x="592" 
d="M67 681q0 32 -3 48t-10.5 21.5t-19.5 3.5l-31 -5q-6 -1 -6 3.5t6 5.5q38 7 66.5 24t54.5 31q2 2 10 -0.5t8 -6.5v-404q35 51 88.5 79.5t111.5 28.5q43 0 81 -17.5t67 -48.5t46 -74t17 -95q0 -62 -24.5 -114t-64.5 -90t-91.5 -59.5t-105.5 -21.5q-53 0 -91 19.5t-61 40.5
q-24 -33 -31.5 -42t-11.5 -9q-5 0 -5 9v673zM309 12q81 0 125.5 58t44.5 169q0 44 -11.5 86.5t-35 76.5t-58.5 54.5t-81 20.5q-42 0 -83.5 -23t-67.5 -63v-285q13 -15 31 -31.5t39 -30.5t45.5 -23t51.5 -9z" />
    <glyph glyph-name="c" unicode="c" horiz-adv-x="542" 
d="M102 275q0 -50 17 -91.5t47 -72.5t72 -48t93 -17q71 0 121 34t88 103q3 6 7 4t1 -7q-21 -39 -50.5 -74t-65 -60.5t-75 -40.5t-80.5 -15q-53 0 -97 17.5t-76 49.5t-49.5 76t-17.5 97q0 54 24 104.5t63.5 89.5t91 62.5t106.5 23.5q37 0 67.5 -7t52.5 -17.5t34.5 -24
t12.5 -26.5t-12.5 -27t-36.5 -14q-16 0 -29 14.5l-30 32.5t-41 32.5t-60 14.5q-37 0 -69.5 -14t-56.5 -41.5t-38 -67t-14 -90.5z" />
    <glyph glyph-name="d" unicode="d" horiz-adv-x="599" 
d="M451 681q0 32 -3.5 49.5t-11 24.5t-20 6.5t-31.5 -3.5q-6 -1 -6 3.5t6 5.5q38 7 66.5 19.5t54.5 26.5q2 2 11 -0.5t9 -6.5v-687q0 -37 1 -58.5t6 -33t15 -15t29 -3.5q6 0 6 -4.5t-6 -4.5q-46 0 -71 -2.5t-50 -7.5q-12 -3 -12 9q0 5 3 32.5t4 70.5q-36 -53 -91 -82.5
t-114 -29.5q-43 0 -81 17.5t-66.5 48.5t-45.5 74t-17 95q0 62 24.5 114t65 90t92 59.5t105.5 21.5q40 0 72.5 -14.5t55.5 -32.5v218zM281 488q-81 0 -128 -56t-47 -167q0 -44 12.5 -87t36.5 -77.5t59.5 -56t82.5 -21.5q46 0 87 26.5t67 68.5v271l-31.5 31.5t-39.5 32.5
t-47 25t-52 10z" />
    <glyph glyph-name="e" unicode="e" horiz-adv-x="516" 
d="M285 -10q-57 0 -103.5 18t-79.5 50t-50.5 76t-17.5 96q0 56 24 107t63 89.5t89 61t102 22.5q54 0 89 -14.5t54.5 -35.5t26 -44.5t4.5 -40.5q-2 -13 -10.5 -22t-31.5 -9h-342q-8 -37 -8 -77q0 -46 19 -86t51.5 -69.5t76.5 -46.5t95 -17q46 0 83 13.5t67.5 39t55 61
t45.5 80.5q4 9 7.5 7.5t-0.5 -9.5q-20 -46 -49.5 -91t-68.5 -80t-86.5 -57t-104.5 -22zM350 356q11 0 24.5 3.5t15.5 5.5q9 10 9 32q0 14 -7 30t-21.5 29.5t-36 22.5t-50.5 9q-65 0 -112.5 -34t-67.5 -102q42 0 77 0.5t64 1.5t55 1.5t50 0.5z" />
    <glyph glyph-name="f" unicode="f" horiz-adv-x="296" 
d="M259 500h28.5t6.5 -2q0 -5 -15.5 -21l-31.5 -33q-21 0 -46 0.5t-51 0.5v-202q0 -63 1 -133q0 -37 2 -57.5t8.5 -30t19 -11.5t34.5 -2q6 0 6 -4.5t-6 -4.5q-11 0 -26 0.5t-29.5 0.5t-26.5 0.5t-18 0.5t-17.5 -0.5t-25.5 -0.5t-28.5 -0.5t-25.5 -0.5q-6 0 -6 4.5t6 4.5
q21 0 33 3.5t17.5 14t6.5 30.5t1 53q-1 90 -1 161v164v10h-41q-14 0 -14 6l35 48h26q12 58 40.5 109t67 89.5t82 61t84.5 22.5q19 0 37.5 -2t32.5 -5.5t23 -8.5t9 -10q0 -6 -4 -15t-11 -17t-17 -13.5t-22 -5.5q-25 0 -62 9.5t-82 9.5q-51 0 -79.5 -53t-29.5 -171
q23 0 47.5 0.5t51.5 0.5h10z" />
    <glyph glyph-name="g" unicode="g" horiz-adv-x="502" 
d="M465 484q-11 0 -33 3t-49 6l-56.5 6t-56.5 3v-2q78 -11 120 -57t42 -114q0 -40 -16 -71.5t-44 -54t-67 -34.5t-84 -12h-18q-23 -2 -44 -5.5t-37.5 -10.5t-26.5 -16.5t-10 -21.5q0 -29 33.5 -36t99.5 -7h134q43 0 72.5 -9t48.5 -24t27.5 -34.5t8.5 -40.5
q0 -32 -14.5 -63.5t-40 -60t-59.5 -53t-72.5 -42t-79.5 -27.5t-80 -10t-70 9.5t-52 27t-32 40.5t-11 50q0 29 14.5 55.5t38.5 49.5t54 40.5t60 28.5q-60 2 -96.5 16.5t-36.5 50.5q0 16 11 32t30 28.5t45 22t56 14.5q-64 11 -102.5 52.5t-38.5 113.5q0 38 16 71t44.5 57.5
t66.5 38.5t82 14q37 0 75.5 6t72 13t58 13t33.5 6q8 0 18.5 -3t10.5 -12q0 -6 -3 -14.5t-9 -15.5t-14.5 -12t-18.5 -5zM227 -249q47 0 92.5 12t81 33t57.5 50t22 63q0 48 -39 67.5t-124 19.5h-130q-65 -20 -105 -56t-40 -78q0 -54 47.5 -82.5t133.5 -28.5h4zM232 167
q61 0 93.5 41.5t32.5 120.5q0 32 -8 62.5t-23.5 54t-38 38t-52.5 14.5q-128 0 -128 -160q0 -36 7.5 -67.5t23 -54.5t39 -36t54.5 -13z" />
    <glyph glyph-name="h" unicode="h" 
d="M121 2q-6 0 -17.5 -0.5t-25.5 -0.5t-28 -0.5t-25 -0.5q-6 0 -6 4.5t6 4.5q16 0 25 3.5t13.5 15t5.5 33t1 58.5v562q0 32 -3 49.5t-10.5 25t-19.5 7t-31 -3.5q-6 -1 -6 3.5t6 5.5q38 7 66.5 19t54.5 26q2 2 10 -0.5t8 -6.5v-403q38 51 82 79t101 28q34 0 63.5 -9.5
t51.5 -33t35 -62.5t13 -98v-257q0 -29 11 -35.5t37 -5.5q6 0 6 -4.5t-6 -4.5q-3 0 -15 0.5t-26.5 0.5t-28 0.5t-19.5 0.5t-16 -0.5t-22.5 -0.5t-25.5 -0.5t-24 -0.5q-6 0 -6 4.5t6 4.5q17 0 27.5 2t16 12.5t7.5 32t2 61.5v200q0 46 -10 77.5t-27 50.5t-38.5 27t-44.5 8
q-47 0 -81 -21t-69 -68v-382h61q6 0 6 -4.5t-6 -4.5q-3 0 -14.5 0.5t-25 0.5t-26.5 0.5t-19 0.5z" />
    <glyph glyph-name="i" unicode="i" horiz-adv-x="226" 
d="M75 377q0 28 -3 44t-10.5 22.5t-19.5 6t-31 -4.5q-6 -2 -7.5 2t4.5 6q38 8 67 22.5t58 34.5q2 2 10 -0.5t8 -6.5v-393q0 -32 1.5 -52t7.5 -31t18 -14.5t33 -3.5q6 0 6 -4.5t-6 -4.5q-11 0 -25 0.5t-28 0.5t-25.5 0.5t-17.5 0.5t-18 -0.5t-27 -0.5t-30 -0.5t-26 -0.5
q-6 0 -6 4.5t6 4.5q21 0 33.5 3.5t18.5 14.5t7.5 31t1.5 52v267zM57 648q0 22 15 37.5t37 15.5t37.5 -15.5t15.5 -37.5t-15.5 -37t-37.5 -15t-37 15t-15 37z" />
    <glyph glyph-name="j" unicode="j" horiz-adv-x="223" 
d="M149 49q-1 -32 -9 -61t-22 -56t-33 -54t-42 -55q-29 -36 -56 -60t-51 -24q-8 0 -18 2q-22 5 -22 18t12 30t29 22q6 2 16 2q15 0 29 -0.5t19 -0.5q8 0 17.5 3.5t14.5 8.5l11 13.5t13.5 29t11.5 57t5 98.5v355q0 28 -3.5 44t-11 22.5t-20 6t-31.5 -4.5q-6 -2 -7.5 2t4.5 6
q38 8 67 22.5t58 34.5q2 2 10 -0.5t8 -6.5zM54 648q0 22 15 37.5t37 15.5t37.5 -15.5t15.5 -37.5t-15.5 -37t-37.5 -15t-37 15t-15 37z" />
    <glyph glyph-name="k" unicode="k" horiz-adv-x="552" 
d="M466 0q-10 0 -19.5 2t-18.5 8q-19 12 -41.5 43t-56.5 90l-82 137l-103 -105v-166h61q6 0 6 -4.5t-6 -4.5q-3 0 -14.5 0.5t-25 0.5t-26.5 0.5t-19 0.5t-17.5 -0.5t-25.5 -0.5t-28 -0.5t-25 -0.5q-6 0 -6 4.5t6 4.5q16 0 25 3.5t13.5 15t5.5 33t1 58.5v562q0 32 -3 49.5
t-10.5 25t-19.5 7t-31 -3.5q-6 -1 -6 3.5t6 5.5q38 7 66.5 19t54.5 26q2 2 10 -0.5t8 -6.5v-619l157 162q33 34 49 60t18 44t-9 27.5t-33 9.5q-5 0 -5 4.5t5 4.5q10 0 25 -0.5t30 -0.5t27.5 -0.5t17.5 -0.5t22 0.5t35.5 0.5t33.5 0.5t18 0.5q5 0 5 -4.5t-5 -4.5
q-48 0 -101.5 -36t-125.5 -111l-13 -13l97 -154q30 -48 54.5 -80.5t44.5 -51.5t36.5 -27t31.5 -8q6 0 6.5 -4.5t-6.5 -4.5h-94z" />
    <glyph glyph-name="l" unicode="l" horiz-adv-x="217" 
d="M121 2q-6 0 -17.5 -0.5t-25.5 -0.5t-28 -0.5t-25 -0.5q-6 0 -6 4.5t6 4.5q16 0 25 3.5t13.5 15t5.5 33t1 58.5v562q0 32 -3 49.5t-10.5 25t-19.5 7t-31 -3.5q-6 -1 -6 3.5t6 5.5q38 7 66.5 19t54.5 26q2 2 10 -0.5t8 -6.5v-687q0 -39 1.5 -61t7.5 -33t17.5 -13.5
t32.5 -2.5q6 0 6 -4.5t-6 -4.5q-22 0 -47 1t-36 1z" />
    <glyph glyph-name="m" unicode="m" horiz-adv-x="891" 
d="M26 0q-6 0 -6 4.5t6 4.5q17 0 26.5 2t14 12.5t5.5 33t1 62.5v258q0 22 -14.5 41t-31.5 35q-4 4 0 6q14 5 37 17t36 25q2 2 6 -1q14 -14 26.5 -41t13.5 -59q37 52 78.5 81t99.5 29q22 0 45 -5.5t43.5 -18t37 -34.5t26.5 -55q38 53 80 83t101 30q33 0 63 -9.5t53 -33
t37 -62.5t14 -98v-257q0 -14 1 -22.5t6 -12.5t15.5 -5t28.5 -1q6 0 6 -4.5t-6 -4.5q-3 0 -15.5 0.5t-27.5 0.5t-29 0.5t-20 0.5t-18.5 -0.5t-27.5 -0.5t-30.5 -0.5t-26.5 -0.5q-6 0 -6 4.5t6 4.5q25 0 39 2t21 12.5t8 32t1 61.5v200q0 46 -11 77.5t-28.5 50.5t-40 27
t-45.5 8q-28 0 -48.5 -7.5t-37 -20t-30.5 -29.5t-28 -36v-337q0 -14 2.5 -22.5t9 -12.5t18.5 -5t30 -1q6 0 6 -4.5t-6 -4.5q-3 0 -16 0.5t-29 0.5t-30.5 0.5t-20.5 0.5t-18 -0.5t-26.5 -0.5t-29.5 -0.5t-26 -0.5q-6 0 -6 4.5t6 4.5q23 0 35.5 2t18 12.5t6.5 32t1 61.5v200
q0 46 -9 77.5t-25 50.5t-36.5 27t-43.5 8q-47 0 -78.5 -22t-65.5 -69v-380h59q6 0 6 -4.5t-6 -4.5q-3 0 -14 0.5t-24 0.5t-25.5 0.5t-18.5 0.5t-18 -0.5t-26 -0.5t-28.5 -0.5t-25.5 -0.5z" />
    <glyph glyph-name="n" unicode="n" horiz-adv-x="562" 
d="M495 98q0 -33 2.5 -51t8.5 -26.5t15 -10t22 -1.5q6 0 6 -4.5t-6 -4.5q-3 0 -15 0.5t-26.5 0.5t-28 0.5t-19.5 0.5t-15.5 -0.5t-21.5 -0.5t-24.5 -0.5t-23.5 -0.5q-6 0 -6 4.5t6 4.5q15 0 25 2.5t16 12t8.5 28.5t2.5 52l-1 213q0 46 -10.5 77.5t-27.5 50.5t-38.5 27
t-44.5 8q-47 0 -81.5 -22t-69.5 -69v-380h52q6 0 6 -4.5t-6 -4.5q-3 0 -13 0.5t-22 0.5t-23.5 0.5t-17.5 0.5t-17.5 -0.5t-25.5 -0.5t-28 -0.5t-25 -0.5q-6 0 -6 4.5t6 4.5q16 0 25 3.5t13.5 15t5.5 33t1 58.5v258q0 22 -14.5 41t-31.5 35q-4 4 0 6q14 5 37 17t36 25
q2 2 6 -1q14 -14 26.5 -41t14.5 -58q38 51 82.5 80t102.5 29q34 0 63.5 -9.5t51.5 -33t35 -62.5t13 -98v-209z" />
    <glyph glyph-name="o" unicode="o" horiz-adv-x="581" 
d="M284 -10q-53 0 -98.5 18t-78.5 50.5t-52 78.5t-19 103q0 54 19.5 103t54.5 86t83.5 59t106.5 22q53 0 98 -18t78 -51t51.5 -79.5t18.5 -104.5q0 -48 -19.5 -96t-54.5 -86t-83 -61.5t-105 -23.5zM301 1q80 0 122 64t42 176q0 47 -12 93.5t-35 83t-56 59.5t-74 23
q-44 0 -76 -17.5t-52.5 -49.5t-30.5 -76.5t-10 -99.5q0 -46 12 -92t35.5 -82.5t57 -59t77.5 -22.5z" />
    <glyph glyph-name="p" unicode="p" horiz-adv-x="596" 
d="M148 405q35 49 88 77t110 28q43 0 81 -17.5t67 -48.5t46 -74t17 -95q0 -62 -24.5 -114t-64.5 -90t-91.5 -59.5t-105.5 -21.5q-38 0 -69.5 11t-54.5 26v-290h71q6 0 6 -4.5t-6 -4.5q-3 0 -17 0.5t-31.5 0.5t-33 0.5t-21.5 0.5t-20.5 -0.5t-32 -0.5t-34.5 -0.5t-28 -0.5
q-6 0 -6 4.5t6 4.5q25 0 40 3t22.5 14.5t9.5 35t2 64.5v528q0 32 -4 48t-12.5 21.5t-21.5 3.5l-32 -5q-6 -1 -6 3.5t6 5.5q19 2 36.5 8.5t33 14.5t29.5 16.5t27 15.5q2 2 10 -0.5t8 -6.5v-102zM147 104l31.5 -30.5t38.5 -30t45 -22.5t51 -9q81 0 125.5 58t44.5 169
q0 44 -11.5 86.5t-35 76.5t-58.5 54.5t-81 20.5q-42 0 -82.5 -22.5t-66.5 -61.5q0 -63 -0.5 -132t-0.5 -157z" />
    <glyph glyph-name="q" unicode="q" horiz-adv-x="589" 
d="M520 -128q0 -32 3 -48t10.5 -21t19.5 -3l31 5q6 1 6 -3.5t-6 -5.5q-38 -7 -66 -24t-54 -31q-2 -2 -10.5 0.5t-8.5 6.5v347q-36 -50 -89.5 -77.5t-110.5 -27.5q-46 0 -84.5 17t-66.5 47.5t-43.5 74t-15.5 96.5q0 62 24.5 114t64 90t91 59.5t105.5 21.5q51 0 89 -19.5
t61 -39.5q24 34 32 43.5t12 9.5q6 0 6 -7v-625zM278 488q-81 0 -127 -56t-46 -167q0 -43 13 -86t37.5 -77.5t59.5 -56.5t80 -22q42 0 83 23t67 63v285l-31.5 30.5t-39 30.5t-45.5 23.5t-51 9.5z" />
    <glyph glyph-name="r" unicode="r" horiz-adv-x="327" 
d="M215 493q26 17 57 17q18 0 31.5 -4t13.5 -14q0 -6 -3 -15t-9 -17t-15.5 -14t-22.5 -6h-37q-27 0 -42.5 -3t-24 -13t-10.5 -29t-2 -51v-335h61q6 0 6 -4.5t-6 -4.5q-3 0 -15 0.5t-26.5 0.5t-28 0.5t-19.5 0.5t-18.5 -0.5t-27.5 -0.5t-30 -0.5t-26 -0.5q-6 0 -6 4.5t6 4.5
q18 0 29 2.5t17 13.5t8 33t2 61v258q0 22 -14.5 41t-31.5 35q-4 4 0 6q14 5 35 17t34 25q2 2 6 -1q13 -12 26.5 -37.5t16.5 -54.5q9 33 27.5 52t38.5 33z" />
    <glyph glyph-name="s" unicode="s" horiz-adv-x="444" 
d="M39 361q0 39 17 67t44 46t60 27t64 9t52.5 -1.5t40 -3.5t35.5 -5.5t39 -6.5q7 -1 7 -8q0 -12 -1 -36t-1.5 -50.5t-1.5 -51t-1 -37.5q0 -6 -4 -6t-4 6q0 91 -36 141.5t-124 50.5q-62 0 -100 -24t-38 -63q0 -26 13.5 -44t35.5 -32t50.5 -25t58.5 -21l62 -23t55 -29
t39 -40.5t15 -56.5t-14 -61.5t-38 -49t-56.5 -32t-70.5 -11.5q-39 0 -68 4t-52 10t-40.5 12t-32.5 10q-7 1 -7 14q0 6 1 14.5t2 27t2 51t1 85.5q0 7 4 7t4 -7q0 -54 9 -94.5t30.5 -68.5t57.5 -42t89 -14q36 0 61 8t40.5 21.5t22 31.5t6.5 39q0 26 -13.5 44.5t-35.5 32.5
t-51 24.5l-59 20.5q-32 10 -62 22t-54 28.5t-38.5 38t-14.5 51.5z" />
    <glyph glyph-name="t" unicode="t" horiz-adv-x="326" 
d="M144 499h29h37.5t38 0.5t30.5 0.5q25 1 30 0.5t5 -2.5q0 -5 -13 -19t-36 -35h-18t-34 0.5t-38.5 0.5h-32.5v-314q0 -110 65 -110q30 0 57.5 26.5t44.5 77.5q2 6 9 3t4 -9q-12 -24 -28.5 -47.5t-37 -41.5t-44 -29t-49.5 -11q-51 0 -73.5 33t-22.5 105v317h-55
q-1 0 -1.5 1.5t1.5 3.5l128 147q4 4 4 -1v-97z" />
    <glyph glyph-name="u" unicode="u" horiz-adv-x="559" 
d="M67 377q0 32 -3 49t-10.5 24t-19.5 6t-31 -4q-6 -1 -6 3.5t6 5.5q38 7 67 19t55 26q2 2 10 -0.5t8 -6.5v-316q0 -47 10 -78t26.5 -50t37.5 -27t44 -8q47 0 81.5 21.5t70.5 69.5v266q0 32 -3 49t-10.5 24t-19.5 6t-31 -4q-6 -1 -6 3.5t6 5.5q38 7 66.5 19t54.5 26
q2 2 10 -0.5t8 -6.5v-380q0 -38 1.5 -60t6.5 -33t16 -14t29 -3q5 0 5 -4.5t-5 -4.5q-47 0 -78 -4t-52 -6q-6 -1 -7 1.5t-1 7.5t4.5 31.5t5.5 68.5q-38 -51 -83 -80t-102 -29q-34 0 -63.5 9.5t-51 33t-34 62.5t-12.5 98v184z" />
    <glyph glyph-name="v" unicode="v" horiz-adv-x="531" 
d="M278 -2q-1 -2 -4 -2h-16q-3 0 -4 2l-160 367q-18 42 -32 67.5t-26 38.5t-24.5 16.5t-28.5 3.5q-5 0 -5 4.5t5 4.5q3 0 17 -0.5t30.5 -0.5t32 -0.5t20.5 -0.5h18t28.5 0.5t31 0.5h24.5q6 0 6 -4t-6 -4q-22 0 -34 -3t-14.5 -13.5t3.5 -30t20 -51.5l139 -320l116 277
q30 75 17.5 108t-60.5 32q-6 0 -6 4.5t6 4.5h23t26 -0.5t24 -0.5h16t18 0.5t27 0.5t25.5 0.5t14.5 0.5q5 0 5 -4.5t-5 -4.5q-35 1 -63.5 -37t-58.5 -110z" />
    <glyph glyph-name="w" unicode="w" horiz-adv-x="829" 
d="M408 386l-163 -388q-1 -2 -3 -2h-11q-3 0 -4 2l-134 365q-15 43 -27 68.5t-24 39t-25.5 17t-32.5 3.5q-4 0 -4 4.5t4 4.5q2 0 14.5 -0.5t28 -0.5t29 -0.5t18.5 -0.5t20.5 0.5t34 0.5t36 0.5t26.5 0.5q5 0 5 -4.5t-5 -4.5q-21 0 -33 -2t-16 -11.5t0.5 -29t17.5 -55.5
l111 -302l125 291q2 8 2 15.5t-1 17.5q-1 8 -3 17.5t-7 18.5q-9 18 -24 29t-40 11q-5 0 -5.5 4.5t4.5 4.5q9 0 23 -0.5t28.5 -0.5t26 -0.5t16.5 -0.5t16.5 0.5t25.5 0.5t27.5 0.5t21.5 0.5q6 0 6.5 -4.5t-5.5 -4.5q-20 0 -32 -2t-15 -11.5t2.5 -29t19.5 -55.5l121 -308
l107 266q16 39 17 65.5t-8.5 43t-27 24t-39.5 7.5q-5 0 -5.5 4.5t4.5 4.5q9 0 24.5 -0.5t31.5 -0.5t29 -0.5t18 -0.5q4 0 18 0.5t29.5 0.5t28 0.5t15.5 0.5q5 0 5.5 -4.5t-4.5 -4.5q-22 0 -38.5 -7.5t-30.5 -25t-28 -45.5t-30 -69l-139 -346q-1 -2 -6 -2h-10q-3 0 -4 2z" />
    <glyph glyph-name="x" unicode="x" horiz-adv-x="531" 
d="M393 137q31 -47 50.5 -73t33 -38.5t25.5 -14.5t29 -2q5 0 6 -4.5t-4 -4.5q-3 0 -16 0.5t-28.5 0.5t-29.5 0.5t-19 0.5t-21 -0.5t-34.5 -0.5t-36.5 -0.5t-27 -0.5q-6 0 -7 4.5t5 4.5q22 0 35.5 2t16 11.5t-7.5 29t-34 55.5l-87 128l-67 -85q-48 -63 -48 -99
q0 -21 13.5 -31.5t37.5 -10.5q6 0 6 -4.5t-6 -4.5q-9 0 -23.5 0.5t-29 0.5t-26.5 0.5t-16 0.5q-5 0 -17 -0.5t-24.5 -0.5t-23 -0.5t-13.5 -0.5q-5 0 -5 4.5t5 4.5q25 -1 63 32.5t101 115.5l68 87l-80 119q-31 47 -50.5 73t-33.5 38.5t-26.5 14.5t-29.5 2q-5 0 -6 4.5t4 4.5
q2 0 15.5 -0.5t30 -0.5t32 -0.5t20.5 -0.5t19 0.5t30 0.5t32 0.5t25 0.5q6 0 7 -4.5t-5 -4.5q-22 0 -34 -2t-12.5 -11.5t10.5 -29t35 -55.5l70 -104l45 60q29 39 42 66t12 44q-1 31 -54 31q-5 0 -5 4.5t5 4.5q10 0 24 -0.5t27.5 -0.5t24.5 -0.5t16 -0.5t18.5 0.5t27.5 0.5
t26 0.5t15 0.5q5 0 5 -4.5t-5 -4.5q-36 1 -76.5 -37t-94.5 -110l-47 -62z" />
    <glyph glyph-name="y" unicode="y" horiz-adv-x="537" 
d="M117 -136q19 0 36 4t33 16.5t32.5 36t33.5 62.5l11 25l-159 352q-21 46 -35 72t-26.5 39.5t-25 16.5t-30.5 3q-5 0 -5 4.5t5 4.5q3 0 16.5 -0.5t30 -0.5t31.5 -0.5t21 -0.5q5 0 18.5 0.5t30 0.5t32.5 0.5t26 0.5q6 0 6 -4.5t-6 -4.5q-22 0 -34.5 -3.5t-15.5 -14
t3.5 -30.5t21.5 -53l133 -295l112 252q32 72 17 108t-63 36q-6 0 -6 4.5t6 4.5q10 0 24.5 -0.5t28 -0.5t25 -0.5t16.5 -0.5q6 0 19.5 0.5t28 0.5t27 0.5t15.5 0.5q5 0 5 -4.5t-5 -4.5q-35 1 -66 -38.5t-63 -111.5l-160 -360q-38 -88 -87 -130.5t-122 -42.5q-41 0 -62 12.5
t-21 26.5q0 6 4 14t11.5 15t17.5 12t22 5q13 0 24 -4.5t21.5 -10t21.5 -10t25 -4.5z" />
    <glyph glyph-name="z" unicode="z" horiz-adv-x="505" 
d="M51 245q0 -5 -4.5 -5t-4.5 5l3 62q4 88 6.5 138t4.5 51q5 2 19 3t28 1h32t52.5 -0.5t62 -0.5t60.5 -0.5t47.5 -0.5h23.5q6 0 16.5 0.5l21.5 1l21.5 1t15.5 0.5q7 0 6.5 -6.5t-6.5 -14.5l-348 -468q16 0 37.5 -0.5l42.5 -1t38.5 -0.5h27.5q96 0 144.5 52t55.5 141l5 69
q0 5 5 4.5t4 -5.5l-5 -69q-6 -61 -9 -99t-5 -59.5t-3.5 -30t-2.5 -9.5q-2 -2 -5.5 -2.5t-13 -1t-26 -0.5h-42.5h-67t-79 1q-45 0 -93 1l-84 -2q-6 0 -11.5 2t-3.5 7l358 480h-130q-50 0 -85.5 -11.5t-58.5 -34t-34.5 -56.5t-13.5 -80z" />
    <glyph glyph-name="braceleft" unicode="{" horiz-adv-x="445" 
d="M238 374q0 -24 -7.5 -44t-20 -35.5t-29 -26.5t-33.5 -18q17 -7 33.5 -18t29 -26.5t20 -35t7.5 -43.5q0 -32 -10.5 -65l-22.5 -68t-22.5 -71.5t-10.5 -73.5q0 -27 8.5 -50t29.5 -40.5t56 -27t88 -9.5q12 0 14 -9.5t-15 -9.5q-54 0 -92.5 13t-63.5 35.5t-37 53t-12 65.5
q0 40 11 76t24 69t24 64t11 61q0 24 -8 43.5t-21.5 32.5t-31 20t-35.5 7q-8 0 -8 7q0 5 1 6.5t7 1.5q18 0 35.5 7t31 20t21.5 32.5t8 43.5q0 30 -11 60.5l-24 63.5t-24 69t-11 77q0 34 15.5 64t44 52.5t68 35.5t87.5 13q16 0 14 -8.5t-13 -8.5q-98 0 -145 -36.5t-47 -90.5
q0 -38 10.5 -74t22.5 -71l22.5 -68.5t10.5 -64.5z" />
    <glyph glyph-name="bar" unicode="|" horiz-adv-x="267" 
d="M142 247q0 -60 0.5 -125l1 -131t1.5 -131t3 -126q-10 -8 -14.5 -10t-14.5 0q3 63 4.5 129.5l3 133.5t2 133t0.5 126t-0.5 131t-1.5 142.5l-2 137.5t-2 117q9 7 14.5 7.5t16.5 -1.5q-3 -55 -5.5 -122.5t-4 -139t-2 -141.5t-0.5 -130z" />
    <glyph glyph-name="braceright" unicode="}" horiz-adv-x="445" 
d="M207 127q0 48 27.5 78.5t62.5 44.5q-35 14 -62.5 44.5t-27.5 79.5q0 31 10.5 64.5l22.5 68.5t22.5 71t10.5 74q0 54 -47 90.5t-145 36.5q-11 0 -13 8.5t14 8.5q100 0 157.5 -45t57.5 -120q0 -41 -11 -77t-24 -69l-24 -63.5t-11 -60.5q0 -24 8 -43.5t21.5 -32.5t31 -20
t35.5 -7q6 0 7 -1.5t1 -6.5q0 -7 -8 -7q-18 0 -35.5 -7t-31 -20t-21.5 -32.5t-8 -43.5q0 -30 11 -61t24 -64t24 -69t11 -76q0 -36 -12.5 -67t-37.5 -53t-64 -34.5t-91 -12.5q-17 0 -15 9.5t14 9.5q53 0 88 9.5t56 27t29.5 40.5t8.5 50q0 37 -10.5 73.5t-22.5 71.5l-22.5 68
t-10.5 65z" />
    <glyph glyph-name="asciitilde" unicode="~" horiz-adv-x="833" 
d="M264 322q39 50 58.5 71.5t37.5 21.5q16 0 36.5 -9t41 -20.5t39.5 -20.5t33 -9q7 0 11.5 1t10.5 6t14.5 16.5l22.5 31.5q5 5 8.5 3.5t-1.5 -8.5q-32 -48 -56 -74t-48 -26q-15 0 -35 10t-40 21.5l-39 21.5t-34 10q-4 0 -7.5 -1.5t-9 -7t-14 -15.5t-22.5 -28
q-6 -7 -8.5 -4.5t1.5 9.5z" />
    <glyph glyph-name="nonbreakingspace" unicode="&#xa0;" horiz-adv-x="309" 
 />
    <glyph glyph-name="exclamdown" unicode="&#xa1;" horiz-adv-x="252" 
d="M184 458q0 -23 -16.5 -40.5t-41.5 -17.5q-23 0 -40.5 17.5t-17.5 40.5q0 25 17.5 41.5t40.5 16.5q25 0 41.5 -16.5t16.5 -41.5zM158 -101q0 -8 -7 -21t-16 -25.5t-18 -21.5t-13 -9q-11 0 -17.5 9t-6.5 26v4q0 38 6.5 95.5l14 124t14 136t6.5 132.5q0 4 3 4t3 -4
q0 -63 5 -129t10.5 -126.5t10.5 -110t5 -79.5v-5z" />
    <glyph glyph-name="cent" unicode="&#xa2;" horiz-adv-x="523" 
d="M294 250q-1 -53 -1 -102v-98q9 -1 18.5 -1.5t19.5 -0.5q71 0 121 33.5t88 102.5q3 6 7 4t1 -7q-20 -38 -47.5 -71t-60.5 -58.5t-70.5 -41.5t-76.5 -19q1 -48 1.5 -96.5t2.5 -101.5q-10 -8 -14 -10t-14 0l4 105l4 102q-53 0 -97 17.5t-76 49.5t-49.5 76t-17.5 97
q0 51 20 97.5t53.5 83.5t77.5 62t93 33q0 45 -0.5 87.5t-1.5 86.5q9 7 13 7.5t15 -1.5l-4 -89.5l-4 -87.5q6 0 11.5 0.5t11.5 0.5q37 0 67.5 -7t52.5 -17.5t34.5 -24t12.5 -26.5t-12.5 -27t-36.5 -14q-15 0 -27.5 13l-27.5 29.5t-35.5 31.5t-51.5 19q-2 -57 -3 -115t-1 -122
zM97 267q0 -40 13 -75.5t37 -63.5t57.5 -47.5t74.5 -27.5q2 51 3 99.5t1 96.5v123.5t-1 115.5h-2q-37 0 -70.5 -14t-58.5 -41.5t-39.5 -69t-14.5 -96.5z" />
    <glyph glyph-name="sterling" unicode="&#xa3;" horiz-adv-x="663" 
d="M246 244q62 0 118 2t93 4q5 -4 5 -12.5t-5 -11.5q-41 3 -95 5t-115 2h-33q-18 -91 -39.5 -166t-46.5 -125q34 -5 75.5 -12t86.5 -13.5t90.5 -11t86.5 -4.5q28 0 47.5 15t28.5 29q16 23 29.5 55t21.5 67l10 44q2 5 7.5 4.5t3.5 -5.5l-10 -45l-26.5 -113l-17.5 -70
q-2 -7 -8.5 -16t-16 -17.5t-21.5 -14t-26 -5.5q-41 0 -91 13t-100 30t-96 35t-78 27q-25 -46 -50 -61q-18 -10 -29.5 -12t-25.5 -2t-29.5 10t-15.5 30q0 25 20 38.5t55 13.5q11 0 29.5 -2t41.5 -6q6 18 10.5 48.5t8.5 68.5t7.5 82t6.5 90q-38 -1 -72.5 -2.5t-59.5 -3.5
q-5 3 -5 9.5t5 10.5q23 -2 58.5 -2h74.5q3 42 6.5 84.5t8.5 80.5q7 66 26 114.5t43.5 83t51 56.5t48.5 36q53 33 104 33q40 0 66 -20t26 -49q0 -24 -12.5 -36.5t-31.5 -12.5q-25 0 -32.5 15.5t-10.5 32.5q-3 16 -14 31t-40 15q-11 0 -26.5 -5t-24.5 -12q-16 -13 -30 -32
t-26.5 -49.5t-22.5 -76.5t-19 -113q-6 -46 -13 -90t-15 -86h30v0z" />
    <glyph glyph-name="yen" unicode="&#xa5;" horiz-adv-x="615" 
d="M352 331q48 1 88 3.5t71 5.5q5 -5 4 -11.5t-3 -12.5q-34 5 -75 6t-88 1v-140q48 1 88.5 3t71.5 7q5 -4 5.5 -11t-2.5 -13q-34 3 -74.5 4t-88.5 2q0 -61 2.5 -94.5t8.5 -49.5t16.5 -19t26.5 -3h18q6 0 6 -4.5t-6 -4.5q-11 0 -27 0.5l-32.5 1t-30 1t-19.5 0.5
q-5 0 -19 -0.5t-30.5 -1l-33.5 -1t-27 -0.5q-6 0 -6 4.5t6 4.5h18q16 0 26 3t16 19t8.5 49.5t3.5 94.5q-48 -1 -84.5 -2.5t-74.5 -4.5q-5 2 -5.5 9t2.5 13q41 -5 78 -6t84 -1v138l-1 2q-47 -1 -83 -2.5t-75 -6.5q-5 4 -5 10.5t2 11.5q39 -3 75 -4t81 -1l-102 178l-50.5 85.5
t-37 53.5t-32 28t-34.5 8h-8q-7 0 -7 4q0 5 6 5q11 0 25.5 -0.5l29 -1t26.5 -1t18 -0.5t21.5 0.5t34 1l36.5 1t29 0.5q6 0 7.5 -4.5t-4.5 -4.5h-21q-19 0 -25.5 -9t-1.5 -30t22.5 -55.5t46.5 -85.5l96 -166l105 174q9 15 21.5 43.5t17.5 57.5t-5 50.5t-46 21.5
q-6 0 -15.5 -2t-12.5 -2q-7 0 -7 6q0 2 2 4t10 2q7 0 21.5 -0.5t31 -0.5t31.5 -0.5t21 -0.5q5 0 19 0.5t31 0.5t33.5 0.5t25.5 0.5q6 0 6 -4.5t-5 -4.5h-7q-21 0 -42.5 -17t-42.5 -43.5t-40.5 -57l-36.5 -57.5z" />
    <glyph glyph-name="brokenbar" unicode="&#xa6;" horiz-adv-x="267" 
d="M126 293q0 13 0.5 48t1 74t1 74t0.5 47l-6 238q5 10 12 10.5t13 -4.5q0 -13 -1 -48t-2 -74.5t-2 -74.5t-1 -47q0 -13 1 -47t2 -72t2 -72t1 -46q-8 -7 -12 -8t-10 2zM122 -284q0 13 1 48t2.5 74t2.5 74t1 47l-3 238q3 7 10 8t12 -2q0 -13 -1 -48t-2 -74.5t-2 -74.5t-1 -47
q0 -13 1 -47t1.5 -72t1.5 -72t1 -46q-13 -12 -25 -6z" />
    <glyph glyph-name="section" unicode="&#xa7;" horiz-adv-x="585" 
d="M528 86q0 -51 -29 -86t-71 -64q-4 -27 -18.5 -50.5t-36.5 -41t-48.5 -27.5t-53.5 -10q-28 0 -52 6t-42 16t-28 23.5t-10 27.5q0 24 13.5 37t33.5 13q18 0 28.5 -7.5t17.5 -19.5t12.5 -25t13.5 -25t20.5 -19.5t34.5 -7.5q18 0 31.5 6.5t22.5 17t13.5 23.5t3.5 26
q0 36 -24 74t-60 78.5t-77.5 82t-77.5 84.5t-60 86t-24 86q0 26 8 47.5t22 40t33 35t41 31.5q6 24 20 45t34 36.5t45 24t53 8.5q27 0 49.5 -6t39 -16t26 -22.5t9.5 -25.5q0 -22 -12 -32.5t-29 -10.5q-25 0 -35.5 15t-19.5 32.5t-23 32.5t-46 15q-17 0 -30 -6.5t-22 -17
t-13.5 -23.5t-3.5 -26q0 -35 24 -74t59.5 -79.5t77 -82t77 -83.5t59.5 -83t24 -79zM162 514v12t2 11q-55 -41 -55 -101q0 -39 23.5 -80t59.5 -82.5t77 -83t77 -82t59.5 -80t23.5 -76.5q0 -6 -1 -9q31 24 41 46t10 52q0 35 -23.5 74.5t-58.5 80.5t-76.5 82.5t-76.5 82.5
t-58.5 79.5t-23.5 73.5z" />
    <glyph glyph-name="dieresis" unicode="&#xa8;" horiz-adv-x="809" 
d="M450 648q0 20 14.5 35t34.5 15t35 -15t15 -35t-15 -34.5t-35 -14.5t-34.5 14.5t-14.5 34.5zM252 648q0 20 14.5 35t34.5 15t35 -15t15 -35t-15 -34.5t-35 -14.5t-34.5 14.5t-14.5 34.5z" />
    <glyph glyph-name="copyright" unicode="&#xa9;" horiz-adv-x="816" 
d="M407 1q70 0 131.5 25t107.5 70t73 107.5t27 136.5t-27 137.5t-73 110.5t-107 74t-128 27q-69 0 -131 -25.5t-109 -70.5t-74.5 -107.5t-27.5 -136.5t27.5 -137.5t74 -110.5t107.5 -73.5t129 -26.5zM397 -16q-73 0 -136.5 26.5t-111 74t-75 113t-27.5 143.5q0 77 35 143.5
t89 115.5t120 77t129 28q73 0 136.5 -26.5t110.5 -74t74 -113t27 -143.5q0 -77 -34 -143.5t-87.5 -115.5t-119.5 -77t-130 -28zM600 246l-28.5 -32.5t-42.5 -37.5t-56.5 -30.5t-69.5 -11.5q-43 0 -79.5 14.5t-63 41t-41.5 63t-15 81.5q0 48 19 88t50 68.5t71.5 44.5t82.5 16
q48 0 81.5 -7.5t57.5 -18.5l9 -155q0 -4 -4 -4.5t-4 3.5q-3 34 -11.5 65.5t-25.5 55.5t-42.5 38t-61.5 14q-76 0 -121.5 -43.5t-45.5 -140.5q0 -39 13 -73.5t37 -60t58 -40.5t76 -15q31 0 54.5 8.5t41.5 21t31 27l24 26.5q2 2 5 -0.5t1 -5.5z" />
    <glyph glyph-name="ordfeminine" unicode="&#xaa;" horiz-adv-x="376" 
d="M121 397q-35 0 -53.5 19t-18.5 45q0 29 32 57.5t112 60.5l49 19q-2 54 -17 73t-45 19q-19 0 -30 -7.5t-17.5 -18t-10.5 -22.5t-9 -21q-4 -8 -11 -11t-21 -3q-26 0 -26 16q0 6 5.5 15t18.5 18q21 15 50 28t60 13q21 0 39.5 -4.5t33 -16t22.5 -30t8 -46.5q0 -15 -0.5 -33
l-1 -36t-1 -33t-0.5 -23q0 -25 3.5 -34.5t13.5 -9.5q8 0 17.5 11.5t14.5 19.5q2 5 8 2t1 -8q-4 -5 -13 -14.5t-20 -19.5t-23 -17.5t-22 -7.5q-33 0 -33 41v24t1 22q-7 -10 -21.5 -25t-31.5 -28.5t-34 -23.5t-29 -10zM100 486q0 -23 16 -40t38 -17q11 0 24.5 9t26.5 21.5
t22 25t11 19.5q1 5 2.5 23.5t1.5 54.5v8l-47 -19q-32 -13 -50.5 -23.5t-28.5 -20t-13 -19.5t-3 -22z" />
    <glyph glyph-name="guillemotleft" unicode="&#xab;" horiz-adv-x="662" 
d="M66 248q11 -10 31.5 -26.5l45 -36l50.5 -39.5l49 -38l40 -31.5t24 -19.5q8 -8 14 -15.5t5 -20.5q-2 -12 -7.5 -17t-13.5 -5q-14 0 -38 23q-18 16 -46 46.5l-58.5 64.5l-59 65.5t-47.5 49.5q-2 2 -2 5t2 5l49.5 51.5l63.5 67.5l63.5 66t49.5 48q26 23 36 23q8 0 15.5 -5.5
t7.5 -16.5q0 -12 -5 -19.5t-16 -17.5q-7 -6 -25.5 -19.5l-42.5 -32l-51.5 -39l-53.5 -40.5l-47.5 -38t-32.5 -29q-4 -4 0 -8v-1zM280 248q12 -10 36 -26.5l53 -35.5l60.5 -39l58.5 -38l47.5 -31.5t27.5 -19.5q8 -8 14 -16t6 -21q0 -12 -5.5 -17t-13.5 -5q-15 0 -41 23
l-54 47l-73 65l-73 65.5l-55 48.5q-2 2 -2 5t2 5l56 50.5l73 67.5l72 66.5l53 48.5q26 23 37 23q8 0 15.5 -5.5t7.5 -16.5q0 -12 -4.5 -20t-15.5 -18q-7 -6 -27 -19.5l-47.5 -32l-58.5 -39.5l-60 -40.5l-53 -37t-36 -28.5q-5 -3 0 -8v-1z" />
    <glyph glyph-name="uni00AD" unicode="&#xad;" horiz-adv-x="538" 
d="M271 251q62 0 112.5 2t86.5 4q6 -4 6 -12.5t-5 -11.5q-42 3 -90.5 5t-109.5 2t-110.5 -2t-89.5 -5q-6 3 -6 11.5t5 12.5q38 -2 89.5 -4t111.5 -2z" />
    <glyph glyph-name="registered" unicode="&#xae;" horiz-adv-x="804" 
d="M581 44q-46 -31 -96.5 -45.5t-99.5 -14.5q-73 0 -135 26.5t-107 74t-70.5 113t-25.5 143.5q0 77 33 143.5t85.5 115.5t117 77t127.5 28q72 0 135 -25.5t110 -71.5t74 -111t27 -143q0 -31 -9 -73t-27.5 -80.5t-47.5 -65.5t-69 -27q-25 0 -43.5 9t-33 26t-27 41t-25.5 54
q-17 39 -29.5 62t-24.5 35t-27 16t-37 4h-25v-61q0 -56 1 -86.5t4.5 -44.5t10 -17t17.5 -3h12q3 0 3 -3.5t-3 -3.5h-16t-20 0.5t-18.5 0.5h-11.5h-16.5t-28 -0.5t-27 -0.5h-13.5q-4 0 -4 3.5t4 3.5q14 0 21.5 0.5t12.5 3.5q6 4 8.5 15.5t3.5 36.5q1 12 1.5 28.5t0.5 33.5
v32.5v26.5v80q0 56 -1 86.5t-4 45t-9.5 17t-17.5 2.5h-11q-4 0 -4 4t4 4q6 0 18 -0.5t24.5 -0.5t23 -0.5t13.5 -0.5t14 0.5t23.5 0.5t24 0.5t15.5 0.5q85 0 123.5 -23.5t38.5 -76.5q0 -20 -10.5 -36.5t-28.5 -29.5t-42 -21.5t-52 -11.5q18 -1 32.5 -6t28 -16.5t27 -30
t28.5 -46.5l23 -46t23.5 -42.5t28 -31.5t36.5 -12q24 0 41.5 24t29 58t17 72t5.5 65q0 74 -27 136.5t-72.5 108t-106.5 71t-128 25.5q-69 0 -129.5 -25.5t-105.5 -70.5t-71 -107.5t-26 -136.5t25.5 -137.5t70 -110.5t103.5 -73.5t127 -26.5q51 0 97 10.5t86 36.5q4 3 5.5 1
t-2.5 -5zM331 363q9 1 21 1h30q17 0 35 5t33 16t24.5 29t9.5 44q0 47 -24.5 70t-81.5 23h-23q-9 0 -13.5 -1.5t-7 -10.5t-3 -27.5t-0.5 -51.5v-97z" />
    <glyph glyph-name="macron" unicode="&#xaf;" horiz-adv-x="809" 
d="M401 676h44t46 1t30 1t5 -2q0 -5 -12 -17.5t-34 -33.5q-6 0 -29 0.5t-49 0.5h-20.5t-17 -0.5l-17.5 -1t-21 -0.5q-25 -1 -30 -0.5t-5 2.5q0 5 12 17.5t34 33.5q6 0 21.5 -0.5t41.5 -0.5h1z" />
    <glyph glyph-name="degree" unicode="&#xb0;" horiz-adv-x="376" 
d="M58 577q0 27 10 50.5t28 41.5t41.5 28t50.5 10t50.5 -10t41.5 -28t28 -41.5t10 -50.5t-10 -50.5t-28 -41.5t-41.5 -28t-50.5 -10t-50.5 10t-41.5 28t-28 41.5t-10 50.5zM73 577q0 -24 9 -45t25 -36.5t36.5 -25t44.5 -9.5t44.5 9.5t36.5 25t25 36.5t9 45t-9 45t-25 36.5
t-36.5 25t-44.5 9.5t-44.5 -9.5t-36.5 -25t-25 -36.5t-9 -45z" />
    <glyph glyph-name="plusminus" unicode="&#xb1;" 
d="M268 526q4 5 12.5 5t11.5 -5q-2 -20 -3 -36l-2 -33t-1.5 -37.5t-0.5 -48.5q28 0 49 0.5t38 1.5l32.5 2t33.5 2q5 -4 5 -12.5t-5 -11.5q-20 1 -36 2.5t-32.5 2.5t-36.5 1.5t-48 0.5q0 -29 0.5 -49t1.5 -37l2 -33t3 -35q-3 -5 -11.5 -5t-12.5 5q1 18 1.5 33.5l1 32.5
t0.5 38v50q-28 0 -48 -0.5t-37 -1.5t-33 -2.5t-35 -2.5q-5 3 -5 11.5t5 12.5q18 -1 33.5 -2l32.5 -2t38 -1.5t49 -0.5v49.5t-0.5 38.5l-1 33t-1.5 34zM277 126q31 0 52.5 0.5t39 1.5l33.5 2t34 2q5 -4 5 -12.5t-5 -11.5q-20 1 -36 2.5t-33 2.5t-38 1.5t-51 0.5t-51 -0.5
t-38 -1.5t-33 -2.5t-36 -2.5q-5 3 -5 11.5t5 12.5q18 -1 34 -2l33 -2t38.5 -1.5t51.5 -0.5z" />
    <glyph glyph-name="twosuperior" unicode="&#xb2;" horiz-adv-x="371" 
d="M135 348h-27t-28 -0.5t-23 -0.5h-12v8q0 8 1 9q18 15 30.5 24.5l22.5 17.5l19.5 15.5t20.5 18.5q30 28 50.5 52t33 45.5t18 42.5t5.5 45q0 35 -19 52t-51 17q-24 0 -43 -16t-32 -40.5t-20 -55t-7 -59.5q0 -4 -4.5 -4t-4.5 4q0 21 -2.5 44.5t-5 44t-5 35.5t-2.5 20
q0 4 0.5 7.5t4.5 3.5q29 9 60.5 17t62.5 8q63 0 101.5 -21t38.5 -70q0 -24 -14 -44.5t-37.5 -40.5t-54.5 -42.5t-64 -50.5l-19 -15.5l-16 -13.5h65t66 1q34 0 49 4.5t20 31.5l6 42q1 8 6 8t3 -8l-6 -43q-2 -16 -4.5 -32l-4.5 -28.5l-3.5 -21.5t-2.5 -10q-2 -2 -26 -2h-25
t-44 0.5t-46 0.5h-31z" />
    <glyph glyph-name="threesuperior" unicode="&#xb3;" horiz-adv-x="350" 
d="M128 355q32 0 54.5 8t37 21.5t21.5 31t7 36.5q0 38 -19 56t-54 18q-15 0 -26 -6t-19.5 -13.5t-14.5 -13.5t-10 -6q-5 0 -6 4t-1 8.5t1 8.5l1 4q55 18 90 50t35 77q0 54 -61 56q-27 0 -46 -13.5t-31.5 -34.5t-18 -47t-5.5 -52q0 -4 -4.5 -4.5t-4.5 3.5q0 42 -4.5 76.5
t-4.5 43.5q0 4 0.5 7.5t4.5 3.5l57.5 17.5t69.5 8.5q56 0 85.5 -18t29.5 -50q0 -22 -12 -37t-31.5 -26.5t-45 -22t-53.5 -23.5q16 5 31 8t27 3q57 0 81 -23.5t24 -63.5q0 -50 -36.5 -80t-110.5 -30q-36 0 -67.5 7t-52.5 14q-7 2 -6 6.5t8 2.5l37 -10.5t43 -5.5z" />
    <glyph glyph-name="acute" unicode="&#xb4;" horiz-adv-x="809" 
d="M317 537q-2 -2 -4 -2q-4 0 -4 4q0 1 3 4q19 18 39 42t36.5 46.5l28.5 39.5t16 21t10.5 5t13.5 1q6 0 11 -0.5t7 -2.5q3 -3 3 -19q0 -4 -3.5 -8.5t-8.5 -8.5q-5 -5 -21.5 -17l-38.5 -28.5t-45.5 -36.5t-42.5 -40z" />
    <glyph glyph-name="paragraph" unicode="&#xb6;" horiz-adv-x="644" 
d="M334 353h-81q-92 0 -144.5 43t-52.5 118q0 74 47 116t146 42h20h40.5t50 -0.5t50 -0.5h40h20.5q6 0 20 0.5t30.5 0.5t33 0.5t27.5 0.5q6 0 6 -4.5t-6 -4.5h-18q-18 0 -29 -4.5t-16.5 -28.5t-7 -74.5t-1.5 -142.5v-563q0 -8 -5.5 -8t-5.5 8v563q0 92 -1 142t-4.5 73.5
t-11.5 27.5t-22 4h-113v-810q0 -8 -6 -8t-6 8v502z" />
    <glyph glyph-name="periodcentered" unicode="&#xb7;" horiz-adv-x="252" 
d="M68 247q0 23 16.5 40.5t41.5 17.5q23 0 40.5 -17.5t17.5 -40.5q0 -25 -17.5 -41.5t-40.5 -16.5q-25 0 -41.5 16.5t-16.5 41.5z" />
    <glyph glyph-name="cedilla" unicode="&#xb8;" horiz-adv-x="809" 
d="M499 -163q0 -21 -9 -45t-25.5 -45t-38.5 -35t-49 -14q-34 0 -59 10.5t-25 27.5t10.5 29.5t27.5 12.5q13 0 24 -7t21.5 -15.5t22.5 -15.5t29 -7q20 0 33 17.5t13 37.5q0 14 -7.5 26.5t-26.5 22.5t-50 15.5t-77 5.5q-11 0 -4 10l23.5 31l27 36.5l26 35.5t20.5 29
q4 5 7.5 3.5t0.5 -5.5q-17 -23 -32 -46l-27 -40q-3 -3 -0.5 -3h5.5q37 0 63 -6.5t43 -17t25 -23.5t8 -25z" />
    <glyph glyph-name="onesuperior" unicode="&#xb9;" horiz-adv-x="213" 
d="M52 358q22 0 26.5 16.5t4.5 60.5v180q0 28 -8 31t-36 -8q-3 -1 -4.5 2t1.5 5q25 9 49.5 25.5t43.5 32.5q1 1 5 0.5t4 -2.5v-266q0 -44 4.5 -60.5t27.5 -16.5h19q2 0 2 -4.5t-2 -4.5h-17t-23 0.5t-22.5 0.5h-15.5h-15.5t-22.5 -0.5t-22.5 -0.5h-16.5q-2 0 -2 4.5t2 4.5h18
v0z" />
    <glyph glyph-name="ordmasculine" unicode="&#xba;" horiz-adv-x="376" 
d="M184 397q-62 0 -102.5 39t-40.5 105q0 31 11 59.5t31.5 50t48.5 34t61 12.5q30 0 56 -10.5t45 -29.5t30 -46t11 -60q0 -28 -11.5 -55.5t-31.5 -49.5t-47.5 -35.5t-60.5 -13.5zM191 406q44 0 65 36t21 100q0 27 -5 53.5t-16 47t-27.5 33.5t-40.5 13q-48 0 -68 -37.5
t-20 -100.5q0 -27 5 -53t15.5 -46.5t28 -33t42.5 -12.5z" />
    <glyph glyph-name="guillemotright" unicode="&#xbb;" horiz-adv-x="662" 
d="M585 264q-11 10 -31.5 26.5l-45 36l-50.5 39.5l-49 38l-40.5 31.5t-23.5 19.5q-8 8 -14 15.5t-5 20.5q2 12 7.5 17t13.5 5q14 0 38 -23q18 -16 46 -46.5l58.5 -64.5l59 -65.5t47.5 -49.5q2 -2 2 -5t-2 -5q-19 -19 -48.5 -51.5l-61 -67l-61 -66t-48.5 -47.5
q-26 -23 -36 -23q-8 0 -15.5 5.5t-7.5 16.5q0 12 5 19.5t16 17.5q7 6 25 19.5l41 31.5l50 39l52 41l45.5 37t32.5 29q4 4 0 8v1zM371 264q-12 10 -35.5 26.5l-52.5 35.5l-59.5 39l-57.5 38l-47 31.5t-27 19.5q-8 8 -14 16t-6 21q0 12 5.5 17t13.5 5q15 0 41 -23
q19 -16 53 -47l71.5 -65l72 -65.5l54.5 -48.5q2 -2 2 -5t-2 -5l-56.5 -50.5l-74 -67l-73 -66.5t-53.5 -48q-26 -23 -37 -23q-8 0 -15.5 5.5t-7.5 16.5q0 12 4.5 20t15.5 18q7 6 27.5 19.5l48 31.5l59 39l61 41l53.5 37t36 28q5 3 0 8v1z" />
    <glyph glyph-name="onequarter" unicode="&#xbc;" horiz-adv-x="636" 
d="M395 47q35 0 48.5 8t18.5 41l4 24q1 5 5.5 5t3.5 -5l-3 -20q-2 -15 -4.5 -31t-4 -30t-3 -23.5t-2.5 -10.5t-11 -1.5t-22 -0.5h-64v-21q0 -22 1 -34.5t6.5 -19.5t16 -9t28.5 -2q4 0 4 -4.5t-4 -4.5h-18t-24.5 0.5t-23.5 0.5h-14h-13.5t-23.5 -0.5t-25 -0.5h-18
q-4 0 -4 4.5t4 4.5q19 0 30.5 2t17 9t7 19.5t1.5 34.5v21h-112h-9.5t-13.5 -0.5l-14 -1t-11 -0.5q-11 -1 -3 11t30 39l39.5 48.5l35.5 43.5l37 47.5l44 60.5q6 9 18 12q14 4 19.5 0.5t0.5 -12.5q-5 -11 -7 -20.5t-2 -25.5v-158h34zM255 438q22 0 26.5 16.5t4.5 60.5v180
q0 28 -8 31t-36 -8q-3 -1 -4.5 2t1.5 5q25 9 49.5 25.5t43.5 32.5q1 1 5 0.5t4 -2.5v-266q0 -44 4.5 -60.5t27.5 -16.5h19q2 0 2 -4.5t-2 -4.5h-17t-23 0.5t-22.5 0.5h-15.5h-15.5t-22.5 -0.5t-22.5 -0.5h-16.5q-2 0 -2 4.5t2 4.5h18zM309 47v143l-30.5 -35.5l-29.5 -33
l-31.5 -34.5t-34.5 -40h126zM317 348q19 0 55 0.5t76 1.5t76 2t54 2q5 -4 5 -12.5t-5 -11.5q-20 1 -56.5 2.5t-76 2.5t-74.5 1.5t-53 0.5t-53 -0.5t-74.5 -1.5t-76 -2.5t-56.5 -2.5q-5 3 -5 11.5t5 12.5q18 -1 54 -2l75 -2t75 -1.5t55 -0.5z" />
    <glyph glyph-name="onehalf" unicode="&#xbd;" horiz-adv-x="636" 
d="M263 -96h-27t-28 -0.5t-23 -0.5h-12v8q0 8 1 9q18 15 30.5 24.5l22.5 17.5l19.5 15.5t20.5 18.5q30 28 50.5 52t33 45.5t18 42.5t5.5 45q0 35 -19 52t-51 17q-24 0 -43 -16t-32 -40.5t-20 -55t-7 -59.5q0 -4 -4.5 -4t-4.5 4q0 21 -2.5 44.5t-5 44t-5 35.5t-2.5 20
q0 4 0.5 7.5t4.5 3.5q29 9 60.5 17t62.5 8q63 0 101.5 -21t38.5 -70q0 -24 -14 -44.5t-37.5 -40.5t-54.5 -42.5t-64 -50.5l-19 -15.5l-16 -13.5h65t66 1q34 0 49 4.5t20 31.5l6 42q1 8 6 8t3 -8l-6 -43q-2 -16 -4.5 -32l-4.5 -28.5l-3.5 -21.5t-2.5 -10q-2 -2 -26 -2h-25
t-44 0.5t-46 0.5h-31zM255 438q22 0 26.5 16.5t4.5 60.5v180q0 28 -8 31t-36 -8q-3 -1 -4.5 2t1.5 5q25 9 49.5 25.5t43.5 32.5q1 1 5 0.5t4 -2.5v-266q0 -44 4.5 -60.5t27.5 -16.5h19q2 0 2 -4.5t-2 -4.5h-17t-23 0.5t-22.5 0.5h-15.5h-15.5t-22.5 -0.5t-22.5 -0.5h-16.5
q-2 0 -2 4.5t2 4.5h18zM317 348q19 0 55 0.5t76 1.5t76 2t54 2q5 -4 5 -12.5t-5 -11.5q-20 1 -56.5 2.5t-76 2.5t-74.5 1.5t-53 0.5t-53 -0.5t-74.5 -1.5t-76 -2.5t-56.5 -2.5q-5 3 -5 11.5t5 12.5q18 -1 54 -2l75 -2t75 -1.5t55 -0.5z" />
    <glyph glyph-name="threequarters" unicode="&#xbe;" horiz-adv-x="636" 
d="M395 47q35 0 48.5 8t18.5 41l4 24q1 5 5.5 5t3.5 -5l-3 -20q-2 -15 -4.5 -31t-4 -30t-3 -23.5t-2.5 -10.5t-11 -1.5t-22 -0.5h-64v-21q0 -22 1 -34.5t6.5 -19.5t16 -9t28.5 -2q4 0 4 -4.5t-4 -4.5h-18t-24.5 0.5t-23.5 0.5h-14h-13.5t-23.5 -0.5t-25 -0.5h-18
q-4 0 -4 4.5t4 4.5q19 0 30.5 2t17 9t7 19.5t1.5 34.5v21h-112h-9.5t-13.5 -0.5l-14 -1t-11 -0.5q-11 -1 -3 11t30 39l39.5 48.5l35.5 43.5l37 47.5l44 60.5q6 9 18 12q14 4 19.5 0.5t0.5 -12.5q-5 -11 -7 -20.5t-2 -25.5v-158h34zM271 435q32 0 54.5 8t37 21.5t21.5 31
t7 36.5q0 38 -19 56t-54 18q-15 0 -26 -6t-19.5 -13.5t-14.5 -13.5t-10 -6q-5 0 -6 4t-1 8.5t1 8.5l1 4q55 18 90 50t35 77q0 54 -61 56q-27 0 -46 -13.5t-31.5 -34.5t-18 -47t-5.5 -52q0 -4 -4.5 -4.5t-4.5 3.5q0 42 -4.5 76.5t-4.5 43.5q0 4 0.5 7.5t4.5 3.5l57.5 17.5
t69.5 8.5q56 0 85.5 -18t29.5 -50q0 -22 -12 -37t-31.5 -26.5t-45 -22t-53.5 -23.5q16 5 31 8t27 3q57 0 81 -23.5t24 -63.5q0 -50 -36.5 -80t-110.5 -30q-36 0 -67.5 7t-52.5 14q-7 2 -6 6.5t8 2.5l37 -10.5t43 -5.5zM309 47v143l-30.5 -35.5l-29.5 -33l-31.5 -34.5
t-34.5 -40h126zM317 348q19 0 55 0.5t76 1.5t76 2t54 2q5 -4 5 -12.5t-5 -11.5q-20 1 -56.5 2.5t-76 2.5t-74.5 1.5t-53 0.5t-53 -0.5t-74.5 -1.5t-76 -2.5t-56.5 -2.5q-5 3 -5 11.5t5 12.5q18 -1 54 -2l75 -2t75 -1.5t55 -0.5z" />
    <glyph glyph-name="questiondown" unicode="&#xbf;" horiz-adv-x="395" 
d="M272 458q0 -23 -17 -40.5t-42 -17.5q-23 0 -40 17.5t-17 40.5q0 25 17.5 41.5t40.5 16.5q25 0 41.5 -16.5t16.5 -41.5zM261 171q0 -4 -1 -6.5t-7 -4.5q-78 -38 -115 -75.5t-36 -92.5q1 -56 52 -88t152 -32q6 0 6 -6q0 -4 -4.5 -19.5l-10 -34.5l-10.5 -38l-8 -31
q-2 -4 -4 -3.5t-2 4.5q4 23 7 38t2 19t-6 4h-12q-52 0 -91 12.5t-65 33.5t-39 47t-13 53q0 31 12.5 60.5t33 54t45.5 44t49 31.5q0 7 -1.5 29.5t-3.5 47l-3.5 44.5t-0.5 24q0 2 11.5 9.5t25 15t25 13t11.5 3.5t0.5 -22t0.5 -45.5v-50.5v-38z" />
    <glyph glyph-name="Agrave" unicode="&#xc0;" horiz-adv-x="711" 
d="M348 245q-18 0 -44 0.5l-52.5 1t-49 1t-33.5 0.5l-17 -42l-12.5 -35t-12 -39t-8.5 -39.5t-3 -35.5q0 -49 56 -49q6 0 15.5 1.5t12.5 1.5q7 0 7 -5q0 -2 -2 -4t-10 -2q-7 0 -23 0.5t-34 0.5t-34.5 0.5t-22.5 0.5q-5 0 -15 -0.5t-22 -0.5t-24.5 -0.5t-21.5 -0.5q-6 0 -6 5
q0 4 6 4h4q40 0 72 60q19 32 36.5 71t29.5 71l193 482q1 3 7 3h10q8 0 10 -3l182 -434q37 -88 60.5 -138t40 -75t30 -31t31.5 -6h8q7 0 7 -4q0 -5 -6 -5q-11 0 -26 0.5l-30 1t-27 1t-18 0.5t-21.5 -0.5t-34 -1l-36.5 -1t-29 -0.5q-6 0 -7.5 4.5t4.5 4.5h21q16 0 24.5 6t5 30
t-20.5 72t-53 131zM311 608l-139 -351l170 1h118v1zM347 768q-19 20 -42.5 40t-45.5 36.5l-38.5 28.5t-21.5 17q-5 4 -8.5 8.5t-3.5 8.5q0 16 3 19q2 2 7 2.5t11 0.5q7 0 13.5 -1t10.5 -5t16 -21l28.5 -39.5t36 -46.5t39.5 -42q3 -3 3 -4q0 -4 -4 -4q-2 0 -4 2z" />
    <glyph glyph-name="Aacute" unicode="&#xc1;" horiz-adv-x="711" 
d="M348 245q-18 0 -44 0.5l-52.5 1t-49 1t-33.5 0.5l-17 -42l-12.5 -35t-12 -39t-8.5 -39.5t-3 -35.5q0 -49 56 -49q6 0 15.5 1.5t12.5 1.5q7 0 7 -5q0 -2 -2 -4t-10 -2q-7 0 -23 0.5t-34 0.5t-34.5 0.5t-22.5 0.5q-5 0 -15 -0.5t-22 -0.5t-24.5 -0.5t-21.5 -0.5q-6 0 -6 5
q0 4 6 4h4q40 0 72 60q19 32 36.5 71t29.5 71l193 482q1 3 7 3h10q8 0 10 -3l182 -434q37 -88 60.5 -138t40 -75t30 -31t31.5 -6h8q7 0 7 -4q0 -5 -6 -5q-11 0 -26 0.5l-30 1t-27 1t-18 0.5t-21.5 -0.5t-34 -1l-36.5 -1t-29 -0.5q-6 0 -7.5 4.5t4.5 4.5h21q16 0 24.5 6t5 30
t-20.5 72t-53 131zM311 608l-139 -351l170 1h118v1zM347 768q-2 -2 -4 -2q-4 0 -4 4q0 1 3 4q19 18 39 42t36.5 46.5l28.5 39.5t16 21t10.5 5t13.5 1q6 0 11 -0.5t7 -2.5q3 -3 3 -19q0 -4 -3.5 -8.5t-8.5 -8.5q-5 -5 -21.5 -17l-38.5 -28.5t-45.5 -36.5t-42.5 -40z" />
    <glyph glyph-name="Acircumflex" unicode="&#xc2;" horiz-adv-x="711" 
d="M348 245q-18 0 -44 0.5l-52.5 1t-49 1t-33.5 0.5l-17 -42l-12.5 -35t-12 -39t-8.5 -39.5t-3 -35.5q0 -49 56 -49q6 0 15.5 1.5t12.5 1.5q7 0 7 -5q0 -2 -2 -4t-10 -2q-7 0 -23 0.5t-34 0.5t-34.5 0.5t-22.5 0.5q-5 0 -15 -0.5t-22 -0.5t-24.5 -0.5t-21.5 -0.5q-6 0 -6 5
q0 4 6 4h4q40 0 72 60q19 32 36.5 71t29.5 71l193 482q1 3 7 3h10q8 0 10 -3l182 -434q37 -88 60.5 -138t40 -75t30 -31t31.5 -6h8q7 0 7 -4q0 -5 -6 -5q-11 0 -26 0.5l-30 1t-27 1t-18 0.5t-21.5 -0.5t-34 -1l-36.5 -1t-29 -0.5q-6 0 -7.5 4.5t4.5 4.5h21q16 0 24.5 6t5 30
t-20.5 72t-53 131zM311 608l-139 -351l170 1h118v1zM349 902q-4 4 -7 0l-82 -122q-6 -8 -13 -13.5t-21 -5.5q-10 0 -15 4.5t-5 9.5q0 3 2.5 9t15.5 20q9 10 22.5 23l29 27l32 29t33.5 28q4 4 9 0l67.5 -52.5l53.5 -44.5q12 -11 16 -17.5t4 -11.5q0 -6 -6 -13.5t-17 -7.5
q-13 0 -21 6.5t-14 14.5l-37.5 52.5z" />
    <glyph glyph-name="Atilde" unicode="&#xc3;" horiz-adv-x="711" 
d="M348 245q-18 0 -44 0.5l-52.5 1t-49 1t-33.5 0.5l-17 -42l-12.5 -35t-12 -39t-8.5 -39.5t-3 -35.5q0 -49 56 -49q6 0 15.5 1.5t12.5 1.5q7 0 7 -5q0 -2 -2 -4t-10 -2q-7 0 -23 0.5t-34 0.5t-34.5 0.5t-22.5 0.5q-5 0 -15 -0.5t-22 -0.5t-24.5 -0.5t-21.5 -0.5q-6 0 -6 5
q0 4 6 4h4q40 0 72 60q19 32 36.5 71t29.5 71l193 482q1 3 7 3h10q8 0 10 -3l182 -434q37 -88 60.5 -138t40 -75t30 -31t31.5 -6h8q7 0 7 -4q0 -5 -6 -5q-11 0 -26 0.5l-30 1t-27 1t-18 0.5t-21.5 -0.5t-34 -1l-36.5 -1t-29 -0.5q-6 0 -7.5 4.5t4.5 4.5h21q16 0 24.5 6t5 30
t-20.5 72t-53 131zM311 608l-139 -351l170 1h118v1zM193 792q39 50 58.5 71.5t37.5 21.5q16 0 36.5 -9t41 -20.5t39.5 -20.5t33 -9q7 0 11.5 1t10.5 6t14.5 16.5l22.5 31.5q5 5 8.5 3.5t-1.5 -8.5q-32 -48 -56 -74t-48 -26q-15 0 -35 10t-40 21.5l-39 21.5t-34 10
q-4 0 -7.5 -1.5t-9 -7t-14 -15.5t-22.5 -28q-6 -7 -8.5 -4.5t1.5 9.5z" />
    <glyph glyph-name="Adieresis" unicode="&#xc4;" horiz-adv-x="711" 
d="M348 245q-18 0 -44 0.5l-52.5 1t-49 1t-33.5 0.5l-17 -42l-12.5 -35t-12 -39t-8.5 -39.5t-3 -35.5q0 -49 56 -49q6 0 15.5 1.5t12.5 1.5q7 0 7 -5q0 -2 -2 -4t-10 -2q-7 0 -23 0.5t-34 0.5t-34.5 0.5t-22.5 0.5q-5 0 -15 -0.5t-22 -0.5t-24.5 -0.5t-21.5 -0.5q-6 0 -6 5
q0 4 6 4h4q40 0 72 60q19 32 36.5 71t29.5 71l193 482q1 3 7 3h10q8 0 10 -3l182 -434q37 -88 60.5 -138t40 -75t30 -31t31.5 -6h8q7 0 7 -4q0 -5 -6 -5q-11 0 -26 0.5l-30 1t-27 1t-18 0.5t-21.5 -0.5t-34 -1l-36.5 -1t-29 -0.5q-6 0 -7.5 4.5t4.5 4.5h21q16 0 24.5 6t5 30
t-20.5 72t-53 131zM311 608l-139 -351l170 1h118v1zM199 825q0 20 14.5 35t34.5 15t35 -15t15 -35t-15 -34.5t-35 -14.5t-34.5 14.5t-14.5 34.5zM397 825q0 20 14.5 35t34.5 15t35 -15t15 -35t-15 -34.5t-35 -14.5t-34.5 14.5t-14.5 34.5z" />
    <glyph glyph-name="Aring" unicode="&#xc5;" horiz-adv-x="711" 
d="M348 245q-18 0 -44 0.5l-52.5 1t-49 1t-33.5 0.5l-17 -42l-12.5 -35t-12 -39t-8.5 -39.5t-3 -35.5q0 -49 56 -49q6 0 15.5 1.5t12.5 1.5q7 0 7 -5q0 -2 -2 -4t-10 -2q-7 0 -23 0.5t-34 0.5t-34.5 0.5t-22.5 0.5q-5 0 -15 -0.5t-22 -0.5t-24.5 -0.5t-21.5 -0.5q-6 0 -6 5
q0 4 6 4h4q40 0 72 60q19 32 36.5 71t29.5 71l191 478q-26 5 -43 25t-17 48q0 31 21.5 52.5t52.5 21.5t52.5 -21.5t21.5 -52.5q0 -27 -16.5 -47t-41.5 -26l181 -430q37 -88 60.5 -138t40 -75t30 -31t31.5 -6h8q7 0 7 -4q0 -5 -6 -5q-11 0 -26 0.5l-30 1t-27 1t-18 0.5
t-21.5 -0.5t-34 -1l-36.5 -1t-29 -0.5q-6 0 -7.5 4.5t4.5 4.5h21q16 0 24.5 6t5 30t-20.5 72t-53 131zM311 608l-139 -351l170 1h118v1zM283 762q0 -26 18 -44t44 -18t44 18t18 44t-18 44t-44 18t-44 -18t-18 -44z" />
    <glyph glyph-name="AE" unicode="&#xc6;" horiz-adv-x="1007" 
d="M353 245q-18 0 -42 0.5l-48.5 1t-46 1t-34.5 0.5l-19 -42q-7 -16 -14.5 -35t-14 -39t-10.5 -39.5t-5 -35.5q-2 -49 52 -49q6 0 15.5 1.5t12.5 1.5q7 0 7 -5q-1 -2 -2.5 -4t-9.5 -2q-7 0 -23 0.5t-34 0.5t-34.5 0.5t-22.5 0.5q-5 0 -15 -0.5t-22 -0.5t-23.5 -0.5
t-20.5 -0.5q-8 0 -6 5q0 4 6 4h4q37 0 74 60q20 32 40.5 71.5t34.5 70.5l201 434q-10 25 -22 32t-40 7q-6 0 -6 4.5t6 4.5q11 0 28 -0.5t34 -0.5t31.5 -0.5t20.5 -0.5h241q30 0 67.5 0.5t73.5 0.5t65 0.5t43 0.5h8t0 -0.5t-2 -1.5t1 -2q4 -2 11 -52.5l18 -131.5l4 -36
q2 -5 -3 -5t-7 5l-5 36q-14 85 -69.5 129.5t-141.5 45.5h-275q-6 0 -4 -6l84 -292h104q47 0 76.5 8.5t46 23.5t22.5 36t6 47v21q0 6 5 6t5 -6q0 -11 -1 -32.5t-1.5 -44t-1.5 -41t-1 -24.5q0 -5 1 -25t1.5 -43t1.5 -43t1 -26t-5 -6t-5 6v15q0 26 -6 47.5t-23 36.5t-46.5 23.5
t-76.5 8.5h-99l32 -111q25 -88 41.5 -137.5t30 -74t26 -30.5t30.5 -6h69q43 0 78.5 17t61 45.5t41 65t20.5 74.5l6 53q1 5 6.5 4.5t4.5 -5.5l-6 -54l-11.5 -100t-8 -62t-6 -33t-5.5 -12q-2 -2 -13 -2.5t-29 -1t-41.5 -0.5h-49.5h-109q-11 0 -26 0.5l-30 1t-27 1t-18 0.5
t-21.5 -0.5t-34.5 -1l-37.5 -1t-29.5 -0.5q-6 0 -6 4.5t6 4.5h21q16 0 25.5 6.5t9.5 30.5t-11 71.5t-36 130.5zM361 620l-3 8l-172 -371l164 1h118v1z" />
    <glyph glyph-name="Ccedilla" unicode="&#xc7;" horiz-adv-x="756" 
d="M133 346q0 -77 19 -140.5t56 -109.5t90.5 -71t121.5 -25q63 0 109 19t78 54t50 84.5t24 109.5h8l-12 -233q-41 -18 -107.5 -31t-147.5 -13q-3 0 -6 0.5t-5 0.5l-41 -62q-3 -3 -0.5 -3h5.5q37 0 63 -6.5t43 -17t25 -23.5t8 -25q0 -21 -9 -45t-25.5 -45t-38.5 -35t-49 -14
q-34 0 -59 10.5t-25 27.5t10.5 29.5t27.5 12.5q13 0 24 -7t21.5 -15.5t22.5 -15.5t29 -7q20 0 33 17.5t13 37.5q0 14 -7.5 26.5t-26.5 22.5t-50 15.5t-77 5.5q-11 0 -4 10l38.5 50.5t40.5 55.5q-77 3 -143 31t-114 75t-75.5 110.5t-27.5 138.5q0 78 31 144t83.5 113
t122 73.5t146.5 26.5q31 0 66.5 -3.5t69 -9.5t63.5 -14t50 -17l12 -218h-9q-12 119 -73 185.5t-177 66.5q-68 0 -122.5 -25.5t-92.5 -71t-59 -109.5t-21 -141z" />
    <glyph glyph-name="Egrave" unicode="&#xc8;" horiz-adv-x="622" 
d="M171 365h83q47 0 76.5 8.5t46.5 23.5t23 36t6 47v21q0 6 5 6t5 -6q0 -11 -1 -32.5t-1.5 -44t-1.5 -41t-1 -24.5q0 -5 1 -25t1.5 -43t1.5 -43t1 -26t-5 -6t-5 6v15q0 26 -6 47.5t-23 36.5t-46.5 23.5t-76.5 8.5h-83v-192q0 -58 -2.5 -96t-5.5 -51q11 0 37.5 -0.5t56.5 -1
t56.5 -1t38.5 -0.5q43 0 80 17t64.5 45.5t44.5 65t22 74.5l6 53q1 5 6.5 4.5t4.5 -5.5l-6 -54l-11.5 -100t-8 -62t-6 -33t-5.5 -12q-2 -2 -13 -2.5t-29 -1t-41.5 -0.5h-49.5h-31h-38.5t-42 0.5t-41.5 0.5l-100 2l-141 -3q-8 0 -8 3.5t8 3.5q22 0 35 3t21 16t12 40t7 74
q2 26 3 62t1 76v80.5v75.5q0 92 -2 142.5t-8.5 74.5t-18 28.5t-29.5 4.5h-18q-6 0 -6 4.5t6 4.5q10 0 27 -0.5l33.5 -1t30.5 -1t20 -0.5h28t61.5 0.5t78.5 1t80 1t66.5 0.5h37.5q14 0 28 -1t19 -3q4 -2 11 -52.5l18 -131.5l4 -36q2 -5 -3 -5t-7 5l-5 36q-14 85 -69.5 130
t-141.5 46h-127q-17 0 -25 -4t-11 -27.5t-2.5 -73.5t0.5 -142v-69zM347 768q-19 20 -42.5 40t-45.5 36.5l-38.5 28.5t-21.5 17q-5 4 -8.5 8.5t-3.5 8.5q0 16 3 19q2 2 7 2.5t11 0.5q7 0 13.5 -1t10.5 -5t16 -21l28.5 -39.5t36 -46.5t39.5 -42q3 -3 3 -4q0 -4 -4 -4
q-2 0 -4 2z" />
    <glyph glyph-name="Eacute" unicode="&#xc9;" horiz-adv-x="622" 
d="M171 365h83q47 0 76.5 8.5t46.5 23.5t23 36t6 47v21q0 6 5 6t5 -6q0 -11 -1 -32.5t-1.5 -44t-1.5 -41t-1 -24.5q0 -5 1 -25t1.5 -43t1.5 -43t1 -26t-5 -6t-5 6v15q0 26 -6 47.5t-23 36.5t-46.5 23.5t-76.5 8.5h-83v-192q0 -58 -2.5 -96t-5.5 -51q11 0 37.5 -0.5t56.5 -1
t56.5 -1t38.5 -0.5q43 0 80 17t64.5 45.5t44.5 65t22 74.5l6 53q1 5 6.5 4.5t4.5 -5.5l-6 -54l-11.5 -100t-8 -62t-6 -33t-5.5 -12q-2 -2 -13 -2.5t-29 -1t-41.5 -0.5h-49.5h-31h-38.5t-42 0.5t-41.5 0.5l-100 2l-141 -3q-8 0 -8 3.5t8 3.5q22 0 35 3t21 16t12 40t7 74
q2 26 3 62t1 76v80.5v75.5q0 92 -2 142.5t-8.5 74.5t-18 28.5t-29.5 4.5h-18q-6 0 -6 4.5t6 4.5q10 0 27 -0.5l33.5 -1t30.5 -1t20 -0.5h28t61.5 0.5t78.5 1t80 1t66.5 0.5h37.5q14 0 28 -1t19 -3q4 -2 11 -52.5l18 -131.5l4 -36q2 -5 -3 -5t-7 5l-5 36q-14 85 -69.5 130
t-141.5 46h-127q-17 0 -25 -4t-11 -27.5t-2.5 -73.5t0.5 -142v-69zM288 768q-2 -2 -4 -2q-4 0 -4 4q0 1 3 4q19 18 39 42t36.5 46.5l28.5 39.5t16 21t10.5 5t13.5 1q6 0 11 -0.5t7 -2.5q3 -3 3 -19q0 -4 -3.5 -8.5t-8.5 -8.5q-5 -5 -21.5 -17l-38.5 -28.5t-45.5 -36.5
t-42.5 -40z" />
    <glyph glyph-name="Ecircumflex" unicode="&#xca;" horiz-adv-x="622" 
d="M171 365h83q47 0 76.5 8.5t46.5 23.5t23 36t6 47v21q0 6 5 6t5 -6q0 -11 -1 -32.5t-1.5 -44t-1.5 -41t-1 -24.5q0 -5 1 -25t1.5 -43t1.5 -43t1 -26t-5 -6t-5 6v15q0 26 -6 47.5t-23 36.5t-46.5 23.5t-76.5 8.5h-83v-192q0 -58 -2.5 -96t-5.5 -51q11 0 37.5 -0.5t56.5 -1
t56.5 -1t38.5 -0.5q43 0 80 17t64.5 45.5t44.5 65t22 74.5l6 53q1 5 6.5 4.5t4.5 -5.5l-6 -54l-11.5 -100t-8 -62t-6 -33t-5.5 -12q-2 -2 -13 -2.5t-29 -1t-41.5 -0.5h-49.5h-31h-38.5t-42 0.5t-41.5 0.5l-100 2l-141 -3q-8 0 -8 3.5t8 3.5q22 0 35 3t21 16t12 40t7 74
q2 26 3 62t1 76v80.5v75.5q0 92 -2 142.5t-8.5 74.5t-18 28.5t-29.5 4.5h-18q-6 0 -6 4.5t6 4.5q10 0 27 -0.5l33.5 -1t30.5 -1t20 -0.5h28t61.5 0.5t78.5 1t80 1t66.5 0.5h37.5q14 0 28 -1t19 -3q4 -2 11 -52.5l18 -131.5l4 -36q2 -5 -3 -5t-7 5l-5 36q-14 85 -69.5 130
t-141.5 46h-127q-17 0 -25 -4t-11 -27.5t-2.5 -73.5t0.5 -142v-69zM310 912q-4 4 -7 0l-82 -122q-6 -8 -13 -13.5t-21 -5.5q-10 0 -15 4.5t-5 9.5q0 3 2.5 9t15.5 20q9 10 22.5 23l29 27l32 29t33.5 28q4 4 9 0l67.5 -52.5l53.5 -44.5q12 -11 16 -17.5t4 -11.5
q0 -6 -6 -13.5t-17 -7.5q-13 0 -21 6.5t-14 14.5l-37.5 52.5z" />
    <glyph glyph-name="Edieresis" unicode="&#xcb;" horiz-adv-x="622" 
d="M171 365h83q47 0 76.5 8.5t46.5 23.5t23 36t6 47v21q0 6 5 6t5 -6q0 -11 -1 -32.5t-1.5 -44t-1.5 -41t-1 -24.5q0 -5 1 -25t1.5 -43t1.5 -43t1 -26t-5 -6t-5 6v15q0 26 -6 47.5t-23 36.5t-46.5 23.5t-76.5 8.5h-83v-192q0 -58 -2.5 -96t-5.5 -51q11 0 37.5 -0.5t56.5 -1
t56.5 -1t38.5 -0.5q43 0 80 17t64.5 45.5t44.5 65t22 74.5l6 53q1 5 6.5 4.5t4.5 -5.5l-6 -54l-11.5 -100t-8 -62t-6 -33t-5.5 -12q-2 -2 -13 -2.5t-29 -1t-41.5 -0.5h-49.5h-31h-38.5t-42 0.5t-41.5 0.5l-100 2l-141 -3q-8 0 -8 3.5t8 3.5q22 0 35 3t21 16t12 40t7 74
q2 26 3 62t1 76v80.5v75.5q0 92 -2 142.5t-8.5 74.5t-18 28.5t-29.5 4.5h-18q-6 0 -6 4.5t6 4.5q10 0 27 -0.5l33.5 -1t30.5 -1t20 -0.5h28t61.5 0.5t78.5 1t80 1t66.5 0.5h37.5q14 0 28 -1t19 -3q4 -2 11 -52.5l18 -131.5l4 -36q2 -5 -3 -5t-7 5l-5 36q-14 85 -69.5 130
t-141.5 46h-127q-17 0 -25 -4t-11 -27.5t-2.5 -73.5t0.5 -142v-69zM168 830q0 20 14.5 35t34.5 15t35 -15t15 -35t-15 -34.5t-35 -14.5t-34.5 14.5t-14.5 34.5zM366 830q0 20 14.5 35t34.5 15t35 -15t15 -35t-15 -34.5t-35 -14.5t-34.5 14.5t-14.5 34.5z" />
    <glyph glyph-name="Igrave" unicode="&#xcc;" horiz-adv-x="281" 
d="M102 434q0 92 -1.5 142.5t-7 74.5t-16.5 28.5t-29 4.5h-21q-6 0 -6 4.5t6 4.5q10 0 27.5 -0.5l35 -1t32 -1t19.5 -0.5q6 0 20 0.5t31.5 1l34 1t27.5 0.5q6 0 6 -4.5t-6 -4.5h-21q-18 0 -29 -4.5t-16.5 -28.5t-7 -74.5t-1.5 -142.5v-175q0 -92 1.5 -142.5t7 -74.5
t16.5 -28.5t29 -4.5h21q6 0 6 -4.5t-6 -4.5q-11 0 -27.5 0.5l-34 1t-31.5 1t-20 0.5q-5 0 -19.5 -0.5t-32 -1l-35 -1t-27.5 -0.5q-6 0 -6 4.5t6 4.5h21q18 0 29 4.5t16.5 28.5t7 74.5t1.5 142.5v175zM147 768q-19 20 -42.5 40t-45.5 36.5l-38.5 28.5t-21.5 17q-5 4 -8.5 8.5
t-3.5 8.5q0 16 3 19q2 2 7 2.5t11 0.5q7 0 13.5 -1t10.5 -5t16 -21l28.5 -39.5t36 -46.5t39.5 -42q3 -3 3 -4q0 -4 -4 -4q-2 0 -4 2z" />
    <glyph glyph-name="Iacute" unicode="&#xcd;" horiz-adv-x="281" 
d="M102 434q0 92 -1.5 142.5t-7 74.5t-16.5 28.5t-29 4.5h-21q-6 0 -6 4.5t6 4.5q10 0 27.5 -0.5l35 -1t32 -1t19.5 -0.5q6 0 20 0.5t31.5 1l34 1t27.5 0.5q6 0 6 -4.5t-6 -4.5h-21q-18 0 -29 -4.5t-16.5 -28.5t-7 -74.5t-1.5 -142.5v-175q0 -92 1.5 -142.5t7 -74.5
t16.5 -28.5t29 -4.5h21q6 0 6 -4.5t-6 -4.5q-11 0 -27.5 0.5l-34 1t-31.5 1t-20 0.5q-5 0 -19.5 -0.5t-32 -1l-35 -1t-27.5 -0.5q-6 0 -6 4.5t6 4.5h21q18 0 29 4.5t16.5 28.5t7 74.5t1.5 142.5v175zM125 768q-2 -2 -4 -2q-4 0 -4 4q0 1 3 4q19 18 39 42t36.5 46.5
l28.5 39.5t16 21t10.5 5t13.5 1q6 0 11 -0.5t7 -2.5q3 -3 3 -19q0 -4 -3.5 -8.5t-8.5 -8.5q-5 -5 -21.5 -17l-38.5 -28.5t-45.5 -36.5t-42.5 -40z" />
    <glyph glyph-name="Icircumflex" unicode="&#xce;" horiz-adv-x="281" 
d="M102 434q0 92 -1.5 142.5t-7 74.5t-16.5 28.5t-29 4.5h-21q-6 0 -6 4.5t6 4.5q10 0 27.5 -0.5l35 -1t32 -1t19.5 -0.5q6 0 20 0.5t31.5 1l34 1t27.5 0.5q6 0 6 -4.5t-6 -4.5h-21q-18 0 -29 -4.5t-16.5 -28.5t-7 -74.5t-1.5 -142.5v-175q0 -92 1.5 -142.5t7 -74.5
t16.5 -28.5t29 -4.5h21q6 0 6 -4.5t-6 -4.5q-11 0 -27.5 0.5l-34 1t-31.5 1t-20 0.5q-5 0 -19.5 -0.5t-32 -1l-35 -1t-27.5 -0.5q-6 0 -6 4.5t6 4.5h21q18 0 29 4.5t16.5 28.5t7 74.5t1.5 142.5v175zM141 912q-4 4 -7 0l-82 -122q-6 -8 -13 -13.5t-21 -5.5q-10 0 -15 4.5
t-5 9.5q0 3 2.5 9t15.5 20q9 10 22.5 23l29 27l32 29t33.5 28q4 4 9 0l67.5 -52.5l53.5 -44.5q12 -11 16 -17.5t4 -11.5q0 -6 -6 -13.5t-17 -7.5q-13 0 -21 6.5t-14 14.5l-37.5 52.5z" />
    <glyph glyph-name="Idieresis" unicode="&#xcf;" horiz-adv-x="281" 
d="M102 434q0 92 -1.5 142.5t-7 74.5t-16.5 28.5t-29 4.5h-21q-6 0 -6 4.5t6 4.5q10 0 27.5 -0.5l35 -1t32 -1t19.5 -0.5q6 0 20 0.5t31.5 1l34 1t27.5 0.5q6 0 6 -4.5t-6 -4.5h-21q-18 0 -29 -4.5t-16.5 -28.5t-7 -74.5t-1.5 -142.5v-175q0 -92 1.5 -142.5t7 -74.5
t16.5 -28.5t29 -4.5h21q6 0 6 -4.5t-6 -4.5q-11 0 -27.5 0.5l-34 1t-31.5 1t-20 0.5q-5 0 -19.5 -0.5t-32 -1l-35 -1t-27.5 -0.5q-6 0 -6 4.5t6 4.5h21q18 0 29 4.5t16.5 28.5t7 74.5t1.5 142.5v175zM192 830q0 20 14.5 35t34.5 15t35 -15t15 -35t-15 -34.5t-35 -14.5
t-34.5 14.5t-14.5 34.5zM-6 830q0 20 14.5 35t34.5 15t35 -15t15 -35t-15 -34.5t-35 -14.5t-34.5 14.5t-14.5 34.5z" />
    <glyph glyph-name="Eth" unicode="&#xd0;" horiz-adv-x="733" 
d="M690 346q0 -77 -29 -140.5t-79.5 -109.5t-119.5 -71t-150 -25h-38.5t-51.5 1l-65 2l-141 -3q-8 0 -8 3.5t8 3.5q22 0 35 3t21 16t12 40t7 74q1 16 1.5 36.5t0.5 43v45.5v44q-11 0 -21.5 -0.5t-22.5 -0.5q-25 -1 -30 -0.5t-5 2.5q0 5 12 17.5t34 33.5q5 0 13 -0.5t19 -0.5
v33q0 17 -0.5 43l-1 54l-1 55t-0.5 48q0 34 -1.5 52.5t-7.5 27t-19.5 10t-37.5 1.5q-6 0 -6 4.5t6 4.5q3 0 20.5 -0.5t38 -0.5t39 -0.5t24.5 -0.5t28 0.5t48.5 0.5t51 0.5t35.5 0.5q77 0 146.5 -25t122 -70.5t83 -109.5t30.5 -142zM601 346q0 77 -21 139.5t-59.5 106.5
t-93 68t-121.5 24h-66q-26 0 -39.5 -4.5t-20.5 -28.5t-8 -74.5t-1 -142.5v-74h60.5t62.5 1q25 1 30 1t5 -2q0 -5 -12 -17.5t-34 -33.5h-18.5t-28 0.5t-32.5 0.5h-33v-149q0 -58 -2.5 -96t-5.5 -51q9 0 27.5 -0.5t40 -1.5t44 -1.5t39.5 -0.5q68 0 121.5 23.5t90 67.5t56 106
t19.5 139z" />
    <glyph glyph-name="Ntilde" unicode="&#xd1;" horiz-adv-x="716" 
d="M-1 685q-5 0 -5 4t5 4q78 0 111 2t38 2q7 0 10 -6q5 -10 16 -24.5t23 -28.5l416 -517v313q0 92 -11 142.5t-28 74.5t-37 28.5t-38 4.5h-14q-6 0 -6 4.5t6 4.5q11 0 31 -0.5l41 -1t38.5 -1t23.5 -0.5q11 0 33.5 1.5t44.5 1.5q6 0 6 -4.5t-6 -4.5h-7q-18 0 -30.5 -4.5
t-20 -28.5t-10.5 -74.5t-3 -142.5v-427q0 -10 -8 -10q-5 0 -12 7t-13 15l-482 601l-1 -361q0 -92 9.5 -142.5t24.5 -74.5t34 -28.5t37 -4.5h14q5 0 5 -4.5t-5 -4.5h-31t-40.5 1t-37.5 1.5t-23 0.5q-11 0 -35.5 -1.5t-45.5 -1.5q-5 0 -5.5 4.5t6.5 4.5h6q17 0 30.5 6t23 30.5
t15 74.5t5.5 139l1 359q0 5 -3.5 13.5t-12.5 17.5q-17 17 -35 26.5t-44 9.5h-4zM207 787q39 50 58.5 71.5t37.5 21.5q16 0 36.5 -9t41 -20.5t39.5 -20.5t33 -9q7 0 11.5 1t10.5 6t14.5 16.5l22.5 31.5q5 5 8.5 3.5t-1.5 -8.5q-32 -48 -56 -74t-48 -26q-15 0 -35 10t-40 21.5
l-39 21.5t-34 10q-4 0 -7.5 -1.5t-9 -7t-14 -15.5t-22.5 -28q-6 -7 -8.5 -4.5t1.5 9.5z" />
    <glyph glyph-name="Ograve" unicode="&#xd2;" horiz-adv-x="794" 
d="M43 346q0 78 29 144t78 113t113 73.5t135 26.5q70 0 134 -27t112.5 -74.5t77 -113t28.5 -142.5t-29.5 -142t-79 -112.5t-114.5 -74.5t-135 -27q-71 0 -134 27t-111 74.5t-76 112.5t-28 142zM133 346q0 -77 17 -140.5t49.5 -109.5t80 -71t108.5 -25t111.5 25t86.5 71
t55.5 109.5t19.5 140.5t-17.5 141t-51 109.5t-81.5 71t-109 25.5q-62 0 -111.5 -25.5t-84.5 -71t-54 -109.5t-19 -141zM443 758q-19 20 -42.5 40t-45.5 36.5l-38.5 28.5t-21.5 17q-5 4 -8.5 8.5t-3.5 8.5q0 16 3 19q2 2 7 2.5t11 0.5q7 0 13.5 -1t10.5 -5t16 -21l28.5 -39.5
t36 -46.5t39.5 -42q3 -3 3 -4q0 -4 -4 -4q-2 0 -4 2z" />
    <glyph glyph-name="Oacute" unicode="&#xd3;" horiz-adv-x="794" 
d="M43 346q0 78 29 144t78 113t113 73.5t135 26.5q70 0 134 -27t112.5 -74.5t77 -113t28.5 -142.5t-29.5 -142t-79 -112.5t-114.5 -74.5t-135 -27q-71 0 -134 27t-111 74.5t-76 112.5t-28 142zM133 346q0 -77 17 -140.5t49.5 -109.5t80 -71t108.5 -25t111.5 25t86.5 71
t55.5 109.5t19.5 140.5t-17.5 141t-51 109.5t-81.5 71t-109 25.5q-62 0 -111.5 -25.5t-84.5 -71t-54 -109.5t-19 -141zM341 758q-2 -2 -4 -2q-4 0 -4 4q0 1 3 4q19 18 39 42t36.5 46.5l28.5 39.5t16 21t10.5 5t13.5 1q6 0 11 -0.5t7 -2.5q3 -3 3 -19q0 -4 -3.5 -8.5
t-8.5 -8.5q-5 -5 -21.5 -17l-38.5 -28.5t-45.5 -36.5t-42.5 -40z" />
    <glyph glyph-name="Ocircumflex" unicode="&#xd4;" horiz-adv-x="794" 
d="M43 346q0 78 29 144t78 113t113 73.5t135 26.5q70 0 134 -27t112.5 -74.5t77 -113t28.5 -142.5t-29.5 -142t-79 -112.5t-114.5 -74.5t-135 -27q-71 0 -134 27t-111 74.5t-76 112.5t-28 142zM133 346q0 -77 17 -140.5t49.5 -109.5t80 -71t108.5 -25t111.5 25t86.5 71
t55.5 109.5t19.5 140.5t-17.5 141t-51 109.5t-81.5 71t-109 25.5q-62 0 -111.5 -25.5t-84.5 -71t-54 -109.5t-19 -141zM405 912q-4 4 -7 0l-82 -122q-6 -8 -13 -13.5t-21 -5.5q-10 0 -15 4.5t-5 9.5q0 3 2.5 9t15.5 20q9 10 22.5 23l29 27l32 29t33.5 28q4 4 9 0l67.5 -52.5
l53.5 -44.5q12 -11 16 -17.5t4 -11.5q0 -6 -6 -13.5t-17 -7.5q-13 0 -21 6.5t-14 14.5l-37.5 52.5z" />
    <glyph glyph-name="Otilde" unicode="&#xd5;" horiz-adv-x="794" 
d="M43 346q0 78 29 144t78 113t113 73.5t135 26.5q70 0 134 -27t112.5 -74.5t77 -113t28.5 -142.5t-29.5 -142t-79 -112.5t-114.5 -74.5t-135 -27q-71 0 -134 27t-111 74.5t-76 112.5t-28 142zM133 346q0 -77 17 -140.5t49.5 -109.5t80 -71t108.5 -25t111.5 25t86.5 71
t55.5 109.5t19.5 140.5t-17.5 141t-51 109.5t-81.5 71t-109 25.5q-62 0 -111.5 -25.5t-84.5 -71t-54 -109.5t-19 -141zM253 792q39 50 58.5 71.5t37.5 21.5q16 0 36.5 -9t41 -20.5t39.5 -20.5t33 -9q7 0 11.5 1t10.5 6t14.5 16.5l22.5 31.5q5 5 8.5 3.5t-1.5 -8.5
q-32 -48 -56 -74t-48 -26q-15 0 -35 10t-40 21.5l-39 21.5t-34 10q-4 0 -7.5 -1.5t-9 -7t-14 -15.5t-22.5 -28q-6 -7 -8.5 -4.5t1.5 9.5z" />
    <glyph glyph-name="Odieresis" unicode="&#xd6;" horiz-adv-x="794" 
d="M43 346q0 78 29 144t78 113t113 73.5t135 26.5q70 0 134 -27t112.5 -74.5t77 -113t28.5 -142.5t-29.5 -142t-79 -112.5t-114.5 -74.5t-135 -27q-71 0 -134 27t-111 74.5t-76 112.5t-28 142zM133 346q0 -77 17 -140.5t49.5 -109.5t80 -71t108.5 -25t111.5 25t86.5 71
t55.5 109.5t19.5 140.5t-17.5 141t-51 109.5t-81.5 71t-109 25.5q-62 0 -111.5 -25.5t-84.5 -71t-54 -109.5t-19 -141zM454 830q0 20 14.5 35t34.5 15t35 -15t15 -35t-15 -34.5t-35 -14.5t-34.5 14.5t-14.5 34.5zM256 830q0 20 14.5 35t34.5 15t35 -15t15 -35t-15 -34.5
t-35 -14.5t-34.5 14.5t-14.5 34.5z" />
    <glyph glyph-name="multiply" unicode="&#xd7;" 
d="M139 93q-8 1 -14 7.5t-9 11.5q36 29 73 63l79 76q-41 41 -75.5 71.5l-68.5 59.5q-1 5 5 11.5t11 9.5q29 -37 62 -70l74 -74l1 1q44 44 78 82l59 65q7 0 12 -5t8 -10q-34 -24 -69 -60l-79 -80l-1 -1q44 -44 80.5 -76.5t65.5 -55.5q0 -7 -6.5 -12t-11.5 -8
q-24 33 -58.5 66.5l-77.5 77.5l-76.5 -78t-61.5 -72z" />
    <glyph glyph-name="Oslash" unicode="&#xd8;" horiz-adv-x="794" 
d="M43 346q0 78 29 144t78 113t113 73.5t135 26.5q49 0 94 -13t86 -37l105 173q13 1 16 -0.5t11 -8.5l-56 -81.5l-61 -92.5q70 -47 113.5 -123.5t43.5 -173.5q0 -77 -29.5 -142t-79 -112.5t-114.5 -74.5t-135 -27q-48 0 -93 13t-84 36l-56.5 -93l-53.5 -90q-14 -2 -17 -2
t-11 8l61 91.5l62 94.5q-71 47 -114 124t-43 174zM133 346q0 -88 21 -157t63 -115l86 134.5l82 129.5l178 292q-32 30 -72 46.5t-89 16.5q-62 0 -111.5 -25.5t-84.5 -71t-54 -109.5t-19 -141zM397 332l-82.5 -132l-85.5 -138q31 -30 70.5 -46t88.5 -16q61 0 111.5 25
t86.5 71t55.5 109.5t19.5 140.5q0 87 -21.5 156t-63.5 115l-94 -147.5z" />
    <glyph glyph-name="Ugrave" unicode="&#xd9;" horiz-adv-x="665" 
d="M567 434q0 92 -10.5 142.5t-27 74.5t-36.5 28.5t-38 4.5h-9q-6 0 -6 4.5t6 4.5q11 0 30 -0.5l38.5 -1t36 -1t22.5 -0.5q11 0 35 1.5t45 1.5q6 0 6 -4.5t-6 -4.5h-7q-18 0 -30.5 -4.5t-20 -28.5t-11 -74.5t-3.5 -142.5v-190q0 -50 -17 -96t-49.5 -81t-80 -56t-107.5 -21
q-54 0 -98.5 18t-75.5 51.5t-48 82t-17 110.5v182q0 92 -1.5 142.5t-7 74.5t-16 28.5t-28.5 4.5h-14q-6 0 -6 4.5t6 4.5q10 0 26 -0.5l32 -1t29 -1t19 -0.5q5 0 19 0.5t30.5 1l33 1t27.5 0.5q6 0 6 -4.5t-6 -4.5h-18q-18 0 -29 -4.5t-16.5 -28.5t-7.5 -74.5t-2 -142.5
l-1 -155q0 -122 57.5 -189.5t156.5 -67.5q40 0 75 17t60.5 47t40 70.5t14.5 87.5v190zM389 754q-19 20 -42.5 40t-45.5 36.5l-38.5 28.5t-21.5 17q-5 4 -8.5 8.5t-3.5 8.5q0 16 3 19q2 2 7 2.5t11 0.5q7 0 13.5 -1t10.5 -5t16 -21l28.5 -39.5t36 -46.5t39.5 -42q3 -3 3 -4
q0 -4 -4 -4q-2 0 -4 2z" />
    <glyph glyph-name="Uacute" unicode="&#xda;" horiz-adv-x="665" 
d="M567 434q0 92 -10.5 142.5t-27 74.5t-36.5 28.5t-38 4.5h-9q-6 0 -6 4.5t6 4.5q11 0 30 -0.5l38.5 -1t36 -1t22.5 -0.5q11 0 35 1.5t45 1.5q6 0 6 -4.5t-6 -4.5h-7q-18 0 -30.5 -4.5t-20 -28.5t-11 -74.5t-3.5 -142.5v-190q0 -50 -17 -96t-49.5 -81t-80 -56t-107.5 -21
q-54 0 -98.5 18t-75.5 51.5t-48 82t-17 110.5v182q0 92 -1.5 142.5t-7 74.5t-16 28.5t-28.5 4.5h-14q-6 0 -6 4.5t6 4.5q10 0 26 -0.5l32 -1t29 -1t19 -0.5q5 0 19 0.5t30.5 1l33 1t27.5 0.5q6 0 6 -4.5t-6 -4.5h-18q-18 0 -29 -4.5t-16.5 -28.5t-7.5 -74.5t-2 -142.5
l-1 -155q0 -122 57.5 -189.5t156.5 -67.5q40 0 75 17t60.5 47t40 70.5t14.5 87.5v190zM288 753q-2 -2 -4 -2q-4 0 -4 4q0 1 3 4q19 18 39 42t36.5 46.5l28.5 39.5t16 21t10.5 5t13.5 1q6 0 11 -0.5t7 -2.5q3 -3 3 -19q0 -4 -3.5 -8.5t-8.5 -8.5q-5 -5 -21.5 -17l-38.5 -28.5
t-45.5 -36.5t-42.5 -40z" />
    <glyph glyph-name="Ucircumflex" unicode="&#xdb;" horiz-adv-x="665" 
d="M567 434q0 92 -10.5 142.5t-27 74.5t-36.5 28.5t-38 4.5h-9q-6 0 -6 4.5t6 4.5q11 0 30 -0.5l38.5 -1t36 -1t22.5 -0.5q11 0 35 1.5t45 1.5q6 0 6 -4.5t-6 -4.5h-7q-18 0 -30.5 -4.5t-20 -28.5t-11 -74.5t-3.5 -142.5v-190q0 -50 -17 -96t-49.5 -81t-80 -56t-107.5 -21
q-54 0 -98.5 18t-75.5 51.5t-48 82t-17 110.5v182q0 92 -1.5 142.5t-7 74.5t-16 28.5t-28.5 4.5h-14q-6 0 -6 4.5t6 4.5q10 0 26 -0.5l32 -1t29 -1t19 -0.5q5 0 19 0.5t30.5 1l33 1t27.5 0.5q6 0 6 -4.5t-6 -4.5h-18q-18 0 -29 -4.5t-16.5 -28.5t-7.5 -74.5t-2 -142.5
l-1 -155q0 -122 57.5 -189.5t156.5 -67.5q40 0 75 17t60.5 47t40 70.5t14.5 87.5v190zM350 902q-4 4 -7 0l-82 -122q-6 -8 -13 -13.5t-21 -5.5q-10 0 -15 4.5t-5 9.5q0 3 2.5 9t15.5 20q9 10 22.5 23l29 27l32 29t33.5 28q4 4 9 0l67.5 -52.5l53.5 -44.5q12 -11 16 -17.5
t4 -11.5q0 -6 -6 -13.5t-17 -7.5q-13 0 -21 6.5t-14 14.5l-37.5 52.5z" />
    <glyph glyph-name="Udieresis" unicode="&#xdc;" horiz-adv-x="665" 
d="M567 434q0 92 -10.5 142.5t-27 74.5t-36.5 28.5t-38 4.5h-9q-6 0 -6 4.5t6 4.5q11 0 30 -0.5l38.5 -1t36 -1t22.5 -0.5q11 0 35 1.5t45 1.5q6 0 6 -4.5t-6 -4.5h-7q-18 0 -30.5 -4.5t-20 -28.5t-11 -74.5t-3.5 -142.5v-190q0 -50 -17 -96t-49.5 -81t-80 -56t-107.5 -21
q-54 0 -98.5 18t-75.5 51.5t-48 82t-17 110.5v182q0 92 -1.5 142.5t-7 74.5t-16 28.5t-28.5 4.5h-14q-6 0 -6 4.5t6 4.5q10 0 26 -0.5l32 -1t29 -1t19 -0.5q5 0 19 0.5t30.5 1l33 1t27.5 0.5q6 0 6 -4.5t-6 -4.5h-18q-18 0 -29 -4.5t-16.5 -28.5t-7.5 -74.5t-2 -142.5
l-1 -155q0 -122 57.5 -189.5t156.5 -67.5q40 0 75 17t60.5 47t40 70.5t14.5 87.5v190zM196 810q0 20 14.5 35t34.5 15t35 -15t15 -35t-15 -34.5t-35 -14.5t-34.5 14.5t-14.5 34.5zM394 810q0 20 14.5 35t34.5 15t35 -15t15 -35t-15 -34.5t-35 -14.5t-34.5 14.5t-14.5 34.5z
" />
    <glyph glyph-name="Yacute" unicode="&#xdd;" horiz-adv-x="615" 
d="M349 317v-58q0 -92 1.5 -142.5t7 -74.5t16.5 -28.5t29 -4.5h18q6 0 6 -4.5t-6 -4.5q-11 0 -27 0.5l-32.5 1t-30 1t-19.5 0.5q-5 0 -19 -0.5t-30.5 -1l-33.5 -1t-27 -0.5q-6 0 -6 4.5t6 4.5h18q18 0 29 4.5t16.5 28.5t7 74.5t1.5 142.5v55l-108 195l-49.5 86t-37.5 53.5
t-32.5 27.5t-34.5 8h-8q-7 0 -7 4q0 5 6 5q11 0 25.5 -0.5l29 -1t26.5 -1t18 -0.5t21.5 0.5t34 1l36.5 1t29 0.5q6 0 7.5 -4.5t-4.5 -4.5h-21q-19 0 -25 -9t-0.5 -30t22.5 -55.5t45 -85.5l95 -175l106 183q9 15 21.5 43.5t17.5 57.5t-5 50.5t-46 21.5q-6 0 -15.5 -2
t-12.5 -2q-7 0 -7 6q0 2 2 4t10 2q7 0 21.5 -0.5t31 -0.5t31.5 -0.5t21 -0.5q5 0 19 0.5t31 0.5t33.5 0.5t25.5 0.5q6 0 4.5 -4.5t-6.5 -4.5h-2q-21 0 -46.5 -22t-49 -51.5t-42 -58.5t-26.5 -43zM270 748q-2 -2 -4 -2q-4 0 -4 4q0 1 3 4q19 18 39 42t36.5 46.5l28.5 39.5
t16 21t10.5 5t13.5 1q6 0 11 -0.5t7 -2.5q3 -3 3 -19q0 -4 -3.5 -8.5t-8.5 -8.5q-5 -5 -21.5 -17l-38.5 -28.5t-45.5 -36.5t-42.5 -40z" />
    <glyph glyph-name="Thorn" unicode="&#xde;" horiz-adv-x="606" 
d="M95 434q0 92 -1.5 142.5t-7 74.5t-16.5 28.5t-29 4.5h-21q-6 0 -6 4.5t6 4.5q10 0 27.5 -0.5l35 -1t32 -1t19.5 -0.5q6 0 20 0.5t31.5 1l34 1t27.5 0.5q6 0 6 -4.5t-6 -4.5h-21q-15 0 -25 -2.5t-16 -16t-9 -41.5t-4 -79h142q61 0 109.5 -12.5t83 -37.5t53 -61t18.5 -82
t-19 -84t-53 -65t-81.5 -41.5t-104.5 -14.5q-37 1 -74 0.5t-74 -0.5q1 -51 4 -78.5t9 -41t16 -16t25 -2.5h21q6 0 6 -4.5t-6 -4.5q-11 0 -27.5 0.5l-34 1t-31.5 1t-20 0.5q-5 0 -19.5 -0.5t-32 -1l-35 -1t-27.5 -0.5q-6 0 -6 4.5t6 4.5h21q18 0 29 4.5t16.5 28.5t7 74.5
t1.5 142.5v175zM298 157q94 0 144 52.5t50 143.5q0 182 -193 182h-127v-378h126z" />
    <glyph glyph-name="germandbls" unicode="&#xdf;" horiz-adv-x="554" 
d="M18 0q-6 0 -6 4.5t6 4.5q21 0 33 3.5t17.5 14t6.5 30.5t1 53q-1 90 -1 161v164v10h-58q-14 0 -14 6l36 49h44q14 57 47.5 108t75 88.5t84.5 59.5t75 22q51 0 80 -28.5t29 -68.5q0 -33 -22.5 -63t-49 -61.5t-49 -66t-22.5 -75.5q0 -35 14.5 -59.5t37 -43.5t48 -35t48 -35
t37 -44t14.5 -61q0 -28 -11.5 -53.5t-31 -44.5t-44 -30.5t-49.5 -11.5q-77 0 -108.5 24t-31.5 55q0 22 14 33t28 11q18 0 27.5 -12t11.5 -39q2 -26 14 -45.5t46 -19.5q38 0 60.5 23.5t22.5 67.5q0 32 -14.5 54.5t-36 40t-46.5 33t-46.5 34t-36 43t-14.5 60.5q0 38 20.5 73.5
t44.5 70t44.5 68.5t20.5 69q0 37 -28.5 59.5t-78.5 22.5q-72 0 -114.5 -54.5t-42.5 -175.5v-200q0 -82 1 -183q0 -37 2 -57.5t8.5 -30t19 -11.5t34.5 -2q6 0 6 -4.5t-6 -4.5q-11 0 -26 0.5t-29.5 0.5t-26.5 0.5t-18 0.5t-17.5 -0.5t-25.5 -0.5t-28.5 -0.5t-25.5 -0.5z" />
    <glyph glyph-name="agrave" unicode="&#xe0;" horiz-adv-x="514" 
d="M156 -11q-60 0 -92 33t-32 79q0 25 13 50t42.5 50.5t77.5 51.5t117 53l83 32q-2 47 -8.5 78.5t-19.5 50t-32.5 26.5t-46.5 8q-33 0 -54 -13t-35 -30.5t-23 -36.5t-17 -31q-7 -10 -16 -14t-29 -4q-18 0 -29 6t-11 17q0 9 8 22t27 25q15 10 37.5 21.5t48.5 22t54 17.5t55 7
q37 0 68 -10t53.5 -32t35 -56.5t12.5 -83.5q0 -25 -1.5 -57l-3 -63t-2.5 -57.5t-1 -41.5q0 -43 6 -64t22 -21q7 0 14.5 6t15 14t14 17.5t10.5 17.5q4 6 10 2t2 -10q-6 -9 -19.5 -22.5t-30.5 -26.5t-35 -22.5t-33 -9.5q-29 0 -43 18.5t-14 52.5q0 20 1 43t3 39
q-10 -17 -33 -43.5t-52 -51t-60 -42t-57 -17.5zM102 130q0 -20 9.5 -38t24.5 -31t33.5 -20.5t36.5 -7.5q21 0 46.5 16t48 38t39.5 44.5t20 34.5q1 10 3.5 46t2.5 98v21l-82 -35q-55 -23 -90.5 -41.5t-55.5 -37t-28 -39t-8 -48.5zM340 559q-19 20 -42.5 40t-45.5 36.5
l-38.5 28.5t-21.5 17q-5 4 -8.5 8.5t-3.5 8.5q0 16 3 19q2 2 7 2.5t11 0.5q7 0 13.5 -1t10.5 -5t16 -21l28.5 -39.5t36 -46.5t39.5 -42q3 -3 3 -4q0 -4 -4 -4q-2 0 -4 2z" />
    <glyph glyph-name="aacute" unicode="&#xe1;" horiz-adv-x="514" 
d="M156 -11q-60 0 -92 33t-32 79q0 25 13 50t42.5 50.5t77.5 51.5t117 53l83 32q-2 47 -8.5 78.5t-19.5 50t-32.5 26.5t-46.5 8q-33 0 -54 -13t-35 -30.5t-23 -36.5t-17 -31q-7 -10 -16 -14t-29 -4q-18 0 -29 6t-11 17q0 9 8 22t27 25q15 10 37.5 21.5t48.5 22t54 17.5t55 7
q37 0 68 -10t53.5 -32t35 -56.5t12.5 -83.5q0 -25 -1.5 -57l-3 -63t-2.5 -57.5t-1 -41.5q0 -43 6 -64t22 -21q7 0 14.5 6t15 14t14 17.5t10.5 17.5q4 6 10 2t2 -10q-6 -9 -19.5 -22.5t-30.5 -26.5t-35 -22.5t-33 -9.5q-29 0 -43 18.5t-14 52.5q0 20 1 43t3 39
q-10 -17 -33 -43.5t-52 -51t-60 -42t-57 -17.5zM102 130q0 -20 9.5 -38t24.5 -31t33.5 -20.5t36.5 -7.5q21 0 46.5 16t48 38t39.5 44.5t20 34.5q1 10 3.5 46t2.5 98v21l-82 -35q-55 -23 -90.5 -41.5t-55.5 -37t-28 -39t-8 -48.5zM226 559q-2 -2 -4 -2q-4 0 -4 4q0 1 3 4
q19 18 39 42t36.5 46.5l28.5 39.5t16 21t10.5 5t13.5 1q6 0 11 -0.5t7 -2.5q3 -3 3 -19q0 -4 -3.5 -8.5t-8.5 -8.5q-5 -5 -21.5 -17l-38.5 -28.5t-45.5 -36.5t-42.5 -40z" />
    <glyph glyph-name="acircumflex" unicode="&#xe2;" horiz-adv-x="514" 
d="M156 -11q-60 0 -92 33t-32 79q0 25 13 50t42.5 50.5t77.5 51.5t117 53l83 32q-2 47 -8.5 78.5t-19.5 50t-32.5 26.5t-46.5 8q-33 0 -54 -13t-35 -30.5t-23 -36.5t-17 -31q-7 -10 -16 -14t-29 -4q-18 0 -29 6t-11 17q0 9 8 22t27 25q15 10 37.5 21.5t48.5 22t54 17.5t55 7
q37 0 68 -10t53.5 -32t35 -56.5t12.5 -83.5q0 -25 -1.5 -57l-3 -63t-2.5 -57.5t-1 -41.5q0 -43 6 -64t22 -21q7 0 14.5 6t15 14t14 17.5t10.5 17.5q4 6 10 2t2 -10q-6 -9 -19.5 -22.5t-30.5 -26.5t-35 -22.5t-33 -9.5q-29 0 -43 18.5t-14 52.5q0 20 1 43t3 39
q-10 -17 -33 -43.5t-52 -51t-60 -42t-57 -17.5zM102 130q0 -20 9.5 -38t24.5 -31t33.5 -20.5t36.5 -7.5q21 0 46.5 16t48 38t39.5 44.5t20 34.5q1 10 3.5 46t2.5 98v21l-82 -35q-55 -23 -90.5 -41.5t-55.5 -37t-28 -39t-8 -48.5zM266 718q-4 4 -7 0l-82 -122
q-6 -8 -13 -13.5t-21 -5.5q-10 0 -15 4.5t-5 9.5q0 3 2.5 9t15.5 20q9 10 22.5 23l29 27l32 29t33.5 28q4 4 9 0l67.5 -52.5l53.5 -44.5q12 -11 16 -17.5t4 -11.5q0 -6 -6 -13.5t-17 -7.5q-13 0 -21 6.5t-14 14.5l-37.5 52.5z" />
    <glyph glyph-name="atilde" unicode="&#xe3;" horiz-adv-x="514" 
d="M156 -11q-60 0 -92 33t-32 79q0 25 13 50t42.5 50.5t77.5 51.5t117 53l83 32q-2 47 -8.5 78.5t-19.5 50t-32.5 26.5t-46.5 8q-33 0 -54 -13t-35 -30.5t-23 -36.5t-17 -31q-7 -10 -16 -14t-29 -4q-18 0 -29 6t-11 17q0 9 8 22t27 25q15 10 37.5 21.5t48.5 22t54 17.5t55 7
q37 0 68 -10t53.5 -32t35 -56.5t12.5 -83.5q0 -25 -1.5 -57l-3 -63t-2.5 -57.5t-1 -41.5q0 -43 6 -64t22 -21q7 0 14.5 6t15 14t14 17.5t10.5 17.5q4 6 10 2t2 -10q-6 -9 -19.5 -22.5t-30.5 -26.5t-35 -22.5t-33 -9.5q-29 0 -43 18.5t-14 52.5q0 20 1 43t3 39
q-10 -17 -33 -43.5t-52 -51t-60 -42t-57 -17.5zM102 130q0 -20 9.5 -38t24.5 -31t33.5 -20.5t36.5 -7.5q21 0 46.5 16t48 38t39.5 44.5t20 34.5q1 10 3.5 46t2.5 98v21l-82 -35q-55 -23 -90.5 -41.5t-55.5 -37t-28 -39t-8 -48.5zM116 593q39 50 58.5 71.5t37.5 21.5
q16 0 36.5 -9t41 -20.5t39.5 -20.5t33 -9q7 0 11.5 1t10.5 6t14.5 16.5l22.5 31.5q5 5 8.5 3.5t-1.5 -8.5q-32 -48 -56 -74t-48 -26q-15 0 -35 10t-40 21.5l-39 21.5t-34 10q-4 0 -7.5 -1.5t-9 -7t-14 -15.5t-22.5 -28q-6 -7 -8.5 -4.5t1.5 9.5z" />
    <glyph glyph-name="adieresis" unicode="&#xe4;" horiz-adv-x="514" 
d="M156 -11q-60 0 -92 33t-32 79q0 25 13 50t42.5 50.5t77.5 51.5t117 53l83 32q-2 47 -8.5 78.5t-19.5 50t-32.5 26.5t-46.5 8q-33 0 -54 -13t-35 -30.5t-23 -36.5t-17 -31q-7 -10 -16 -14t-29 -4q-18 0 -29 6t-11 17q0 9 8 22t27 25q15 10 37.5 21.5t48.5 22t54 17.5t55 7
q37 0 68 -10t53.5 -32t35 -56.5t12.5 -83.5q0 -25 -1.5 -57l-3 -63t-2.5 -57.5t-1 -41.5q0 -43 6 -64t22 -21q7 0 14.5 6t15 14t14 17.5t10.5 17.5q4 6 10 2t2 -10q-6 -9 -19.5 -22.5t-30.5 -26.5t-35 -22.5t-33 -9.5q-29 0 -43 18.5t-14 52.5q0 20 1 43t3 39
q-10 -17 -33 -43.5t-52 -51t-60 -42t-57 -17.5zM102 130q0 -20 9.5 -38t24.5 -31t33.5 -20.5t36.5 -7.5q21 0 46.5 16t48 38t39.5 44.5t20 34.5q1 10 3.5 46t2.5 98v21l-82 -35q-55 -23 -90.5 -41.5t-55.5 -37t-28 -39t-8 -48.5zM314 636q0 20 14.5 35t34.5 15t35 -15
t15 -35t-15 -34.5t-35 -14.5t-34.5 14.5t-14.5 34.5zM116 636q0 20 14.5 35t34.5 15t35 -15t15 -35t-15 -34.5t-35 -14.5t-34.5 14.5t-14.5 34.5z" />
    <glyph glyph-name="aring" unicode="&#xe5;" horiz-adv-x="514" 
d="M156 -11q-60 0 -92 33t-32 79q0 25 13 50t42.5 50.5t77.5 51.5t117 53l83 32q-2 47 -8.5 78.5t-19.5 50t-32.5 26.5t-46.5 8q-33 0 -54 -13t-35 -30.5t-23 -36.5t-17 -31q-7 -10 -16 -14t-29 -4q-18 0 -29 6t-11 17q0 9 8 22t27 25q15 10 37.5 21.5t48.5 22t54 17.5t55 7
q37 0 68 -10t53.5 -32t35 -56.5t12.5 -83.5q0 -25 -1.5 -57l-3 -63t-2.5 -57.5t-1 -41.5q0 -43 6 -64t22 -21q7 0 14.5 6t15 14t14 17.5t10.5 17.5q4 6 10 2t2 -10q-6 -9 -19.5 -22.5t-30.5 -26.5t-35 -22.5t-33 -9.5q-29 0 -43 18.5t-14 52.5q0 20 1 43t3 39
q-10 -17 -33 -43.5t-52 -51t-60 -42t-57 -17.5zM102 130q0 -20 9.5 -38t24.5 -31t33.5 -20.5t36.5 -7.5q21 0 46.5 16t48 38t39.5 44.5t20 34.5q1 10 3.5 46t2.5 98v21l-82 -35q-55 -23 -90.5 -41.5t-55.5 -37t-28 -39t-8 -48.5zM195 649q0 31 21.5 52.5t52.5 21.5
t52.5 -21.5t21.5 -52.5t-21.5 -52.5t-52.5 -21.5t-52.5 21.5t-21.5 52.5zM207 649q0 -26 18 -44t44 -18t44 18t18 44t-18 44t-44 18t-44 -18t-18 -44z" />
    <glyph glyph-name="ae" unicode="&#xe6;" horiz-adv-x="864" 
d="M258 501q-33 0 -54 -13t-35 -30.5t-23 -36.5t-17 -31q-7 -10 -16 -14t-29 -4q-18 0 -29 6t-11 17q0 9 8 22t27 25q15 10 37.5 21.5t48.5 22t54 17.5t55 7q60 0 102.5 -27t58.5 -88q43 52 103 83.5t122 31.5q54 0 89 -14.5t54.5 -35.5t26 -44.5t4.5 -40.5
q-2 -13 -10.5 -22t-31.5 -9h-342q-8 -37 -8 -77q0 -46 19 -86t51.5 -69.5t76.5 -46.5t95 -17q46 0 83 13.5t67 39t54 61t45 80.5q4 9 7.5 7.5t-0.5 -9.5q-20 -46 -49 -91t-67.5 -80t-86 -57t-104.5 -22q-48 0 -89 13.5t-73 37t-55.5 56.5t-36.5 72q-9 -18 -33.5 -48.5
t-56 -59.5t-67 -50.5t-66.5 -21.5q-60 0 -92 33t-32 79q0 25 13 50t42.5 50.5t77.5 51.5t117 53l93 36q-2 46 -11 76.5t-23.5 49t-35.5 26t-47 7.5zM376 310v12t-1 12l-91 -38q-55 -23 -90.5 -41.5t-55.5 -37t-28 -39t-8 -48.5q0 -20 9.5 -38t24.5 -31t33.5 -20.5t36.5 -7.5
q24 0 51 18t51.5 42t43 49.5t24.5 40.5v127zM698 356q11 0 24.5 3.5t15.5 5.5q9 10 9 32q0 14 -7 30t-21.5 29.5t-36 22.5t-50.5 9q-65 0 -112.5 -34t-67.5 -102q42 0 77 0.5t64 1.5t55 1.5t50 0.5z" />
    <glyph glyph-name="ccedilla" unicode="&#xe7;" horiz-adv-x="542" 
d="M388 -146q0 -21 -9 -45t-25.5 -45t-38.5 -35t-49 -14q-34 0 -59 10.5t-25 27.5t10.5 29.5t27.5 12.5q13 0 24 -7t21.5 -15.5t22.5 -15.5t29 -7q20 0 33 17.5t13 37.5q0 14 -7.5 26.5t-26.5 22.5t-50 15.5t-77 5.5q-11 0 -4 10l37.5 50.5l40.5 54.5q-53 0 -97 18
t-75.5 49.5t-49 75.5t-17.5 97q0 54 24 104.5t63.5 89.5t91 62.5t106.5 23.5q37 0 67.5 -7t52.5 -17.5t34.5 -24t12.5 -26.5t-12.5 -27t-36.5 -14q-16 0 -29 14.5l-30 32.5t-41 32.5t-60 14.5q-37 0 -69.5 -14t-56.5 -41.5t-38 -67t-14 -90.5q0 -50 17 -91.5t47 -72.5
t72 -48t93 -17q71 0 121 34t88 103q3 6 7 4t1 -7q-21 -38 -49.5 -72t-62.5 -59.5t-72.5 -41t-78.5 -17.5l-41 -61q-3 -3 -0.5 -3h5.5q37 0 63 -6.5t43 -17t25 -23.5t8 -25z" />
    <glyph glyph-name="egrave" unicode="&#xe8;" horiz-adv-x="516" 
d="M285 -10q-57 0 -103.5 18t-79.5 50t-50.5 76t-17.5 96q0 56 24 107t63 89.5t89 61t102 22.5q54 0 89 -14.5t54.5 -35.5t26 -44.5t4.5 -40.5q-2 -13 -10.5 -22t-31.5 -9h-342q-8 -37 -8 -77q0 -46 19 -86t51.5 -69.5t76.5 -46.5t95 -17q46 0 83 13.5t67.5 39t55 61
t45.5 80.5q4 9 7.5 7.5t-0.5 -9.5q-20 -46 -49.5 -91t-68.5 -80t-86.5 -57t-104.5 -22zM350 356q11 0 24.5 3.5t15.5 5.5q9 10 9 32q0 14 -7 30t-21.5 29.5t-36 22.5t-50.5 9q-65 0 -112.5 -34t-67.5 -102q42 0 77 0.5t64 1.5t55 1.5t50 0.5zM379 559q-19 20 -42.5 40
t-45.5 36.5l-38.5 28.5t-21.5 17q-5 4 -8.5 8.5t-3.5 8.5q0 16 3 19q2 2 7 2.5t11 0.5q7 0 13.5 -1t10.5 -5t16 -21l28.5 -39.5t36 -46.5t39.5 -42q3 -3 3 -4q0 -4 -4 -4q-2 0 -4 2z" />
    <glyph glyph-name="eacute" unicode="&#xe9;" horiz-adv-x="516" 
d="M285 -10q-57 0 -103.5 18t-79.5 50t-50.5 76t-17.5 96q0 56 24 107t63 89.5t89 61t102 22.5q54 0 89 -14.5t54.5 -35.5t26 -44.5t4.5 -40.5q-2 -13 -10.5 -22t-31.5 -9h-342q-8 -37 -8 -77q0 -46 19 -86t51.5 -69.5t76.5 -46.5t95 -17q46 0 83 13.5t67.5 39t55 61
t45.5 80.5q4 9 7.5 7.5t-0.5 -9.5q-20 -46 -49.5 -91t-68.5 -80t-86.5 -57t-104.5 -22zM350 356q11 0 24.5 3.5t15.5 5.5q9 10 9 32q0 14 -7 30t-21.5 29.5t-36 22.5t-50.5 9q-65 0 -112.5 -34t-67.5 -102q42 0 77 0.5t64 1.5t55 1.5t50 0.5zM245 559q-2 -2 -4 -2q-4 0 -4 4
q0 1 3 4q19 18 39 42t36.5 46.5l28.5 39.5t16 21t10.5 5t13.5 1q6 0 11 -0.5t7 -2.5q3 -3 3 -19q0 -4 -3.5 -8.5t-8.5 -8.5q-5 -5 -21.5 -17l-38.5 -28.5t-45.5 -36.5t-42.5 -40z" />
    <glyph glyph-name="ecircumflex" unicode="&#xea;" horiz-adv-x="516" 
d="M285 -10q-57 0 -103.5 18t-79.5 50t-50.5 76t-17.5 96q0 56 24 107t63 89.5t89 61t102 22.5q54 0 89 -14.5t54.5 -35.5t26 -44.5t4.5 -40.5q-2 -13 -10.5 -22t-31.5 -9h-342q-8 -37 -8 -77q0 -46 19 -86t51.5 -69.5t76.5 -46.5t95 -17q46 0 83 13.5t67.5 39t55 61
t45.5 80.5q4 9 7.5 7.5t-0.5 -9.5q-20 -46 -49.5 -91t-68.5 -80t-86.5 -57t-104.5 -22zM350 356q11 0 24.5 3.5t15.5 5.5q9 10 9 32q0 14 -7 30t-21.5 29.5t-36 22.5t-50.5 9q-65 0 -112.5 -34t-67.5 -102q42 0 77 0.5t64 1.5t55 1.5t50 0.5zM297 718q-4 4 -7 0l-82 -122
q-6 -8 -13 -13.5t-21 -5.5q-10 0 -15 4.5t-5 9.5q0 3 2.5 9t15.5 20q9 10 22.5 23l29 27l32 29t33.5 28q4 4 9 0l67.5 -52.5l53.5 -44.5q12 -11 16 -17.5t4 -11.5q0 -6 -6 -13.5t-17 -7.5q-13 0 -21 6.5t-14 14.5l-37.5 52.5z" />
    <glyph glyph-name="edieresis" unicode="&#xeb;" horiz-adv-x="516" 
d="M285 -10q-57 0 -103.5 18t-79.5 50t-50.5 76t-17.5 96q0 56 24 107t63 89.5t89 61t102 22.5q54 0 89 -14.5t54.5 -35.5t26 -44.5t4.5 -40.5q-2 -13 -10.5 -22t-31.5 -9h-342q-8 -37 -8 -77q0 -46 19 -86t51.5 -69.5t76.5 -46.5t95 -17q46 0 83 13.5t67.5 39t55 61
t45.5 80.5q4 9 7.5 7.5t-0.5 -9.5q-20 -46 -49.5 -91t-68.5 -80t-86.5 -57t-104.5 -22zM350 356q11 0 24.5 3.5t15.5 5.5q9 10 9 32q0 14 -7 30t-21.5 29.5t-36 22.5t-50.5 9q-65 0 -112.5 -34t-67.5 -102q42 0 77 0.5t64 1.5t55 1.5t50 0.5zM348 636q0 20 14.5 35t34.5 15
t35 -15t15 -35t-15 -34.5t-35 -14.5t-34.5 14.5t-14.5 34.5zM150 636q0 20 14.5 35t34.5 15t35 -15t15 -35t-15 -34.5t-35 -14.5t-34.5 14.5t-14.5 34.5z" />
    <glyph glyph-name="igrave" unicode="&#xec;" horiz-adv-x="226" 
d="M78 377q0 28 -3 44t-10.5 22.5t-19.5 6t-31 -4.5q-6 -2 -7.5 2t4.5 6q38 8 67 22.5t58 34.5q2 2 10 -0.5t8 -6.5v-393q0 -32 1.5 -52t7.5 -31t18 -14.5t33 -3.5q6 0 6 -4.5t-6 -4.5q-11 0 -25 0.5t-28 0.5t-25.5 0.5t-17.5 0.5t-18 -0.5t-27 -0.5t-30 -0.5t-26 -0.5
q-6 0 -6 4.5t6 4.5q21 0 33.5 3.5t18.5 14.5t7.5 31t1.5 52v267zM140 559q-19 20 -42.5 40t-45.5 36.5l-38.5 28.5t-21.5 17q-5 4 -8.5 8.5t-3.5 8.5q0 16 3 19q2 2 7 2.5t11 0.5q7 0 13.5 -1t10.5 -5t16 -21l28.5 -39.5t36 -46.5t39.5 -42q3 -3 3 -4q0 -4 -4 -4q-2 0 -4 2z
" />
    <glyph glyph-name="iacute" unicode="&#xed;" horiz-adv-x="226" 
d="M78 377q0 28 -3 44t-10.5 22.5t-19.5 6t-31 -4.5q-6 -2 -7.5 2t4.5 6q38 8 67 22.5t58 34.5q2 2 10 -0.5t8 -6.5v-393q0 -32 1.5 -52t7.5 -31t18 -14.5t33 -3.5q6 0 6 -4.5t-6 -4.5q-11 0 -25 0.5t-28 0.5t-25.5 0.5t-17.5 0.5t-18 -0.5t-27 -0.5t-30 -0.5t-26 -0.5
q-6 0 -6 4.5t6 4.5q21 0 33.5 3.5t18.5 14.5t7.5 31t1.5 52v267zM89 559q-2 -2 -4 -2q-4 0 -4 4q0 1 3 4q19 18 39 42t36.5 46.5l28.5 39.5t16 21t10.5 5t13.5 1q6 0 11 -0.5t7 -2.5q3 -3 3 -19q0 -4 -3.5 -8.5t-8.5 -8.5q-5 -5 -21.5 -17l-38.5 -28.5t-45.5 -36.5
t-42.5 -40z" />
    <glyph glyph-name="icircumflex" unicode="&#xee;" horiz-adv-x="226" 
d="M78 377q0 28 -3 44t-10.5 22.5t-19.5 6t-31 -4.5q-6 -2 -7.5 2t4.5 6q38 8 67 22.5t58 34.5q2 2 10 -0.5t8 -6.5v-393q0 -32 1.5 -52t7.5 -31t18 -14.5t33 -3.5q6 0 6 -4.5t-6 -4.5q-11 0 -25 0.5t-28 0.5t-25.5 0.5t-17.5 0.5t-18 -0.5t-27 -0.5t-30 -0.5t-26 -0.5
q-6 0 -6 4.5t6 4.5q21 0 33.5 3.5t18.5 14.5t7.5 31t1.5 52v267zM122 718q-4 4 -7 0l-82 -122q-6 -8 -13 -13.5t-21 -5.5q-10 0 -15 4.5t-5 9.5q0 3 2.5 9t15.5 20q9 10 22.5 23l29 27l32 29t33.5 28q4 4 9 0l67.5 -52.5l53.5 -44.5q12 -11 16 -17.5t4 -11.5q0 -6 -6 -13.5
t-17 -7.5q-13 0 -21 6.5t-14 14.5l-37.5 52.5z" />
    <glyph glyph-name="idieresis" unicode="&#xef;" horiz-adv-x="226" 
d="M78 377q0 28 -3 44t-10.5 22.5t-19.5 6t-31 -4.5q-6 -2 -7.5 2t4.5 6q38 8 67 22.5t58 34.5q2 2 10 -0.5t8 -6.5v-393q0 -32 1.5 -52t7.5 -31t18 -14.5t33 -3.5q6 0 6 -4.5t-6 -4.5q-11 0 -25 0.5t-28 0.5t-25.5 0.5t-17.5 0.5t-18 -0.5t-27 -0.5t-30 -0.5t-26 -0.5
q-6 0 -6 4.5t6 4.5q21 0 33.5 3.5t18.5 14.5t7.5 31t1.5 52v267zM-45 636q0 20 14.5 35t34.5 15t35 -15t15 -35t-15 -34.5t-35 -14.5t-34.5 14.5t-14.5 34.5zM153 636q0 20 14.5 35t34.5 15t35 -15t15 -35t-15 -34.5t-35 -14.5t-34.5 14.5t-14.5 34.5z" />
    <glyph glyph-name="eth" unicode="&#xf0;" horiz-adv-x="584" 
d="M546 257q0 -48 -19.5 -96t-54.5 -86t-83 -61.5t-105 -23.5q-53 0 -98.5 18t-78.5 50.5t-52 78.5t-19 103q0 64 24 114.5t61.5 85t82 52.5t86.5 18q51 0 82 -19t49 -42q-12 48 -35 100.5t-68 104.5q-46 -20 -84 -38.5t-69 -35.5q-6 0 -9.5 8.5t-0.5 13.5l69.5 26l86.5 34
q-27 31 -63.5 61t-84.5 58q-5 3 -3 6.5t8 0.5q52 -27 95 -55.5t78 -57.5q50 21 90 41.5t70 34.5q6 -2 10.5 -9.5t-0.5 -12.5l-73.5 -27.5t-87.5 -34.5q60 -51 98 -104.5t59.5 -106.5t30 -103.5t8.5 -95.5zM301 1q80 0 122 64t42 176q0 50 -9 97t-30 83t-55 57.5t-83 21.5
q-44 0 -76 -17.5t-52.5 -49.5t-30.5 -76.5t-10 -99.5q0 -46 12 -92t35.5 -82.5t57 -59t77.5 -22.5z" />
    <glyph glyph-name="ntilde" unicode="&#xf1;" horiz-adv-x="562" 
d="M495 98q0 -33 2.5 -51t8.5 -26.5t15 -10t22 -1.5q6 0 6 -4.5t-6 -4.5q-3 0 -15 0.5t-26.5 0.5t-28 0.5t-19.5 0.5t-15.5 -0.5t-21.5 -0.5t-24.5 -0.5t-23.5 -0.5q-6 0 -6 4.5t6 4.5q15 0 25 2.5t16 12t8.5 28.5t2.5 52l-1 213q0 46 -10.5 77.5t-27.5 50.5t-38.5 27
t-44.5 8q-47 0 -81.5 -22t-69.5 -69v-380h52q6 0 6 -4.5t-6 -4.5q-3 0 -13 0.5t-22 0.5t-23.5 0.5t-17.5 0.5t-17.5 -0.5t-25.5 -0.5t-28 -0.5t-25 -0.5q-6 0 -6 4.5t6 4.5q16 0 25 3.5t13.5 15t5.5 33t1 58.5v258q0 22 -14.5 41t-31.5 35q-4 4 0 6q14 5 37 17t36 25
q2 2 6 -1q14 -14 26.5 -41t14.5 -58q38 51 82.5 80t102.5 29q34 0 63.5 -9.5t51.5 -33t35 -62.5t13 -98v-209zM143 597q39 50 58.5 71.5t37.5 21.5q16 0 36.5 -9t41 -20.5t39.5 -20.5t33 -9q7 0 11.5 1t10.5 6t14.5 16.5l22.5 31.5q5 5 8.5 3.5t-1.5 -8.5q-32 -48 -56 -74
t-48 -26q-15 0 -35 10t-40 21.5l-39 21.5t-34 10q-4 0 -7.5 -1.5t-9 -7t-14 -15.5t-22.5 -28q-6 -7 -8.5 -4.5t1.5 9.5z" />
    <glyph glyph-name="ograve" unicode="&#xf2;" horiz-adv-x="581" 
d="M284 -10q-53 0 -98.5 18t-78.5 50.5t-52 78.5t-19 103q0 54 19.5 103t54.5 86t83.5 59t106.5 22q53 0 98 -18t78 -51t51.5 -79.5t18.5 -104.5q0 -48 -19.5 -96t-54.5 -86t-83 -61.5t-105 -23.5zM301 1q80 0 122 64t42 176q0 47 -12 93.5t-35 83t-56 59.5t-74 23
q-44 0 -76 -17.5t-52.5 -49.5t-30.5 -76.5t-10 -99.5q0 -46 12 -92t35.5 -82.5t57 -59t77.5 -22.5zM378 559q-19 20 -42.5 40t-45.5 36.5l-38.5 28.5t-21.5 17q-5 4 -8.5 8.5t-3.5 8.5q0 16 3 19q2 2 7 2.5t11 0.5q7 0 13.5 -1t10.5 -5t16 -21l28.5 -39.5t36 -46.5t39.5 -42
q3 -3 3 -4q0 -4 -4 -4q-2 0 -4 2z" />
    <glyph glyph-name="oacute" unicode="&#xf3;" horiz-adv-x="581" 
d="M284 -10q-53 0 -98.5 18t-78.5 50.5t-52 78.5t-19 103q0 54 19.5 103t54.5 86t83.5 59t106.5 22q53 0 98 -18t78 -51t51.5 -79.5t18.5 -104.5q0 -48 -19.5 -96t-54.5 -86t-83 -61.5t-105 -23.5zM301 1q80 0 122 64t42 176q0 47 -12 93.5t-35 83t-56 59.5t-74 23
q-44 0 -76 -17.5t-52.5 -49.5t-30.5 -76.5t-10 -99.5q0 -46 12 -92t35.5 -82.5t57 -59t77.5 -22.5zM230 559q-2 -2 -4 -2q-4 0 -4 4q0 1 3 4q19 18 39 42t36.5 46.5l28.5 39.5t16 21t10.5 5t13.5 1q6 0 11 -0.5t7 -2.5q3 -3 3 -19q0 -4 -3.5 -8.5t-8.5 -8.5q-5 -5 -21.5 -17
l-38.5 -28.5t-45.5 -36.5t-42.5 -40z" />
    <glyph glyph-name="ocircumflex" unicode="&#xf4;" horiz-adv-x="581" 
d="M284 -10q-53 0 -98.5 18t-78.5 50.5t-52 78.5t-19 103q0 54 19.5 103t54.5 86t83.5 59t106.5 22q53 0 98 -18t78 -51t51.5 -79.5t18.5 -104.5q0 -48 -19.5 -96t-54.5 -86t-83 -61.5t-105 -23.5zM301 1q80 0 122 64t42 176q0 47 -12 93.5t-35 83t-56 59.5t-74 23
q-44 0 -76 -17.5t-52.5 -49.5t-30.5 -76.5t-10 -99.5q0 -46 12 -92t35.5 -82.5t57 -59t77.5 -22.5zM296 718q-4 4 -7 0l-82 -122q-6 -8 -13 -13.5t-21 -5.5q-10 0 -15 4.5t-5 9.5q0 3 2.5 9t15.5 20q9 10 22.5 23l29 27l32 29t33.5 28q4 4 9 0l67.5 -52.5l53.5 -44.5
q12 -11 16 -17.5t4 -11.5q0 -6 -6 -13.5t-17 -7.5q-13 0 -21 6.5t-14 14.5l-37.5 52.5z" />
    <glyph glyph-name="otilde" unicode="&#xf5;" horiz-adv-x="581" 
d="M284 -10q-53 0 -98.5 18t-78.5 50.5t-52 78.5t-19 103q0 54 19.5 103t54.5 86t83.5 59t106.5 22q53 0 98 -18t78 -51t51.5 -79.5t18.5 -104.5q0 -48 -19.5 -96t-54.5 -86t-83 -61.5t-105 -23.5zM301 1q80 0 122 64t42 176q0 47 -12 93.5t-35 83t-56 59.5t-74 23
q-44 0 -76 -17.5t-52.5 -49.5t-30.5 -76.5t-10 -99.5q0 -46 12 -92t35.5 -82.5t57 -59t77.5 -22.5zM141 593q39 50 58.5 71.5t37.5 21.5q16 0 36.5 -9t41 -20.5t39.5 -20.5t33 -9q7 0 11.5 1t10.5 6t14.5 16.5l22.5 31.5q5 5 8.5 3.5t-1.5 -8.5q-32 -48 -56 -74t-48 -26
q-15 0 -35 10t-40 21.5l-39 21.5t-34 10q-4 0 -7.5 -1.5t-9 -7t-14 -15.5t-22.5 -28q-6 -7 -8.5 -4.5t1.5 9.5z" />
    <glyph glyph-name="odieresis" unicode="&#xf6;" horiz-adv-x="581" 
d="M284 -10q-53 0 -98.5 18t-78.5 50.5t-52 78.5t-19 103q0 54 19.5 103t54.5 86t83.5 59t106.5 22q53 0 98 -18t78 -51t51.5 -79.5t18.5 -104.5q0 -48 -19.5 -96t-54.5 -86t-83 -61.5t-105 -23.5zM301 1q80 0 122 64t42 176q0 47 -12 93.5t-35 83t-56 59.5t-74 23
q-44 0 -76 -17.5t-52.5 -49.5t-30.5 -76.5t-10 -99.5q0 -46 12 -92t35.5 -82.5t57 -59t77.5 -22.5zM334 636q0 20 14.5 35t34.5 15t35 -15t15 -35t-15 -34.5t-35 -14.5t-34.5 14.5t-14.5 34.5zM136 636q0 20 14.5 35t34.5 15t35 -15t15 -35t-15 -34.5t-35 -14.5t-34.5 14.5
t-14.5 34.5z" />
    <glyph glyph-name="divide" unicode="&#xf7;" 
d="M277 251q31 0 54.5 0.5t43.5 1.5t37.5 2l35.5 2q5 -4 5 -12.5t-5 -11.5q-20 1 -38 2.5t-37 2.5t-42 1.5t-53 0.5t-53 -0.5t-42 -1.5t-37 -2.5t-38 -2.5q-5 3 -5 11.5t5 12.5l35.5 -2t37 -2t43 -1.5t53.5 -0.5zM242 109q0 16 10.5 27t27.5 11q15 0 26.5 -11t11.5 -27
t-11.5 -27t-26.5 -11q-17 0 -27.5 11t-10.5 27zM242 383q0 16 10.5 27t27.5 11q15 0 26.5 -11t11.5 -27t-11.5 -27t-26.5 -11q-17 0 -27.5 11t-10.5 27z" />
    <glyph glyph-name="oslash" unicode="&#xf8;" horiz-adv-x="581" 
d="M284 -10q-32 0 -60 6.5t-54 17.5l-30 -58.5l-36 -71.5q-13 -2 -16.5 -2.5t-11.5 6.5l79 134q-55 31 -87 87t-32 131q0 54 19.5 103t54.5 86t83.5 59t106.5 22q56 0 104 -21l32.5 65l36.5 70q12 2 15 0.5t12 -7.5l-43 -70.5t-37 -64.5q57 -30 91.5 -88t34.5 -137
q0 -48 -19.5 -96t-54.5 -86t-83 -61.5t-105 -23.5zM301 1q80 0 122 64t42 176q0 56 -17 110.5t-49 92.5l-49 -90.5l-56 -106.5l-58.5 -107.5l-45.5 -87.5q22 -23 49.5 -37t61.5 -14zM281 253l57.5 109.5l48.5 93.5q-20 20 -45 32t-54 12q-44 0 -76 -17.5t-52.5 -49.5
t-30.5 -76.5t-10 -99.5q0 -52 15.5 -103t44.5 -89l45.5 83.5z" />
    <glyph glyph-name="ugrave" unicode="&#xf9;" horiz-adv-x="559" 
d="M67 377q0 32 -3 49t-10.5 24t-19.5 6t-31 -4q-6 -1 -6 3.5t6 5.5q38 7 67 19t55 26q2 2 10 -0.5t8 -6.5v-316q0 -47 10 -78t26.5 -50t37.5 -27t44 -8q47 0 81.5 21.5t70.5 69.5v266q0 32 -3 49t-10.5 24t-19.5 6t-31 -4q-6 -1 -6 3.5t6 5.5q38 7 66.5 19t54.5 26
q2 2 10 -0.5t8 -6.5v-380q0 -38 1.5 -60t6.5 -33t16 -14t29 -3q5 0 5 -4.5t-5 -4.5q-47 0 -78 -4t-52 -6q-6 -1 -7 1.5t-1 7.5t4.5 31.5t5.5 68.5q-38 -51 -83 -80t-102 -29q-34 0 -63.5 9.5t-51 33t-34 62.5t-12.5 98v184zM307 542q-19 20 -42.5 40t-45.5 36.5l-38.5 28.5
t-21.5 17q-5 4 -8.5 8.5t-3.5 8.5q0 16 3 19q2 2 7 2.5t11 0.5q7 0 13.5 -1t10.5 -5t16 -21l28.5 -39.5t36 -46.5t39.5 -42q3 -3 3 -4q0 -4 -4 -4q-2 0 -4 2z" />
    <glyph glyph-name="uacute" unicode="&#xfa;" horiz-adv-x="559" 
d="M67 377q0 32 -3 49t-10.5 24t-19.5 6t-31 -4q-6 -1 -6 3.5t6 5.5q38 7 67 19t55 26q2 2 10 -0.5t8 -6.5v-316q0 -47 10 -78t26.5 -50t37.5 -27t44 -8q47 0 81.5 21.5t70.5 69.5v266q0 32 -3 49t-10.5 24t-19.5 6t-31 -4q-6 -1 -6 3.5t6 5.5q38 7 66.5 19t54.5 26
q2 2 10 -0.5t8 -6.5v-380q0 -38 1.5 -60t6.5 -33t16 -14t29 -3q5 0 5 -4.5t-5 -4.5q-47 0 -78 -4t-52 -6q-6 -1 -7 1.5t-1 7.5t4.5 31.5t5.5 68.5q-38 -51 -83 -80t-102 -29q-34 0 -63.5 9.5t-51 33t-34 62.5t-12.5 98v184zM246 540q-2 -2 -4 -2q-4 0 -4 4q0 1 3 4
q19 18 39 42t36.5 46.5l28.5 39.5t16 21t10.5 5t13.5 1q6 0 11 -0.5t7 -2.5q3 -3 3 -19q0 -4 -3.5 -8.5t-8.5 -8.5q-5 -5 -21.5 -17l-38.5 -28.5t-45.5 -36.5t-42.5 -40z" />
    <glyph glyph-name="ucircumflex" unicode="&#xfb;" horiz-adv-x="559" 
d="M67 377q0 32 -3 49t-10.5 24t-19.5 6t-31 -4q-6 -1 -6 3.5t6 5.5q38 7 67 19t55 26q2 2 10 -0.5t8 -6.5v-316q0 -47 10 -78t26.5 -50t37.5 -27t44 -8q47 0 81.5 21.5t70.5 69.5v266q0 32 -3 49t-10.5 24t-19.5 6t-31 -4q-6 -1 -6 3.5t6 5.5q38 7 66.5 19t54.5 26
q2 2 10 -0.5t8 -6.5v-380q0 -38 1.5 -60t6.5 -33t16 -14t29 -3q5 0 5 -4.5t-5 -4.5q-47 0 -78 -4t-52 -6q-6 -1 -7 1.5t-1 7.5t4.5 31.5t5.5 68.5q-38 -51 -83 -80t-102 -29q-34 0 -63.5 9.5t-51 33t-34 62.5t-12.5 98v184zM280 717q-4 4 -7 0l-82 -122q-6 -8 -13 -13.5
t-21 -5.5q-10 0 -15 4.5t-5 9.5q0 3 2.5 9t15.5 20q9 10 22.5 23l29 27l32 29t33.5 28q4 4 9 0l67.5 -52.5l53.5 -44.5q12 -11 16 -17.5t4 -11.5q0 -6 -6 -13.5t-17 -7.5q-13 0 -21 6.5t-14 14.5l-37.5 52.5z" />
    <glyph glyph-name="udieresis" unicode="&#xfc;" horiz-adv-x="559" 
d="M67 377q0 32 -3 49t-10.5 24t-19.5 6t-31 -4q-6 -1 -6 3.5t6 5.5q38 7 67 19t55 26q2 2 10 -0.5t8 -6.5v-316q0 -47 10 -78t26.5 -50t37.5 -27t44 -8q47 0 81.5 21.5t70.5 69.5v266q0 32 -3 49t-10.5 24t-19.5 6t-31 -4q-6 -1 -6 3.5t6 5.5q38 7 66.5 19t54.5 26
q2 2 10 -0.5t8 -6.5v-380q0 -38 1.5 -60t6.5 -33t16 -14t29 -3q5 0 5 -4.5t-5 -4.5q-47 0 -78 -4t-52 -6q-6 -1 -7 1.5t-1 7.5t4.5 31.5t5.5 68.5q-38 -51 -83 -80t-102 -29q-34 0 -63.5 9.5t-51 33t-34 62.5t-12.5 98v184zM129 631q0 20 14.5 35t34.5 15t35 -15t15 -35
t-15 -34.5t-35 -14.5t-34.5 14.5t-14.5 34.5zM327 631q0 20 14.5 35t34.5 15t35 -15t15 -35t-15 -34.5t-35 -14.5t-34.5 14.5t-14.5 34.5z" />
    <glyph glyph-name="yacute" unicode="&#xfd;" horiz-adv-x="537" 
d="M117 -136q19 0 36 4t33 16.5t32.5 36t33.5 62.5l11 25l-159 352q-21 46 -35 72t-26.5 39.5t-25 16.5t-30.5 3q-5 0 -5 4.5t5 4.5q3 0 16.5 -0.5t30 -0.5t31.5 -0.5t21 -0.5q5 0 18.5 0.5t30 0.5t32.5 0.5t26 0.5q6 0 6 -4.5t-6 -4.5q-22 0 -34.5 -3.5t-15.5 -14
t3.5 -30.5t21.5 -53l133 -295l112 252q32 72 17 108t-63 36q-6 0 -6 4.5t6 4.5q10 0 24.5 -0.5t28 -0.5t25 -0.5t16.5 -0.5q6 0 19.5 0.5t28 0.5t27 0.5t15.5 0.5q5 0 5 -4.5t-5 -4.5q-35 1 -66 -38.5t-63 -111.5l-160 -360q-38 -88 -87 -130.5t-122 -42.5q-41 0 -62 12.5
t-21 26.5q0 6 4 14t11.5 15t17.5 12t22 5q13 0 24 -4.5t21.5 -10t21.5 -10t25 -4.5zM240 542q-2 -2 -4 -2q-4 0 -4 4q0 1 3 4q19 18 39 42t36.5 46.5l28.5 39.5t16 21t10.5 5t13.5 1q6 0 11 -0.5t7 -2.5q3 -3 3 -19q0 -4 -3.5 -8.5t-8.5 -8.5q-5 -5 -21.5 -17l-38.5 -28.5
t-45.5 -36.5t-42.5 -40z" />
    <glyph glyph-name="thorn" unicode="&#xfe;" horiz-adv-x="596" 
d="M147 403q35 51 88.5 79t110.5 28q43 0 81 -17.5t67 -48.5t46 -74t17 -95q0 -62 -24.5 -114t-64.5 -90t-91.5 -59.5t-105.5 -21.5q-39 0 -70.5 11t-54.5 27v-291h71q6 0 6 -4.5t-6 -4.5q-3 0 -17 0.5t-31 0.5t-32.5 0.5t-21.5 0.5t-20.5 -0.5t-32 -0.5t-34.5 -0.5
t-28 -0.5q-6 0 -6 4.5t6 4.5q25 0 40 3t22.5 14.5t9.5 35t2 64.5v765q0 32 -4 48t-12.5 21.5t-21.5 3.5l-32 -5q-6 -1 -6 3.5t6 5.5q19 2 36 8.5t32.5 14.5t29.5 16.5t27 15.5q2 2 10 -0.5t8 -6.5v-341zM313 12q81 0 125.5 58t44.5 169q0 44 -11.5 86.5t-35 76.5t-58.5 54.5
t-81 20.5q-42 0 -83 -22.5t-67 -62.5q0 -72 -0.5 -143.5t-0.5 -143.5q13 -15 31 -31t39.5 -30t45.5 -23t51 -9z" />
    <glyph glyph-name="ydieresis" unicode="&#xff;" horiz-adv-x="537" 
d="M117 -136q19 0 36 4t33 16.5t32.5 36t33.5 62.5l11 25l-159 352q-21 46 -35 72t-26.5 39.5t-25 16.5t-30.5 3q-5 0 -5 4.5t5 4.5q3 0 16.5 -0.5t30 -0.5t31.5 -0.5t21 -0.5q5 0 18.5 0.5t30 0.5t32.5 0.5t26 0.5q6 0 6 -4.5t-6 -4.5q-22 0 -34.5 -3.5t-15.5 -14
t3.5 -30.5t21.5 -53l133 -295l112 252q32 72 17 108t-63 36q-6 0 -6 4.5t6 4.5q10 0 24.5 -0.5t28 -0.5t25 -0.5t16.5 -0.5q6 0 19.5 0.5t28 0.5t27 0.5t15.5 0.5q5 0 5 -4.5t-5 -4.5q-35 1 -66 -38.5t-63 -111.5l-160 -360q-38 -88 -87 -130.5t-122 -42.5q-41 0 -62 12.5
t-21 26.5q0 6 4 14t11.5 15t17.5 12t22 5q13 0 24 -4.5t21.5 -10t21.5 -10t25 -4.5zM139 631q0 20 14.5 35t34.5 15t35 -15t15 -35t-15 -34.5t-35 -14.5t-34.5 14.5t-14.5 34.5zM337 631q0 20 14.5 35t34.5 15t35 -15t15 -35t-15 -34.5t-35 -14.5t-34.5 14.5t-14.5 34.5z
" />
    <glyph glyph-name="Amacron" unicode="&#x100;" horiz-adv-x="711" 
d="M348 245q-18 0 -44 0.5l-52.5 1t-49 1t-33.5 0.5l-17 -42l-12.5 -35t-12 -39t-8.5 -39.5t-3 -35.5q0 -49 56 -49q6 0 15.5 1.5t12.5 1.5q7 0 7 -5q0 -2 -2 -4t-10 -2q-7 0 -23 0.5t-34 0.5t-34.5 0.5t-22.5 0.5q-5 0 -15 -0.5t-22 -0.5t-24.5 -0.5t-21.5 -0.5q-6 0 -6 5
q0 4 6 4h4q40 0 72 60q19 32 36.5 71t29.5 71l193 482q1 3 7 3h10q8 0 10 -3l182 -434q37 -88 60.5 -138t40 -75t30 -31t31.5 -6h8q7 0 7 -4q0 -5 -6 -5q-11 0 -26 0.5l-30 1t-27 1t-18 0.5t-21.5 -0.5t-34 -1l-36.5 -1t-29 -0.5q-6 0 -7.5 4.5t4.5 4.5h21q16 0 24.5 6t5 30
t-20.5 72t-53 131zM311 608l-139 -351l170 1h118v1zM349 842h44t46 1t30 1t5 -2q0 -5 -12 -17.5t-34 -33.5q-6 0 -29 0.5t-49 0.5h-20.5t-17 -0.5l-17.5 -1t-21 -0.5q-25 -1 -30 -0.5t-5 2.5q0 5 12 17.5t34 33.5q6 0 21.5 -0.5t41.5 -0.5h1z" />
    <glyph glyph-name="amacron" unicode="&#x101;" horiz-adv-x="514" 
d="M156 -11q-60 0 -92 33t-32 79q0 25 13 50t42.5 50.5t77.5 51.5t117 53l83 32q-2 47 -8.5 78.5t-19.5 50t-32.5 26.5t-46.5 8q-33 0 -54 -13t-35 -30.5t-23 -36.5t-17 -31q-7 -10 -16 -14t-29 -4q-18 0 -29 6t-11 17q0 9 8 22t27 25q15 10 37.5 21.5t48.5 22t54 17.5t55 7
q37 0 68 -10t53.5 -32t35 -56.5t12.5 -83.5q0 -25 -1.5 -57l-3 -63t-2.5 -57.5t-1 -41.5q0 -43 6 -64t22 -21q7 0 14.5 6t15 14t14 17.5t10.5 17.5q4 6 10 2t2 -10q-6 -9 -19.5 -22.5t-30.5 -26.5t-35 -22.5t-33 -9.5q-29 0 -43 18.5t-14 52.5q0 20 1 43t3 39
q-10 -17 -33 -43.5t-52 -51t-60 -42t-57 -17.5zM102 130q0 -20 9.5 -38t24.5 -31t33.5 -20.5t36.5 -7.5q21 0 46.5 16t48 38t39.5 44.5t20 34.5q1 10 3.5 46t2.5 98v21l-82 -35q-55 -23 -90.5 -41.5t-55.5 -37t-28 -39t-8 -48.5zM267 636h44t46 1t30 1t5 -2q0 -5 -12 -17.5
t-34 -33.5q-6 0 -29 0.5t-49 0.5h-20.5t-17 -0.5l-17.5 -1t-21 -0.5q-25 -1 -30 -0.5t-5 2.5q0 5 12 17.5t34 33.5q6 0 21.5 -0.5t41.5 -0.5h1z" />
    <glyph glyph-name="Abreve" unicode="&#x102;" horiz-adv-x="711" 
d="M348 245q-18 0 -44 0.5l-52.5 1t-49 1t-33.5 0.5l-17 -42l-12.5 -35t-12 -39t-8.5 -39.5t-3 -35.5q0 -49 56 -49q6 0 15.5 1.5t12.5 1.5q7 0 7 -5q0 -2 -2 -4t-10 -2q-7 0 -23 0.5t-34 0.5t-34.5 0.5t-22.5 0.5q-5 0 -15 -0.5t-22 -0.5t-24.5 -0.5t-21.5 -0.5q-6 0 -6 5
q0 4 6 4h4q40 0 72 60q19 32 36.5 71t29.5 71l193 482q1 3 7 3h10q8 0 10 -3l182 -434q37 -88 60.5 -138t40 -75t30 -31t31.5 -6h8q7 0 7 -4q0 -5 -6 -5q-11 0 -26 0.5l-30 1t-27 1t-18 0.5t-21.5 -0.5t-34 -1l-36.5 -1t-29 -0.5q-6 0 -7.5 4.5t4.5 4.5h21q16 0 24.5 6t5 30
t-20.5 72t-53 131zM311 608l-139 -351l170 1h118v1zM345 781q-37 0 -66 20t-53 52q-6 7 -6 12q0 7 23 14q15 5 21 4.5t11 -7.5q27 -35 50 -54.5t52 -19.5q20 0 39.5 19t35.5 56q3 7 11 7q5 0 8 -3.5t0 -7.5q-10 -17 -24.5 -33.5t-31 -29t-34.5 -20.5t-36 -9z" />
    <glyph glyph-name="abreve" unicode="&#x103;" horiz-adv-x="514" 
d="M156 -11q-60 0 -92 33t-32 79q0 25 13 50t42.5 50.5t77.5 51.5t117 53l83 32q-2 47 -8.5 78.5t-19.5 50t-32.5 26.5t-46.5 8q-33 0 -54 -13t-35 -30.5t-23 -36.5t-17 -31q-7 -10 -16 -14t-29 -4q-18 0 -29 6t-11 17q0 9 8 22t27 25q15 10 37.5 21.5t48.5 22t54 17.5t55 7
q37 0 68 -10t53.5 -32t35 -56.5t12.5 -83.5q0 -25 -1.5 -57l-3 -63t-2.5 -57.5t-1 -41.5q0 -43 6 -64t22 -21q7 0 14.5 6t15 14t14 17.5t10.5 17.5q4 6 10 2t2 -10q-6 -9 -19.5 -22.5t-30.5 -26.5t-35 -22.5t-33 -9.5q-29 0 -43 18.5t-14 52.5q0 20 1 43t3 39
q-10 -17 -33 -43.5t-52 -51t-60 -42t-57 -17.5zM102 130q0 -20 9.5 -38t24.5 -31t33.5 -20.5t36.5 -7.5q21 0 46.5 16t48 38t39.5 44.5t20 34.5q1 10 3.5 46t2.5 98v21l-82 -35q-55 -23 -90.5 -41.5t-55.5 -37t-28 -39t-8 -48.5zM263 587q-37 0 -66 20t-53 52q-6 7 -6 12
q0 7 23 14q15 5 21 4.5t11 -7.5q27 -35 50 -54.5t52 -19.5q20 0 39.5 19t35.5 56q3 7 11 7q5 0 8 -3.5t0 -7.5q-10 -17 -24.5 -33.5t-31 -29t-34.5 -20.5t-36 -9z" />
    <glyph glyph-name="Aogonek" unicode="&#x104;" horiz-adv-x="711" 
d="M348 245q-18 0 -44 0.5l-52.5 1t-49 1t-33.5 0.5l-17 -42l-12.5 -35t-12 -39t-8.5 -39.5t-3 -35.5q0 -49 56 -49q6 0 15.5 1.5t12.5 1.5q7 0 7 -5q0 -2 -2 -4t-10 -2q-7 0 -23 0.5t-34 0.5t-34.5 0.5t-22.5 0.5q-5 0 -15 -0.5t-22 -0.5t-24.5 -0.5t-21.5 -0.5q-6 0 -6 5
q0 4 6 4h4q40 0 72 60q19 32 36.5 71t29.5 71l193 482q1 3 7 3h10q8 0 10 -3l182 -434q37 -88 60.5 -138t40 -75t30 -31t31.5 -6h8q7 0 7 -4q0 -2 -2 -4q-31 -38 -41.5 -57.5t-11.5 -32.5q-2 -19 10.5 -31.5t41.5 -12.5q24 0 43.5 7.5t31.5 13.5q1 1 -3 -9t-10 -23t-13 -25
t-11 -15q-9 -4 -28.5 -8.5t-39.5 -4.5q-32 0 -50 19t-13 54q3 23 23 51.5t58 72.5q-11 0 -25 0.5l-27.5 1t-24 1t-15.5 0.5q-6 0 -21.5 -0.5t-34 -1l-36.5 -1t-29 -0.5q-6 0 -7.5 4.5t4.5 4.5h21q16 0 24.5 6t5 30t-20.5 72t-53 131zM311 608l-139 -351l170 1h118v1z" />
    <glyph glyph-name="aogonek" unicode="&#x105;" horiz-adv-x="514" 
d="M466 -133q24 0 43.5 7.5t31.5 13.5q1 1 -3 -9t-10 -23t-13 -25t-11 -15q-9 -4 -28.5 -8.5t-39.5 -4.5q-32 0 -50 19t-13 54q3 24 25.5 55.5t65.5 79.5q-14 -9 -28 -15t-25 -6q-29 0 -43 18.5t-14 52.5q0 20 1 43t3 39q-10 -17 -33 -43.5t-52 -51t-60 -42t-57 -17.5
q-60 0 -92 33t-32 79q0 25 13 50t42.5 50.5t77.5 51.5t117 53l83 32q-2 47 -8.5 78.5t-19.5 50t-32.5 26.5t-46.5 8q-33 0 -54 -13t-35 -30.5t-23 -36.5t-17 -31q-7 -10 -16 -14t-29 -4q-18 0 -29 6t-11 17q0 9 8 22t27 25q15 10 37.5 21.5t48.5 22t54 17.5t55 7
q37 0 68 -10t53.5 -32t35 -56.5t12.5 -83.5q0 -25 -1.5 -57l-3 -63t-2.5 -57.5t-1 -41.5q0 -43 6 -64t22 -21q6 0 12.5 4.5t13.5 11.5l6 6q7 8 12.5 17l9.5 16q4 6 10 2t2 -10q-10 -15 -33 -35q-25 -29 -40.5 -49t-24.5 -34.5t-12.5 -24t-4.5 -17.5q-2 -19 10.5 -31.5
t41.5 -12.5zM102 130q0 -20 9.5 -38t24.5 -31t33.5 -20.5t36.5 -7.5q21 0 46.5 16t48 38t39.5 44.5t20 34.5q1 10 3.5 46t2.5 98v21l-82 -35q-55 -23 -90.5 -41.5t-55.5 -37t-28 -39t-8 -48.5z" />
    <glyph glyph-name="Cacute" unicode="&#x106;" horiz-adv-x="756" 
d="M133 346q0 -77 19 -140.5t56 -109.5t90.5 -71t121.5 -25q63 0 109 19t78 54t50 84.5t24 109.5h8l-12 -233q-41 -18 -107.5 -31t-147.5 -13t-150 27t-120 74.5t-80 112.5t-29 142q0 78 31 144t83.5 113t122 73.5t146.5 26.5q31 0 66.5 -3.5t69 -9.5t63.5 -14t50 -17
l12 -218h-9q-12 119 -73 185.5t-177 66.5q-68 0 -122.5 -25.5t-92.5 -71t-59 -109.5t-21 -141zM372 768q-2 -2 -4 -2q-4 0 -4 4q0 1 3 4q19 18 39 42t36.5 46.5l28.5 39.5t16 21t10.5 5t13.5 1q6 0 11 -0.5t7 -2.5q3 -3 3 -19q0 -4 -3.5 -8.5t-8.5 -8.5q-5 -5 -21.5 -17
l-38.5 -28.5t-45.5 -36.5t-42.5 -40z" />
    <glyph glyph-name="cacute" unicode="&#x107;" horiz-adv-x="542" 
d="M102 275q0 -50 17 -91.5t47 -72.5t72 -48t93 -17q71 0 121 34t88 103q3 6 7 4t1 -7q-21 -39 -50.5 -74t-65 -60.5t-75 -40.5t-80.5 -15q-53 0 -97 17.5t-76 49.5t-49.5 76t-17.5 97q0 54 24 104.5t63.5 89.5t91 62.5t106.5 23.5q37 0 67.5 -7t52.5 -17.5t34.5 -24
t12.5 -26.5t-12.5 -27t-36.5 -14q-16 0 -29 14.5l-30 32.5t-41 32.5t-60 14.5q-37 0 -69.5 -14t-56.5 -41.5t-38 -67t-14 -90.5zM238 559q-2 -2 -4 -2q-4 0 -4 4q0 1 3 4q19 18 39 42t36.5 46.5l28.5 39.5t16 21t10.5 5t13.5 1q6 0 11 -0.5t7 -2.5q3 -3 3 -19
q0 -4 -3.5 -8.5t-8.5 -8.5q-5 -5 -21.5 -17l-38.5 -28.5t-45.5 -36.5t-42.5 -40z" />
    <glyph glyph-name="Ccircumflex" unicode="&#x108;" horiz-adv-x="756" 
d="M133 346q0 -77 19 -140.5t56 -109.5t90.5 -71t121.5 -25q63 0 109 19t78 54t50 84.5t24 109.5h8l-12 -233q-41 -18 -107.5 -31t-147.5 -13t-150 27t-120 74.5t-80 112.5t-29 142q0 78 31 144t83.5 113t122 73.5t146.5 26.5q31 0 66.5 -3.5t69 -9.5t63.5 -14t50 -17
l12 -218h-9q-12 119 -73 185.5t-177 66.5q-68 0 -122.5 -25.5t-92.5 -71t-59 -109.5t-21 -141zM427 912q-4 4 -7 0l-82 -122q-6 -8 -13 -13.5t-21 -5.5q-10 0 -15 4.5t-5 9.5q0 3 2.5 9t15.5 20q9 10 22.5 23l29 27l32 29t33.5 28q4 4 9 0l67.5 -52.5l53.5 -44.5
q12 -11 16 -17.5t4 -11.5q0 -6 -6 -13.5t-17 -7.5q-13 0 -21 6.5t-14 14.5l-37.5 52.5z" />
    <glyph glyph-name="ccircumflex" unicode="&#x109;" horiz-adv-x="542" 
d="M102 275q0 -50 17 -91.5t47 -72.5t72 -48t93 -17q71 0 121 34t88 103q3 6 7 4t1 -7q-21 -39 -50.5 -74t-65 -60.5t-75 -40.5t-80.5 -15q-53 0 -97 17.5t-76 49.5t-49.5 76t-17.5 97q0 54 24 104.5t63.5 89.5t91 62.5t106.5 23.5q37 0 67.5 -7t52.5 -17.5t34.5 -24
t12.5 -26.5t-12.5 -27t-36.5 -14q-16 0 -29 14.5l-30 32.5t-41 32.5t-60 14.5q-37 0 -69.5 -14t-56.5 -41.5t-38 -67t-14 -90.5zM310 718q-4 4 -7 0l-82 -122q-6 -8 -13 -13.5t-21 -5.5q-10 0 -15 4.5t-5 9.5q0 3 2.5 9t15.5 20q9 10 22.5 23l29 27l32 29t33.5 28q4 4 9 0
l67.5 -52.5l53.5 -44.5q12 -11 16 -17.5t4 -11.5q0 -6 -6 -13.5t-17 -7.5q-13 0 -21 6.5t-14 14.5l-37.5 52.5z" />
    <glyph glyph-name="Cdotaccent" unicode="&#x10a;" horiz-adv-x="756" 
d="M133 346q0 -77 19 -140.5t56 -109.5t90.5 -71t121.5 -25q63 0 109 19t78 54t50 84.5t24 109.5h8l-12 -233q-41 -18 -107.5 -31t-147.5 -13t-150 27t-120 74.5t-80 112.5t-29 142q0 78 31 144t83.5 113t122 73.5t146.5 26.5q31 0 66.5 -3.5t69 -9.5t63.5 -14t50 -17
l12 -218h-9q-12 119 -73 185.5t-177 66.5q-68 0 -122.5 -25.5t-92.5 -71t-59 -109.5t-21 -141zM380 828q0 22 15 37.5t37 15.5t37.5 -15.5t15.5 -37.5t-15.5 -37t-37.5 -15t-37 15t-15 37z" />
    <glyph glyph-name="cdotaccent" unicode="&#x10b;" horiz-adv-x="542" 
d="M102 275q0 -50 17 -91.5t47 -72.5t72 -48t93 -17q71 0 121 34t88 103q3 6 7 4t1 -7q-21 -39 -50.5 -74t-65 -60.5t-75 -40.5t-80.5 -15q-53 0 -97 17.5t-76 49.5t-49.5 76t-17.5 97q0 54 24 104.5t63.5 89.5t91 62.5t106.5 23.5q37 0 67.5 -7t52.5 -17.5t34.5 -24
t12.5 -26.5t-12.5 -27t-36.5 -14q-16 0 -29 14.5l-30 32.5t-41 32.5t-60 14.5q-37 0 -69.5 -14t-56.5 -41.5t-38 -67t-14 -90.5zM263 639q0 22 15 37.5t37 15.5t37.5 -15.5t15.5 -37.5t-15.5 -37t-37.5 -15t-37 15t-15 37z" />
    <glyph glyph-name="Ccaron" unicode="&#x10c;" horiz-adv-x="756" 
d="M133 346q0 -77 19 -140.5t56 -109.5t90.5 -71t121.5 -25q63 0 109 19t78 54t50 84.5t24 109.5h8l-12 -233q-41 -18 -107.5 -31t-147.5 -13t-150 27t-120 74.5t-80 112.5t-29 142q0 78 31 144t83.5 113t122 73.5t146.5 26.5q31 0 66.5 -3.5t69 -9.5t63.5 -14t50 -17
l12 -218h-9q-12 119 -73 185.5t-177 66.5q-68 0 -122.5 -25.5t-92.5 -71t-59 -109.5t-21 -141zM421 782q4 -4 7 0l82 122q6 8 13 13.5t21 5.5q10 0 15 -4.5t5 -9.5q0 -3 -2.5 -9t-15.5 -20q-9 -10 -22.5 -23l-29 -27l-32.5 -29l-33 -28q-2 -2 -4.5 -2t-4.5 2l-67.5 52.5
l-53.5 44.5q-12 11 -16 17.5t-4 11.5q0 6 6 13.5t17 7.5q13 0 21 -6.5t14 -14.5l37.5 -52.5z" />
    <glyph glyph-name="ccaron" unicode="&#x10d;" horiz-adv-x="542" 
d="M102 275q0 -50 17 -91.5t47 -72.5t72 -48t93 -17q71 0 121 34t88 103q3 6 7 4t1 -7q-21 -39 -50.5 -74t-65 -60.5t-75 -40.5t-80.5 -15q-53 0 -97 17.5t-76 49.5t-49.5 76t-17.5 97q0 54 24 104.5t63.5 89.5t91 62.5t106.5 23.5q37 0 67.5 -7t52.5 -17.5t34.5 -24
t12.5 -26.5t-12.5 -27t-36.5 -14q-16 0 -29 14.5l-30 32.5t-41 32.5t-60 14.5q-37 0 -69.5 -14t-56.5 -41.5t-38 -67t-14 -90.5zM308 588q4 -4 7 0l82 122q6 8 13 13.5t21 5.5q10 0 15 -4.5t5 -9.5q0 -3 -2.5 -9t-15.5 -20q-9 -10 -22.5 -23l-29 -27l-32.5 -29l-33 -28
q-2 -2 -4.5 -2t-4.5 2l-67.5 52.5l-53.5 44.5q-12 11 -16 17.5t-4 11.5q0 6 6 13.5t17 7.5q13 0 21 -6.5t14 -14.5l37.5 -52.5z" />
    <glyph glyph-name="Dcaron" unicode="&#x10e;" horiz-adv-x="733" 
d="M690 346q0 -77 -29 -140.5t-79.5 -109.5t-119.5 -71t-150 -25h-38.5t-51.5 1l-65 2l-141 -3q-8 0 -8 3.5t8 3.5q22 0 35 3t21 16t12 40t7 74q2 26 2.5 62t0 73t-1 69t-0.5 49t-0.5 43l-1 54l-1 55t-0.5 48q0 34 -1.5 52.5t-7.5 27t-19.5 10t-37.5 1.5q-6 0 -6 4.5t6 4.5
q3 0 20.5 -0.5t38 -0.5t39 -0.5t24.5 -0.5t28 0.5t48.5 0.5t51 0.5t35.5 0.5q77 0 146.5 -25t122 -70.5t83 -109.5t30.5 -142zM601 346q0 77 -21 139.5t-59.5 106.5t-93 68t-121.5 24h-66q-26 0 -39.5 -4.5t-20.5 -28.5t-8 -74.5t-1 -142.5v-273q0 -58 -2.5 -96t-5.5 -51
q9 0 27.5 -0.5t40 -1.5t44 -1.5t39.5 -0.5q68 0 121.5 23.5t90 67.5t56 106t19.5 139zM326 782q4 -4 7 0l82 122q6 8 13 13.5t21 5.5q10 0 15 -4.5t5 -9.5q0 -3 -2.5 -9t-15.5 -20q-9 -10 -22.5 -23l-29 -27l-32.5 -29l-33 -28q-2 -2 -4.5 -2t-4.5 2l-67.5 52.5l-53.5 44.5
q-12 11 -16 17.5t-4 11.5q0 6 6 13.5t17 7.5q13 0 21 -6.5t14 -14.5l37.5 -52.5z" />
    <glyph glyph-name="dcaron" unicode="&#x10f;" horiz-adv-x="709" 
d="M451 681q0 32 -3.5 49.5t-11 24.5t-20 6.5t-31.5 -3.5q-6 -1 -6 3.5t6 5.5q38 7 66.5 19.5t54.5 26.5q2 2 11 -0.5t9 -6.5v-687q0 -37 1 -58.5t6 -33t15 -15t29 -3.5q6 0 6 -4.5t-6 -4.5q-46 0 -71 -2.5t-50 -7.5q-12 -3 -12 9q0 5 3 32.5t4 70.5q-36 -53 -91 -82.5
t-114 -29.5q-43 0 -81 17.5t-66.5 48.5t-45.5 74t-17 95q0 62 24.5 114t65 90t92 59.5t105.5 21.5q40 0 72.5 -14.5t55.5 -32.5v218zM281 488q-81 0 -128 -56t-47 -167q0 -44 12.5 -87t36.5 -77.5t59.5 -56t82.5 -21.5q46 0 87 26.5t67 68.5v271l-31.5 31.5t-39.5 32.5
t-47 25t-52 10zM608 620q-4 -2 -5.5 -0.5t2.5 4.5q17 10 33.5 31.5t16.5 58.5q0 14 -5 27q-12 -20 -35 -20q-18 0 -30.5 12.5t-12.5 30.5q0 19 13 33t36 14q27 0 42.5 -22.5t15.5 -60.5q0 -19 -8 -36.5t-19.5 -32t-23.5 -24.5t-20 -15z" />
    <glyph glyph-name="Dcroat" unicode="&#x110;" horiz-adv-x="733" 
d="M690 346q0 -77 -29 -140.5t-79.5 -109.5t-119.5 -71t-150 -25h-38.5t-51.5 1l-65 2l-141 -3q-8 0 -8 3.5t8 3.5q22 0 35 3t21 16t12 40t7 74q1 16 1.5 36.5t0.5 43v45.5v44q-11 0 -21.5 -0.5t-22.5 -0.5q-25 -1 -30 -0.5t-5 2.5q0 5 12 17.5t34 33.5q5 0 13 -0.5t19 -0.5
v33q0 17 -0.5 43l-1 54l-1 55t-0.5 48q0 34 -1.5 52.5t-7.5 27t-19.5 10t-37.5 1.5q-6 0 -6 4.5t6 4.5q3 0 20.5 -0.5t38 -0.5t39 -0.5t24.5 -0.5t28 0.5t48.5 0.5t51 0.5t35.5 0.5q77 0 146.5 -25t122 -70.5t83 -109.5t30.5 -142zM601 346q0 77 -21 139.5t-59.5 106.5
t-93 68t-121.5 24h-66q-26 0 -39.5 -4.5t-20.5 -28.5t-8 -74.5t-1 -142.5v-74h60.5t62.5 1q25 1 30 1t5 -2q0 -5 -12 -17.5t-34 -33.5h-18.5t-28 0.5t-32.5 0.5h-33v-149q0 -58 -2.5 -96t-5.5 -51q9 0 27.5 -0.5t40 -1.5t44 -1.5t39.5 -0.5q68 0 121.5 23.5t90 67.5t56 106
t19.5 139z" />
    <glyph glyph-name="dcroat" unicode="&#x111;" horiz-adv-x="599" 
d="M451 661v20q0 32 -3.5 49.5t-11 24.5t-20 6.5t-31.5 -3.5q-6 -1 -6 3.5t6 5.5q38 7 66.5 19.5t54.5 26.5q2 2 11 -0.5t9 -6.5v-145h24t24 1q25 1 30 1t5 -2q0 -5 -12 -17.5t-34 -33.5h-37v-491q0 -37 1 -58.5t6 -33t15 -15t29 -3.5q6 0 6 -4.5t-6 -4.5q-46 0 -71 -2.5
t-50 -7.5q-12 -3 -12 9q0 5 3 32.5t4 70.5q-36 -53 -91 -82.5t-114 -29.5q-43 0 -81 17.5t-66.5 48.5t-45.5 74t-17 95q0 62 24.5 114t65 90t92 59.5t105.5 21.5q40 0 72.5 -14.5t55.5 -32.5v148h-6q-31 0 -57.5 -0.5t-58.5 -1.5q-25 -1 -30 -0.5t-5 2.5q0 5 12 17.5
t34 33.5q14 0 42 -0.5t61 -0.5h8zM281 488q-81 0 -128 -56t-47 -167q0 -44 12.5 -87t36.5 -77.5t59.5 -56t82.5 -21.5q46 0 87 26.5t67 68.5v271l-31.5 31.5t-39.5 32.5t-47 25t-52 10z" />
    <glyph glyph-name="Emacron" unicode="&#x112;" horiz-adv-x="622" 
d="M171 365h83q47 0 76.5 8.5t46.5 23.5t23 36t6 47v21q0 6 5 6t5 -6q0 -11 -1 -32.5t-1.5 -44t-1.5 -41t-1 -24.5q0 -5 1 -25t1.5 -43t1.5 -43t1 -26t-5 -6t-5 6v15q0 26 -6 47.5t-23 36.5t-46.5 23.5t-76.5 8.5h-83v-192q0 -58 -2.5 -96t-5.5 -51q11 0 37.5 -0.5t56.5 -1
t56.5 -1t38.5 -0.5q43 0 80 17t64.5 45.5t44.5 65t22 74.5l6 53q1 5 6.5 4.5t4.5 -5.5l-6 -54l-11.5 -100t-8 -62t-6 -33t-5.5 -12q-2 -2 -13 -2.5t-29 -1t-41.5 -0.5h-49.5h-31h-38.5t-42 0.5t-41.5 0.5l-100 2l-141 -3q-8 0 -8 3.5t8 3.5q22 0 35 3t21 16t12 40t7 74
q2 26 3 62t1 76v80.5v75.5q0 92 -2 142.5t-8.5 74.5t-18 28.5t-29.5 4.5h-18q-6 0 -6 4.5t6 4.5q10 0 27 -0.5l33.5 -1t30.5 -1t20 -0.5h28t61.5 0.5t78.5 1t80 1t66.5 0.5h37.5q14 0 28 -1t19 -3q4 -2 11 -52.5l18 -131.5l4 -36q2 -5 -3 -5t-7 5l-5 36q-14 85 -69.5 130
t-141.5 46h-127q-17 0 -25 -4t-11 -27.5t-2.5 -73.5t0.5 -142v-69zM310 842h44t46 1t30 1t5 -2q0 -5 -12 -17.5t-34 -33.5q-6 0 -29 0.5t-49 0.5h-20.5t-17 -0.5l-17.5 -1t-21 -0.5q-25 -1 -30 -0.5t-5 2.5q0 5 12 17.5t34 33.5q6 0 21.5 -0.5t41.5 -0.5h1z" />
    <glyph glyph-name="emacron" unicode="&#x113;" horiz-adv-x="516" 
d="M285 -10q-57 0 -103.5 18t-79.5 50t-50.5 76t-17.5 96q0 56 24 107t63 89.5t89 61t102 22.5q54 0 89 -14.5t54.5 -35.5t26 -44.5t4.5 -40.5q-2 -13 -10.5 -22t-31.5 -9h-342q-8 -37 -8 -77q0 -46 19 -86t51.5 -69.5t76.5 -46.5t95 -17q46 0 83 13.5t67.5 39t55 61
t45.5 80.5q4 9 7.5 7.5t-0.5 -9.5q-20 -46 -49.5 -91t-68.5 -80t-86.5 -57t-104.5 -22zM350 356q11 0 24.5 3.5t15.5 5.5q9 10 9 32q0 14 -7 30t-21.5 29.5t-36 22.5t-50.5 9q-65 0 -112.5 -34t-67.5 -102q42 0 77 0.5t64 1.5t55 1.5t50 0.5zM307 636h44t46 1t30 1t5 -2
q0 -5 -12 -17.5t-34 -33.5q-6 0 -29 0.5t-49 0.5h-20.5t-17 -0.5l-17.5 -1t-21 -0.5q-25 -1 -30 -0.5t-5 2.5q0 5 12 17.5t34 33.5q6 0 21.5 -0.5t41.5 -0.5h1z" />
    <glyph glyph-name="Ebreve" unicode="&#x114;" horiz-adv-x="622" 
d="M171 365h83q47 0 76.5 8.5t46.5 23.5t23 36t6 47v21q0 6 5 6t5 -6q0 -11 -1 -32.5t-1.5 -44t-1.5 -41t-1 -24.5q0 -5 1 -25t1.5 -43t1.5 -43t1 -26t-5 -6t-5 6v15q0 26 -6 47.5t-23 36.5t-46.5 23.5t-76.5 8.5h-83v-192q0 -58 -2.5 -96t-5.5 -51q11 0 37.5 -0.5t56.5 -1
t56.5 -1t38.5 -0.5q43 0 80 17t64.5 45.5t44.5 65t22 74.5l6 53q1 5 6.5 4.5t4.5 -5.5l-6 -54l-11.5 -100t-8 -62t-6 -33t-5.5 -12q-2 -2 -13 -2.5t-29 -1t-41.5 -0.5h-49.5h-31h-38.5t-42 0.5t-41.5 0.5l-100 2l-141 -3q-8 0 -8 3.5t8 3.5q22 0 35 3t21 16t12 40t7 74
q2 26 3 62t1 76v80.5v75.5q0 92 -2 142.5t-8.5 74.5t-18 28.5t-29.5 4.5h-18q-6 0 -6 4.5t6 4.5q10 0 27 -0.5l33.5 -1t30.5 -1t20 -0.5h28t61.5 0.5t78.5 1t80 1t66.5 0.5h37.5q14 0 28 -1t19 -3q4 -2 11 -52.5l18 -131.5l4 -36q2 -5 -3 -5t-7 5l-5 36q-14 85 -69.5 130
t-141.5 46h-127q-17 0 -25 -4t-11 -27.5t-2.5 -73.5t0.5 -142v-69zM311 776q-37 0 -66 20t-53 52q-6 7 -6 12q0 7 23 14q15 5 21 4.5t11 -7.5q27 -35 50 -54.5t52 -19.5q20 0 39.5 19t35.5 56q3 7 11 7q5 0 8 -3.5t0 -7.5q-10 -17 -24.5 -33.5t-31 -29t-34.5 -20.5t-36 -9z
" />
    <glyph glyph-name="ebreve" unicode="&#x115;" horiz-adv-x="516" 
d="M285 -10q-57 0 -103.5 18t-79.5 50t-50.5 76t-17.5 96q0 56 24 107t63 89.5t89 61t102 22.5q54 0 89 -14.5t54.5 -35.5t26 -44.5t4.5 -40.5q-2 -13 -10.5 -22t-31.5 -9h-342q-8 -37 -8 -77q0 -46 19 -86t51.5 -69.5t76.5 -46.5t95 -17q46 0 83 13.5t67.5 39t55 61
t45.5 80.5q4 9 7.5 7.5t-0.5 -9.5q-20 -46 -49.5 -91t-68.5 -80t-86.5 -57t-104.5 -22zM350 356q11 0 24.5 3.5t15.5 5.5q9 10 9 32q0 14 -7 30t-21.5 29.5t-36 22.5t-50.5 9q-65 0 -112.5 -34t-67.5 -102q42 0 77 0.5t64 1.5t55 1.5t50 0.5zM297 587q-37 0 -66 20t-53 52
q-6 7 -6 12q0 7 23 14q15 5 21 4.5t11 -7.5q27 -35 50 -54.5t52 -19.5q20 0 39.5 19t35.5 56q3 7 11 7q5 0 8 -3.5t0 -7.5q-10 -17 -24.5 -33.5t-31 -29t-34.5 -20.5t-36 -9z" />
    <glyph glyph-name="Edotaccent" unicode="&#x116;" horiz-adv-x="622" 
d="M171 365h83q47 0 76.5 8.5t46.5 23.5t23 36t6 47v21q0 6 5 6t5 -6q0 -11 -1 -32.5t-1.5 -44t-1.5 -41t-1 -24.5q0 -5 1 -25t1.5 -43t1.5 -43t1 -26t-5 -6t-5 6v15q0 26 -6 47.5t-23 36.5t-46.5 23.5t-76.5 8.5h-83v-192q0 -58 -2.5 -96t-5.5 -51q11 0 37.5 -0.5t56.5 -1
t56.5 -1t38.5 -0.5q43 0 80 17t64.5 45.5t44.5 65t22 74.5l6 53q1 5 6.5 4.5t4.5 -5.5l-6 -54l-11.5 -100t-8 -62t-6 -33t-5.5 -12q-2 -2 -13 -2.5t-29 -1t-41.5 -0.5h-49.5h-31h-38.5t-42 0.5t-41.5 0.5l-100 2l-141 -3q-8 0 -8 3.5t8 3.5q22 0 35 3t21 16t12 40t7 74
q2 26 3 62t1 76v80.5v75.5q0 92 -2 142.5t-8.5 74.5t-18 28.5t-29.5 4.5h-18q-6 0 -6 4.5t6 4.5q10 0 27 -0.5l33.5 -1t30.5 -1t20 -0.5h28t61.5 0.5t78.5 1t80 1t66.5 0.5h37.5q14 0 28 -1t19 -3q4 -2 11 -52.5l18 -131.5l4 -36q2 -5 -3 -5t-7 5l-5 36q-14 85 -69.5 130
t-141.5 46h-127q-17 0 -25 -4t-11 -27.5t-2.5 -73.5t0.5 -142v-69zM259 833q0 22 15 37.5t37 15.5t37.5 -15.5t15.5 -37.5t-15.5 -37t-37.5 -15t-37 15t-15 37z" />
    <glyph glyph-name="edotaccent" unicode="&#x117;" horiz-adv-x="516" 
d="M285 -10q-57 0 -103.5 18t-79.5 50t-50.5 76t-17.5 96q0 56 24 107t63 89.5t89 61t102 22.5q54 0 89 -14.5t54.5 -35.5t26 -44.5t4.5 -40.5q-2 -13 -10.5 -22t-31.5 -9h-342q-8 -37 -8 -77q0 -46 19 -86t51.5 -69.5t76.5 -46.5t95 -17q46 0 83 13.5t67.5 39t55 61
t45.5 80.5q4 9 7.5 7.5t-0.5 -9.5q-20 -46 -49.5 -91t-68.5 -80t-86.5 -57t-104.5 -22zM350 356q11 0 24.5 3.5t15.5 5.5q9 10 9 32q0 14 -7 30t-21.5 29.5t-36 22.5t-50.5 9q-65 0 -112.5 -34t-67.5 -102q42 0 77 0.5t64 1.5t55 1.5t50 0.5zM268 639q0 22 15 37.5t37 15.5
t37.5 -15.5t15.5 -37.5t-15.5 -37t-37.5 -15t-37 15t-15 37z" />
    <glyph glyph-name="Eogonek" unicode="&#x118;" horiz-adv-x="622" 
d="M171 365h83q47 0 76.5 8.5t46.5 23.5t23 36t6 47v21q0 6 5 6t5 -6q0 -11 -1 -32.5t-1.5 -44t-1.5 -41t-1 -24.5q0 -5 1 -25t1.5 -43t1.5 -43t1 -26t-5 -6t-5 6v15q0 26 -6 47.5t-23 36.5t-46.5 23.5t-76.5 8.5h-83v-192q0 -58 -2.5 -96t-5.5 -51q11 0 37.5 -0.5t56.5 -1
t56.5 -1t38.5 -0.5q43 0 80 17t64.5 45.5t44.5 65t22 74.5l6 53q1 5 6.5 4.5t4.5 -5.5l-6 -54q-6 -58 -11 -96.5t-8.5 -61.5t-6 -34t-4.5 -14q-17 -21 -27.5 -35.5t-17 -25t-9 -18.5t-3.5 -15q-2 -19 10.5 -31.5t41.5 -12.5q24 0 43.5 7.5t31.5 13.5q1 1 -3 -9t-10 -23
t-13 -25t-11 -15q-9 -4 -28.5 -8.5t-39.5 -4.5q-32 0 -50 19t-13 54q2 23 23 52t59 73q-17 -1 -48.5 -1h-69.5h-31h-38.5t-42 0.5t-41.5 0.5l-100 2l-141 -3q-8 0 -8 3.5t8 3.5q22 0 35 3t21 16t12 40t7 74q2 26 3 62t1 76v80.5v75.5q0 92 -2 142.5t-8.5 74.5t-18 28.5
t-29.5 4.5h-18q-6 0 -6 4.5t6 4.5q10 0 27 -0.5l33.5 -1t30.5 -1t20 -0.5h28t61.5 0.5t78.5 1t80 1t66.5 0.5h37.5q14 0 28 -1t19 -3q4 -2 11 -52.5l18 -131.5l4 -36q2 -5 -3 -5t-7 5l-5 36q-14 85 -69.5 130t-141.5 46h-127q-17 0 -25 -4t-11 -27.5t-2.5 -73.5t0.5 -142
v-69z" />
    <glyph glyph-name="eogonek" unicode="&#x119;" horiz-adv-x="516" 
d="M408 -134q24 0 43.5 7.5t31.5 13.5q1 1 -3 -9t-10 -23t-13 -25t-11 -15q-9 -4 -28.5 -8.5t-39.5 -4.5q-32 0 -50 19t-13 54q3 26 29.5 61t76.5 92q-30 -18 -64 -28t-72 -10q-57 0 -103.5 18t-79.5 50t-50.5 76t-17.5 96q0 56 24 107t63 89.5t89 61t102 22.5
q54 0 89 -14.5t54.5 -35.5t26 -44.5t4.5 -40.5q-2 -13 -10.5 -22t-31.5 -9h-342q-8 -37 -8 -77q0 -46 19 -86t51.5 -69.5t76.5 -46.5t95 -17q46 0 83 13.5t67.5 39t55 61t45.5 80.5q4 9 7.5 7.5t-0.5 -9.5q-24 -55 -61 -107.5t-88 -88.5l-44 -53.5t-26.5 -36.5t-13.5 -25
t-5 -19q-2 -19 10.5 -31.5t41.5 -12.5zM350 356q11 0 24.5 3.5t15.5 5.5q9 10 9 32q0 14 -7 30t-21.5 29.5t-36 22.5t-50.5 9q-65 0 -112.5 -34t-67.5 -102q42 0 77 0.5t64 1.5t55 1.5t50 0.5z" />
    <glyph glyph-name="Ecaron" unicode="&#x11a;" horiz-adv-x="622" 
d="M171 365h83q47 0 76.5 8.5t46.5 23.5t23 36t6 47v21q0 6 5 6t5 -6q0 -11 -1 -32.5t-1.5 -44t-1.5 -41t-1 -24.5q0 -5 1 -25t1.5 -43t1.5 -43t1 -26t-5 -6t-5 6v15q0 26 -6 47.5t-23 36.5t-46.5 23.5t-76.5 8.5h-83v-192q0 -58 -2.5 -96t-5.5 -51q11 0 37.5 -0.5t56.5 -1
t56.5 -1t38.5 -0.5q43 0 80 17t64.5 45.5t44.5 65t22 74.5l6 53q1 5 6.5 4.5t4.5 -5.5l-6 -54l-11.5 -100t-8 -62t-6 -33t-5.5 -12q-2 -2 -13 -2.5t-29 -1t-41.5 -0.5h-49.5h-31h-38.5t-42 0.5t-41.5 0.5l-100 2l-141 -3q-8 0 -8 3.5t8 3.5q22 0 35 3t21 16t12 40t7 74
q2 26 3 62t1 76v80.5v75.5q0 92 -2 142.5t-8.5 74.5t-18 28.5t-29.5 4.5h-18q-6 0 -6 4.5t6 4.5q10 0 27 -0.5l33.5 -1t30.5 -1t20 -0.5h28t61.5 0.5t78.5 1t80 1t66.5 0.5h37.5q14 0 28 -1t19 -3q4 -2 11 -52.5l18 -131.5l4 -36q2 -5 -3 -5t-7 5l-5 36q-14 85 -69.5 130
t-141.5 46h-127q-17 0 -25 -4t-11 -27.5t-2.5 -73.5t0.5 -142v-69zM307 782q4 -4 7 0l82 122q6 8 13 13.5t21 5.5q10 0 15 -4.5t5 -9.5q0 -3 -2.5 -9t-15.5 -20q-9 -10 -22.5 -23l-29 -27l-32.5 -29l-33 -28q-2 -2 -4.5 -2t-4.5 2l-67.5 52.5l-53.5 44.5q-12 11 -16 17.5
t-4 11.5q0 6 6 13.5t17 7.5q13 0 21 -6.5t14 -14.5l37.5 -52.5z" />
    <glyph glyph-name="ecaron" unicode="&#x11b;" horiz-adv-x="516" 
d="M285 -10q-57 0 -103.5 18t-79.5 50t-50.5 76t-17.5 96q0 56 24 107t63 89.5t89 61t102 22.5q54 0 89 -14.5t54.5 -35.5t26 -44.5t4.5 -40.5q-2 -13 -10.5 -22t-31.5 -9h-342q-8 -37 -8 -77q0 -46 19 -86t51.5 -69.5t76.5 -46.5t95 -17q46 0 83 13.5t67.5 39t55 61
t45.5 80.5q4 9 7.5 7.5t-0.5 -9.5q-20 -46 -49.5 -91t-68.5 -80t-86.5 -57t-104.5 -22zM350 356q11 0 24.5 3.5t15.5 5.5q9 10 9 32q0 14 -7 30t-21.5 29.5t-36 22.5t-50.5 9q-65 0 -112.5 -34t-67.5 -102q42 0 77 0.5t64 1.5t55 1.5t50 0.5zM302 588q4 -4 7 0l82 122
q6 8 13 13.5t21 5.5q10 0 15 -4.5t5 -9.5q0 -3 -2.5 -9t-15.5 -20q-9 -10 -22.5 -23l-29 -27l-32.5 -29l-33 -28q-2 -2 -4.5 -2t-4.5 2l-67.5 52.5l-53.5 44.5q-12 11 -16 17.5t-4 11.5q0 6 6 13.5t17 7.5q13 0 21 -6.5t14 -14.5l37.5 -52.5z" />
    <glyph glyph-name="Gcircumflex" unicode="&#x11c;" horiz-adv-x="770" 
d="M428 693q-69 0 -123.5 -25t-92.5 -70.5t-58.5 -109.5t-20.5 -142q0 -77 19 -140.5t56 -109.5t90.5 -71t121.5 -25q65 0 112 16t89 40q1 2 1.5 7t1 18.5t0.5 38.5v66q0 38 -0.5 71t-1.5 41q-14 4 -34 5.5t-44 2.5q-17 1 -42.5 1.5t-55 1l-60.5 1t-59 0.5q-5 0 -4.5 3.5
t5.5 3.5h67.5t88.5 1t101.5 3.5t108.5 6.5q6 0 6 -8q-1 -72 -1 -152v-170q0 -7 -8 -1q-12 10 -31.5 20t-30.5 10q-15 0 -36.5 -6t-48 -12.5t-57.5 -12.5t-65 -6q-81 0 -150 27t-120 74.5t-80 112.5t-29 142q0 78 31 144t83.5 113t122 73.5t146.5 26.5q31 0 66.5 -3.5
t69 -9.5t63.5 -14t50 -17l12 -213q1 -6 -3.5 -7t-5.5 6q-24 248 -250 248zM442 912q-4 4 -7 0l-82 -122q-6 -8 -13 -13.5t-21 -5.5q-10 0 -15 4.5t-5 9.5q0 3 2.5 9t15.5 20q9 10 22.5 23l29 27l32 29t33.5 28q4 4 9 0l67.5 -52.5l53.5 -44.5q12 -11 16 -17.5t4 -11.5
q0 -6 -6 -13.5t-17 -7.5q-13 0 -21 6.5t-14 14.5l-37.5 52.5z" />
    <glyph glyph-name="gcircumflex" unicode="&#x11d;" horiz-adv-x="502" 
d="M465 484q-11 0 -33 3t-49 6l-56.5 6t-56.5 3v-2q78 -11 120 -57t42 -114q0 -40 -16 -71.5t-44 -54t-67 -34.5t-84 -12h-18q-23 -2 -44 -5.5t-37.5 -10.5t-26.5 -16.5t-10 -21.5q0 -29 33.5 -36t99.5 -7h134q43 0 72.5 -9t48.5 -24t27.5 -34.5t8.5 -40.5
q0 -32 -14.5 -63.5t-40 -60t-59.5 -53t-72.5 -42t-79.5 -27.5t-80 -10t-70 9.5t-52 27t-32 40.5t-11 50q0 29 14.5 55.5t38.5 49.5t54 40.5t60 28.5q-60 2 -96.5 16.5t-36.5 50.5q0 16 11 32t30 28.5t45 22t56 14.5q-64 11 -102.5 52.5t-38.5 113.5q0 38 16 71t44.5 57.5
t66.5 38.5t82 14q37 0 75.5 6t72 13t58 13t33.5 6q8 0 18.5 -3t10.5 -12q0 -6 -3 -14.5t-9 -15.5t-14.5 -12t-18.5 -5zM227 -249q47 0 92.5 12t81 33t57.5 50t22 63q0 48 -39 67.5t-124 19.5h-130q-65 -20 -105 -56t-40 -78q0 -54 47.5 -82.5t133.5 -28.5h4zM232 167
q61 0 93.5 41.5t32.5 120.5q0 32 -8 62.5t-23.5 54t-38 38t-52.5 14.5q-128 0 -128 -160q0 -36 7.5 -67.5t23 -54.5t39 -36t54.5 -13zM244 718q-4 4 -7 0l-82 -122q-6 -8 -13 -13.5t-21 -5.5q-10 0 -15 4.5t-5 9.5q0 3 2.5 9t15.5 20q9 10 22.5 23l29 27l32 29t33.5 28
q4 4 9 0l67.5 -52.5l53.5 -44.5q12 -11 16 -17.5t4 -11.5q0 -6 -6 -13.5t-17 -7.5q-13 0 -21 6.5t-14 14.5l-37.5 52.5z" />
    <glyph glyph-name="Gbreve" unicode="&#x11e;" horiz-adv-x="770" 
d="M433 781q-37 0 -66 20t-53 52q-6 7 -6 12q0 7 23 14q15 5 21 4.5t11 -7.5q27 -35 50 -54.5t52 -19.5q20 0 39.5 19t35.5 56q3 7 11 7q5 0 8 -3.5t0 -7.5q-10 -17 -24.5 -33.5t-31 -29t-34.5 -20.5t-36 -9zM428 693q-69 0 -123.5 -25t-92.5 -70.5t-58.5 -109.5t-20.5 -142
q0 -77 19 -140.5t56 -109.5t90.5 -71t121.5 -25q65 0 112 16t89 40q1 2 1.5 7t1 18.5t0.5 38.5v66q0 38 -0.5 71t-1.5 41q-14 4 -34 5.5t-44 2.5q-17 1 -42.5 1.5t-55 1l-60.5 1t-59 0.5q-5 0 -4.5 3.5t5.5 3.5h67.5t88.5 1t101.5 3.5t108.5 6.5q6 0 6 -8q-1 -72 -1 -152
v-170q0 -7 -8 -1q-12 10 -31.5 20t-30.5 10q-15 0 -36.5 -6t-48 -12.5t-57.5 -12.5t-65 -6q-81 0 -150 27t-120 74.5t-80 112.5t-29 142q0 78 31 144t83.5 113t122 73.5t146.5 26.5q31 0 66.5 -3.5t69 -9.5t63.5 -14t50 -17l12 -213q1 -6 -3.5 -7t-5.5 6q-24 248 -250 248z
" />
    <glyph glyph-name="gbreve" unicode="&#x11f;" horiz-adv-x="502" 
d="M465 484q-11 0 -33 3t-49 6l-56.5 6t-56.5 3v-2q78 -11 120 -57t42 -114q0 -40 -16 -71.5t-44 -54t-67 -34.5t-84 -12h-18q-23 -2 -44 -5.5t-37.5 -10.5t-26.5 -16.5t-10 -21.5q0 -29 33.5 -36t99.5 -7h134q43 0 72.5 -9t48.5 -24t27.5 -34.5t8.5 -40.5
q0 -32 -14.5 -63.5t-40 -60t-59.5 -53t-72.5 -42t-79.5 -27.5t-80 -10t-70 9.5t-52 27t-32 40.5t-11 50q0 29 14.5 55.5t38.5 49.5t54 40.5t60 28.5q-60 2 -96.5 16.5t-36.5 50.5q0 16 11 32t30 28.5t45 22t56 14.5q-64 11 -102.5 52.5t-38.5 113.5q0 38 16 71t44.5 57.5
t66.5 38.5t82 14q37 0 75.5 6t72 13t58 13t33.5 6q8 0 18.5 -3t10.5 -12q0 -6 -3 -14.5t-9 -15.5t-14.5 -12t-18.5 -5zM227 -249q47 0 92.5 12t81 33t57.5 50t22 63q0 48 -39 67.5t-124 19.5h-130q-65 -20 -105 -56t-40 -78q0 -54 47.5 -82.5t133.5 -28.5h4zM232 167
q61 0 93.5 41.5t32.5 120.5q0 32 -8 62.5t-23.5 54t-38 38t-52.5 14.5q-128 0 -128 -160q0 -36 7.5 -67.5t23 -54.5t39 -36t54.5 -13zM246 587q-37 0 -66 20t-53 52q-6 7 -6 12q0 7 23 14q15 5 21 4.5t11 -7.5q27 -35 50 -54.5t52 -19.5q20 0 39.5 19t35.5 56q3 7 11 7
q5 0 8 -3.5t0 -7.5q-10 -17 -24.5 -33.5t-31 -29t-34.5 -20.5t-36 -9z" />
    <glyph glyph-name="Gdotaccent" unicode="&#x120;" horiz-adv-x="770" 
d="M385 833q0 22 15 37.5t37 15.5t37.5 -15.5t15.5 -37.5t-15.5 -37t-37.5 -15t-37 15t-15 37zM428 693q-69 0 -123.5 -25t-92.5 -70.5t-58.5 -109.5t-20.5 -142q0 -77 19 -140.5t56 -109.5t90.5 -71t121.5 -25q65 0 112 16t89 40q1 2 1.5 7t1 18.5t0.5 38.5v66
q0 38 -0.5 71t-1.5 41q-14 4 -34 5.5t-44 2.5q-17 1 -42.5 1.5t-55 1l-60.5 1t-59 0.5q-5 0 -4.5 3.5t5.5 3.5h67.5t88.5 1t101.5 3.5t108.5 6.5q6 0 6 -8q-1 -72 -1 -152v-170q0 -7 -8 -1q-12 10 -31.5 20t-30.5 10q-15 0 -36.5 -6t-48 -12.5t-57.5 -12.5t-65 -6
q-81 0 -150 27t-120 74.5t-80 112.5t-29 142q0 78 31 144t83.5 113t122 73.5t146.5 26.5q31 0 66.5 -3.5t69 -9.5t63.5 -14t50 -17l12 -213q1 -6 -3.5 -7t-5.5 6q-24 248 -250 248z" />
    <glyph glyph-name="gdotaccent" unicode="&#x121;" horiz-adv-x="502" 
d="M465 484q-11 0 -33 3t-49 6l-56.5 6t-56.5 3v-2q78 -11 120 -57t42 -114q0 -40 -16 -71.5t-44 -54t-67 -34.5t-84 -12h-18q-23 -2 -44 -5.5t-37.5 -10.5t-26.5 -16.5t-10 -21.5q0 -29 33.5 -36t99.5 -7h134q43 0 72.5 -9t48.5 -24t27.5 -34.5t8.5 -40.5
q0 -32 -14.5 -63.5t-40 -60t-59.5 -53t-72.5 -42t-79.5 -27.5t-80 -10t-70 9.5t-52 27t-32 40.5t-11 50q0 29 14.5 55.5t38.5 49.5t54 40.5t60 28.5q-60 2 -96.5 16.5t-36.5 50.5q0 16 11 32t30 28.5t45 22t56 14.5q-64 11 -102.5 52.5t-38.5 113.5q0 38 16 71t44.5 57.5
t66.5 38.5t82 14q37 0 75.5 6t72 13t58 13t33.5 6q8 0 18.5 -3t10.5 -12q0 -6 -3 -14.5t-9 -15.5t-14.5 -12t-18.5 -5zM227 -249q47 0 92.5 12t81 33t57.5 50t22 63q0 48 -39 67.5t-124 19.5h-130q-65 -20 -105 -56t-40 -78q0 -54 47.5 -82.5t133.5 -28.5h4zM232 167
q61 0 93.5 41.5t32.5 120.5q0 32 -8 62.5t-23.5 54t-38 38t-52.5 14.5q-128 0 -128 -160q0 -36 7.5 -67.5t23 -54.5t39 -36t54.5 -13zM186 639q0 22 15 37.5t37 15.5t37.5 -15.5t15.5 -37.5t-15.5 -37t-37.5 -15t-37 15t-15 37z" />
    <glyph glyph-name="Gcommaaccent" unicode="&#x122;" horiz-adv-x="770" 
d="M428 693q-69 0 -123.5 -25t-92.5 -70.5t-58.5 -109.5t-20.5 -142q0 -77 19 -140.5t56 -109.5t90.5 -71t121.5 -25q65 0 112 16t89 40q1 2 1.5 7t1 18.5t0.5 38.5v66q0 38 -0.5 71t-1.5 41q-14 4 -34 5.5t-44 2.5q-17 1 -42.5 1.5t-55 1l-60.5 1t-59 0.5q-5 0 -4.5 3.5
t5.5 3.5h67.5t88.5 1t101.5 3.5t108.5 6.5q6 0 6 -8q-1 -72 -1 -152v-170q0 -7 -8 -1q-12 10 -31.5 20t-30.5 10q-15 0 -36.5 -6t-48 -12.5t-57.5 -12.5t-65 -6q-81 0 -150 27t-120 74.5t-80 112.5t-29 142q0 78 31 144t83.5 113t122 73.5t146.5 26.5q31 0 66.5 -3.5
t69 -9.5t63.5 -14t50 -17l12 -213q1 -6 -3.5 -7t-5.5 6q-24 248 -250 248zM406 -261q-4 -2 -5.5 -0.5t2.5 4.5q17 10 33.5 31.5t16.5 58.5q0 14 -5 27q-12 -20 -35 -20q-18 0 -30.5 12.5t-12.5 30.5q0 19 13 33t36 14q27 0 42.5 -22.5t15.5 -60.5q0 -19 -8 -36.5t-19.5 -32
t-23.5 -24.5t-20 -15z" />
    <glyph glyph-name="gcommaaccent" unicode="&#x123;" horiz-adv-x="502" 
d="M465 484q-11 0 -33 3t-49 6l-56.5 6t-56.5 3v-2q78 -11 120 -57t42 -114q0 -40 -16 -71.5t-44 -54t-67 -34.5t-84 -12h-18q-23 -2 -44 -5.5t-37.5 -10.5t-26.5 -16.5t-10 -21.5q0 -29 33.5 -36t99.5 -7h134q43 0 72.5 -9t48.5 -24t27.5 -34.5t8.5 -40.5
q0 -32 -14.5 -63.5t-40 -60t-59.5 -53t-72.5 -42t-79.5 -27.5t-80 -10t-70 9.5t-52 27t-32 40.5t-11 50q0 29 14.5 55.5t38.5 49.5t54 40.5t60 28.5q-60 2 -96.5 16.5t-36.5 50.5q0 16 11 32t30 28.5t45 22t56 14.5q-64 11 -102.5 52.5t-38.5 113.5q0 38 16 71t44.5 57.5
t66.5 38.5t82 14q37 0 75.5 6t72 13t58 13t33.5 6q8 0 18.5 -3t10.5 -12q0 -6 -3 -14.5t-9 -15.5t-14.5 -12t-18.5 -5zM227 -249q47 0 92.5 12t81 33t57.5 50t22 63q0 48 -39 67.5t-124 19.5h-130q-65 -20 -105 -56t-40 -78q0 -54 47.5 -82.5t133.5 -28.5h4zM232 167
q61 0 93.5 41.5t32.5 120.5q0 32 -8 62.5t-23.5 54t-38 38t-52.5 14.5q-128 0 -128 -160q0 -36 7.5 -67.5t23 -54.5t39 -36t54.5 -13zM251 769q4 2 5.5 0.5t-2.5 -4.5q-17 -10 -33.5 -31.5t-16.5 -58.5q0 -17 5 -27q10 20 35 20q18 0 30.5 -12.5t12.5 -30.5q0 -19 -13 -33
t-36 -14q-27 0 -42.5 22.5t-15.5 60.5q0 19 8 36.5t19 31.5t23.5 24.5t20.5 15.5z" />
    <glyph glyph-name="Hcircumflex" unicode="&#x124;" horiz-adv-x="696" 
d="M91 434q0 92 -1.5 142.5t-7 74.5t-16.5 28.5t-29 4.5h-13q-6 0 -6 4.5t6 4.5q10 0 26 -0.5l32 -1t29 -1t19 -0.5q5 0 19 0.5t31 1l33.5 1t27.5 0.5q6 0 6 -4.5t-6 -4.5h-20q-18 0 -29 -4.5t-16.5 -28.5t-7 -74.5t-1.5 -142.5v-80l184 2l178 -3v81q0 92 -1.5 142.5
t-7 74.5t-16.5 28.5t-29 4.5h-21q-6 0 -6 4.5t6 4.5q11 0 27.5 -0.5l33.5 -1t31 -1t20 -0.5t19.5 0.5t29.5 1l32 1t27 0.5q6 0 6 -4.5t-6 -4.5h-16q-18 0 -28.5 -4.5t-16 -28.5t-7 -74.5t-1.5 -142.5v-175q0 -92 1.5 -142.5t7 -74.5t16 -28.5t28.5 -4.5h16q6 0 6 -4.5
t-6 -4.5q-11 0 -27 0.5l-32 1t-29.5 1t-19.5 0.5t-20 -0.5t-31 -1l-33.5 -1t-27.5 -0.5q-6 0 -6 4.5t6 4.5h21q18 0 29 4.5t16.5 28.5t7 74.5t1.5 142.5v84l-177 -1q-54 0 -105 0.5t-80 1.5v-85q0 -92 1.5 -142.5t7 -74.5t16.5 -28.5t29 -4.5h20q6 0 6 -4.5t-6 -4.5
q-11 0 -27.5 0.5l-33.5 1t-31 1t-19 0.5q-6 0 -19 -0.5t-29 -1l-32 -1t-26 -0.5q-6 0 -6 4.5t6 4.5h13q18 0 29 4.5t16.5 28.5t7 74.5t1.5 142.5v175zM358 912q-4 4 -7 0l-82 -122q-6 -8 -13 -13.5t-21 -5.5q-10 0 -15 4.5t-5 9.5q0 3 2.5 9t15.5 20q9 10 22.5 23l29 27
l32 29t33.5 28q4 4 9 0l67.5 -52.5l53.5 -44.5q12 -11 16 -17.5t4 -11.5q0 -6 -6 -13.5t-17 -7.5q-13 0 -21 6.5t-14 14.5l-37.5 52.5z" />
    <glyph glyph-name="hcircumflex" unicode="&#x125;" 
d="M121 2q-6 0 -17.5 -0.5t-25.5 -0.5t-28 -0.5t-25 -0.5q-6 0 -6 4.5t6 4.5q16 0 25 3.5t13.5 15t5.5 33t1 58.5v562q0 32 -3 49.5t-10.5 25t-19.5 7t-31 -3.5q-6 -1 -6 3.5t6 5.5q38 7 66.5 19t54.5 26q2 2 10 -0.5t8 -6.5v-403q38 51 82 79t101 28q34 0 63.5 -9.5
t51.5 -33t35 -62.5t13 -98v-257q0 -29 11 -35.5t37 -5.5q6 0 6 -4.5t-6 -4.5q-3 0 -15 0.5t-26.5 0.5t-28 0.5t-19.5 0.5t-16 -0.5t-22.5 -0.5t-25.5 -0.5t-24 -0.5q-6 0 -6 4.5t6 4.5q17 0 27.5 2t16 12.5t7.5 32t2 61.5v200q0 46 -10 77.5t-27 50.5t-38.5 27t-44.5 8
q-47 0 -81 -21t-69 -68v-382h61q6 0 6 -4.5t-6 -4.5q-3 0 -14.5 0.5t-25 0.5t-26.5 0.5t-19 0.5zM99 994q-4 4 -7 0l-82 -122q-6 -8 -13 -13.5t-21 -5.5q-10 0 -15 4.5t-5 9.5q0 3 2.5 9t15.5 20q9 10 22.5 23l29 27l32 29t33.5 28q4 4 9 0l67.5 -52.5l53.5 -44.5
q12 -11 16 -17.5t4 -11.5q0 -6 -6 -13.5t-17 -7.5q-13 0 -21 6.5t-14 14.5l-37.5 52.5z" />
    <glyph glyph-name="Hbar" unicode="&#x126;" horiz-adv-x="696" 
d="M91 434v56.5t-1 47.5l-63 -3q-5 3 -5 11.5t5 12.5q14 -1 29.5 -1.5t33.5 -0.5q-1 46 -4 72t-9 38t-15.5 14.5t-24.5 2.5h-13q-6 0 -6 4.5t6 4.5q10 0 26 -0.5l32 -1t29 -1t19 -0.5q5 0 19 0.5t31 1l33.5 1t27.5 0.5q6 0 6 -4.5t-6 -4.5h-20q-15 0 -24.5 -2.5t-15.5 -15
t-9 -38.5t-4 -73q45 -1 91 -1.5t87 -0.5h88.5t93.5 2q-1 47 -4 73t-9 38.5t-15.5 15t-24.5 2.5h-21q-6 0 -6 4.5t6 4.5q11 0 27.5 -0.5l33.5 -1t31 -1t20 -0.5t19.5 0.5t29.5 1l32 1t27 0.5q6 0 6 -4.5t-6 -4.5h-16q-14 0 -23.5 -2.5t-15.5 -14.5t-9 -38t-4 -72q17 0 32 0.5
t29 1.5q5 -4 5 -12.5t-5 -11.5q-14 1 -29.5 1.5t-32.5 0.5v-278q0 -92 1.5 -142.5t7 -74.5t16 -28.5t28.5 -4.5h16q6 0 6 -4.5t-6 -4.5q-11 0 -27 0.5l-32 1t-29.5 1t-19.5 0.5t-20 -0.5t-31 -1l-33.5 -1t-27.5 -0.5q-6 0 -6 4.5t6 4.5h21q18 0 29 4.5t16.5 28.5t7 74.5
t1.5 142.5v84l-177 -1q-54 0 -105 0.5t-80 1.5v-85q0 -92 1.5 -142.5t7 -74.5t16.5 -28.5t29 -4.5h20q6 0 6 -4.5t-6 -4.5q-11 0 -27.5 0.5l-33.5 1t-31 1t-19 0.5q-6 0 -19 -0.5t-29 -1l-32 -1t-26 -0.5q-6 0 -6 4.5t6 4.5h13q18 0 29 4.5t16.5 28.5t7 74.5t1.5 142.5v175z
M529 434v57.5t-1 47.5q-46 2 -92.5 2.5t-88.5 0.5t-88.5 -0.5t-91.5 -1.5v-186l184 2l178 -3v81z" />
    <glyph glyph-name="hbar" unicode="&#x127;" 
d="M362 0q-6 0 -6 4.5t6 4.5q17 0 27.5 2t16 12.5t7.5 32t2 61.5v200q0 46 -10 77.5t-27 50.5t-38.5 27t-44.5 8q-47 0 -81 -21t-69 -68v-382h61q6 0 6 -4.5t-6 -4.5q-3 0 -14.5 0.5t-25 0.5t-26.5 0.5t-19 0.5t-17.5 -0.5t-25.5 -0.5t-28 -0.5t-25 -0.5q-6 0 -6 4.5t6 4.5
q16 0 25 3.5t13.5 15t5.5 33t1 58.5v491q-12 0 -24.5 -0.5t-26.5 -0.5q-25 -1 -30 -0.5t-5 2.5q0 5 12 17.5t34 33.5q6 0 16.5 -0.5t23.5 -0.5v20q0 32 -3 49.5t-10.5 25t-19.5 7t-31 -3.5q-6 -1 -6 3.5t6 5.5q38 7 66.5 19t54.5 26q2 2 10 -0.5t8 -6.5v-145h58.5t60.5 1
q25 1 30 1t5 -2q0 -5 -12 -17.5t-34 -33.5q-13 0 -44.5 0.5t-63.5 0.5v-208q38 51 82 79t101 28q34 0 63.5 -9.5t51.5 -33t35 -62.5t13 -98v-257q0 -29 11 -35.5t37 -5.5q6 0 6 -4.5t-6 -4.5q-3 0 -15 0.5t-26.5 0.5t-28 0.5t-19.5 0.5t-16 -0.5t-22.5 -0.5t-25.5 -0.5
t-24 -0.5z" />
    <glyph glyph-name="Itilde" unicode="&#x128;" horiz-adv-x="281" 
d="M102 434q0 92 -1.5 142.5t-7 74.5t-16.5 28.5t-29 4.5h-21q-6 0 -6 4.5t6 4.5q10 0 27.5 -0.5l35 -1t32 -1t19.5 -0.5q6 0 20 0.5t31.5 1l34 1t27.5 0.5q6 0 6 -4.5t-6 -4.5h-21q-18 0 -29 -4.5t-16.5 -28.5t-7 -74.5t-1.5 -142.5v-175q0 -92 1.5 -142.5t7 -74.5
t16.5 -28.5t29 -4.5h21q6 0 6 -4.5t-6 -4.5q-11 0 -27.5 0.5l-34 1t-31.5 1t-20 0.5q-5 0 -19.5 -0.5t-32 -1l-35 -1t-27.5 -0.5q-6 0 -6 4.5t6 4.5h21q18 0 29 4.5t16.5 28.5t7 74.5t1.5 142.5v175zM-16 792q39 50 58.5 71.5t37.5 21.5q16 0 36.5 -9t41 -20.5t39.5 -20.5
t33 -9q7 0 11.5 1t10.5 6t14.5 16.5l22.5 31.5q5 5 8.5 3.5t-1.5 -8.5q-32 -48 -56 -74t-48 -26q-15 0 -35 10t-40 21.5l-39 21.5t-34 10q-4 0 -7.5 -1.5t-9 -7t-14 -15.5t-22.5 -28q-6 -7 -8.5 -4.5t1.5 9.5z" />
    <glyph glyph-name="itilde" unicode="&#x129;" horiz-adv-x="226" 
d="M78 377q0 28 -3 44t-10.5 22.5t-19.5 6t-31 -4.5q-6 -2 -7.5 2t4.5 6q38 8 67 22.5t58 34.5q2 2 10 -0.5t8 -6.5v-393q0 -32 1.5 -52t7.5 -31t18 -14.5t33 -3.5q6 0 6 -4.5t-6 -4.5q-11 0 -25 0.5t-28 0.5t-25.5 0.5t-17.5 0.5t-18 -0.5t-27 -0.5t-30 -0.5t-26 -0.5
q-6 0 -6 4.5t6 4.5q21 0 33.5 3.5t18.5 14.5t7.5 31t1.5 52v267zM-44 598q39 50 58.5 71.5t37.5 21.5q16 0 36.5 -9t41 -20.5t39.5 -20.5t33 -9q7 0 11.5 1t10.5 6t14.5 16.5l22.5 31.5q5 5 8.5 3.5t-1.5 -8.5q-32 -48 -56 -74t-48 -26q-15 0 -35 10t-40 21.5l-39 21.5
t-34 10q-4 0 -7.5 -1.5t-9 -7t-14 -15.5t-22.5 -28q-6 -7 -8.5 -4.5t1.5 9.5z" />
    <glyph glyph-name="Imacron" unicode="&#x12a;" horiz-adv-x="281" 
d="M102 434q0 92 -1.5 142.5t-7 74.5t-16.5 28.5t-29 4.5h-21q-6 0 -6 4.5t6 4.5q10 0 27.5 -0.5l35 -1t32 -1t19.5 -0.5q6 0 20 0.5t31.5 1l34 1t27.5 0.5q6 0 6 -4.5t-6 -4.5h-21q-18 0 -29 -4.5t-16.5 -28.5t-7 -74.5t-1.5 -142.5v-175q0 -92 1.5 -142.5t7 -74.5
t16.5 -28.5t29 -4.5h21q6 0 6 -4.5t-6 -4.5q-11 0 -27.5 0.5l-34 1t-31.5 1t-20 0.5q-5 0 -19.5 -0.5t-32 -1l-35 -1t-27.5 -0.5q-6 0 -6 4.5t6 4.5h21q18 0 29 4.5t16.5 28.5t7 74.5t1.5 142.5v175zM142 842h44t46 1t30 1t5 -2q0 -5 -12 -17.5t-34 -33.5q-6 0 -29 0.5
t-49 0.5h-20.5t-17 -0.5l-17.5 -1t-21 -0.5q-25 -1 -30 -0.5t-5 2.5q0 5 12 17.5t34 33.5q6 0 21.5 -0.5t41.5 -0.5h1z" />
    <glyph glyph-name="imacron" unicode="&#x12b;" horiz-adv-x="226" 
d="M78 377q0 28 -3 44t-10.5 22.5t-19.5 6t-31 -4.5q-6 -2 -7.5 2t4.5 6q38 8 67 22.5t58 34.5q2 2 10 -0.5t8 -6.5v-393q0 -32 1.5 -52t7.5 -31t18 -14.5t33 -3.5q6 0 6 -4.5t-6 -4.5q-11 0 -25 0.5t-28 0.5t-25.5 0.5t-17.5 0.5t-18 -0.5t-27 -0.5t-30 -0.5t-26 -0.5
q-6 0 -6 4.5t6 4.5q21 0 33.5 3.5t18.5 14.5t7.5 31t1.5 52v267zM111 636h44t46 1t30 1t5 -2q0 -5 -12 -17.5t-34 -33.5q-6 0 -29 0.5t-49 0.5h-20.5t-17 -0.5l-17.5 -1t-21 -0.5q-25 -1 -30 -0.5t-5 2.5q0 5 12 17.5t34 33.5q6 0 21.5 -0.5t41.5 -0.5h1z" />
    <glyph glyph-name="Ibreve" unicode="&#x12c;" horiz-adv-x="281" 
d="M102 434q0 92 -1.5 142.5t-7 74.5t-16.5 28.5t-29 4.5h-21q-6 0 -6 4.5t6 4.5q10 0 27.5 -0.5l35 -1t32 -1t19.5 -0.5q6 0 20 0.5t31.5 1l34 1t27.5 0.5q6 0 6 -4.5t-6 -4.5h-21q-18 0 -29 -4.5t-16.5 -28.5t-7 -74.5t-1.5 -142.5v-175q0 -92 1.5 -142.5t7 -74.5
t16.5 -28.5t29 -4.5h21q6 0 6 -4.5t-6 -4.5q-11 0 -27.5 0.5l-34 1t-31.5 1t-20 0.5q-5 0 -19.5 -0.5t-32 -1l-35 -1t-27.5 -0.5q-6 0 -6 4.5t6 4.5h21q18 0 29 4.5t16.5 28.5t7 74.5t1.5 142.5v175zM143 781q-37 0 -66 20t-53 52q-6 7 -6 12q0 7 23 14q15 5 21 4.5t11 -7.5
q27 -35 50 -54.5t52 -19.5q20 0 39.5 19t35.5 56q3 7 11 7q5 0 8 -3.5t0 -7.5q-10 -17 -24.5 -33.5t-31 -29t-34.5 -20.5t-36 -9z" />
    <glyph glyph-name="ibreve" unicode="&#x12d;" horiz-adv-x="226" 
d="M78 377q0 28 -3 44t-10.5 22.5t-19.5 6t-31 -4.5q-6 -2 -7.5 2t4.5 6q38 8 67 22.5t58 34.5q2 2 10 -0.5t8 -6.5v-393q0 -32 1.5 -52t7.5 -31t18 -14.5t33 -3.5q6 0 6 -4.5t-6 -4.5q-11 0 -25 0.5t-28 0.5t-25.5 0.5t-17.5 0.5t-18 -0.5t-27 -0.5t-30 -0.5t-26 -0.5
q-6 0 -6 4.5t6 4.5q21 0 33.5 3.5t18.5 14.5t7.5 31t1.5 52v267zM108 587q-37 0 -66 20t-53 52q-6 7 -6 12q0 7 23 14q15 5 21 4.5t11 -7.5q27 -35 50 -54.5t52 -19.5q20 0 39.5 19t35.5 56q3 7 11 7q5 0 8 -3.5t0 -7.5q-10 -17 -24.5 -33.5t-31 -29t-34.5 -20.5t-36 -9z
" />
    <glyph glyph-name="Iogonek" unicode="&#x12e;" horiz-adv-x="281" 
d="M102 434q0 92 -1.5 142.5t-7 74.5t-16.5 28.5t-29 4.5h-21q-6 0 -6 4.5t6 4.5q10 0 27.5 -0.5l35 -1t32 -1t19.5 -0.5q6 0 20 0.5t31.5 1l34 1t27.5 0.5q6 0 6 -4.5t-6 -4.5h-21q-18 0 -29 -4.5t-16.5 -28.5t-7 -74.5t-1.5 -142.5v-175q0 -92 1.5 -142.5t7 -74.5
t16.5 -28.5t29 -4.5h21q5 0 5.5 -3t-1.5 -5l-25 -33.5t-16 -24t-8.5 -18t-3.5 -14.5q-2 -19 10.5 -31.5t41.5 -12.5q24 0 43.5 7.5t31.5 13.5q1 1 -3 -9t-10 -23t-13 -25t-11 -15q-9 -4 -28.5 -8.5t-39.5 -4.5q-32 0 -50 19t-13 54q3 23 23 51.5t58 72.5q-12 0 -27.5 0.5
l-31 1t-28 1t-17.5 0.5t-19.5 -0.5t-32 -1l-35 -1t-27.5 -0.5q-6 0 -6 4.5t6 4.5h21q18 0 29 4.5t16.5 28.5t7 74.5t1.5 142.5v175z" />
    <glyph glyph-name="iogonek" unicode="&#x12f;" horiz-adv-x="226" 
d="M78 377q0 28 -3 44t-10.5 22.5t-19.5 6t-31 -4.5q-6 -2 -7.5 2t4.5 6q38 8 67 22.5t58 34.5q2 2 10 -0.5t8 -6.5v-393q0 -32 1.5 -52t7.5 -31t18 -14.5t33 -3.5q6 0 6 -4.5t-6 -4.5q-30 -38 -40 -56.5t-12 -32.5q-2 -19 10.5 -31.5t41.5 -12.5q24 0 43.5 7.5t31.5 13.5
q1 1 -3 -9t-10 -23t-13 -25t-11 -15q-9 -4 -28.5 -8.5t-39.5 -4.5q-32 0 -50 19t-13 54q3 23 23.5 51.5t58.5 72.5q-23 0 -49 1t-36 1q-6 0 -18 -0.5t-27 -0.5t-30 -0.5t-26 -0.5q-6 0 -6 4.5t6 4.5q21 0 33.5 3.5t18.5 14.5t7.5 31t1.5 52v267zM60 648q0 22 15 37.5
t37 15.5t37.5 -15.5t15.5 -37.5t-15.5 -37t-37.5 -15t-37 15t-15 37z" />
    <glyph glyph-name="Idotaccent" unicode="&#x130;" horiz-adv-x="281" 
d="M102 434q0 92 -1.5 142.5t-7 74.5t-16.5 28.5t-29 4.5h-21q-6 0 -6 4.5t6 4.5q10 0 27.5 -0.5l35 -1t32 -1t19.5 -0.5q6 0 20 0.5t31.5 1l34 1t27.5 0.5q6 0 6 -4.5t-6 -4.5h-21q-18 0 -29 -4.5t-16.5 -28.5t-7 -74.5t-1.5 -142.5v-175q0 -92 1.5 -142.5t7 -74.5
t16.5 -28.5t29 -4.5h21q6 0 6 -4.5t-6 -4.5q-11 0 -27.5 0.5l-34 1t-31.5 1t-20 0.5q-5 0 -19.5 -0.5t-32 -1l-35 -1t-27.5 -0.5q-6 0 -6 4.5t6 4.5h21q18 0 29 4.5t16.5 28.5t7 74.5t1.5 142.5v175zM88 833q0 22 15 37.5t37 15.5t37.5 -15.5t15.5 -37.5t-15.5 -37
t-37.5 -15t-37 15t-15 37z" />
    <glyph glyph-name="dotlessi" unicode="&#x131;" horiz-adv-x="226" 
d="M75 377q0 28 -3 44t-10.5 22.5t-19.5 6t-31 -4.5q-6 -2 -7.5 2t4.5 6q38 8 67 22.5t58 34.5q2 2 10 -0.5t8 -6.5v-393q0 -32 1.5 -52t7.5 -31t18 -14.5t33 -3.5q6 0 6 -4.5t-6 -4.5q-11 0 -25 0.5t-28 0.5t-25.5 0.5t-17.5 0.5t-18 -0.5t-27 -0.5t-30 -0.5t-26 -0.5
q-6 0 -6 4.5t6 4.5q21 0 33.5 3.5t18.5 14.5t7.5 31t1.5 52v267z" />
    <glyph glyph-name="IJ" unicode="&#x132;" horiz-adv-x="546" 
d="M102 434q0 92 -1.5 142.5t-7 74.5t-16.5 28.5t-29 4.5h-21q-6 0 -6 4.5t6 4.5q10 0 27.5 -0.5l35 -1t32 -1t19.5 -0.5q6 0 20 0.5t31.5 1l34 1t27.5 0.5q6 0 6 -4.5t-6 -4.5h-21q-18 0 -29 -4.5t-16.5 -28.5t-7 -74.5t-1.5 -142.5v-175q0 -92 1.5 -142.5t7 -74.5
t16.5 -28.5t29 -4.5h21q6 0 6 -4.5t-6 -4.5q-11 0 -27.5 0.5l-34 1t-31.5 1t-20 0.5q-5 0 -19.5 -0.5t-32 -1l-35 -1t-27.5 -0.5q-6 0 -6 4.5t6 4.5h21q18 0 29 4.5t16.5 28.5t7 74.5t1.5 142.5v175zM449 319v-23.5t0.5 -28.5t0.5 -29.5v-24.5q0 -77 -9 -127.5t-28.5 -89.5
t-50.5 -73t-75 -77q-8 -8 -20 -18t-24.5 -19t-23.5 -15t-17 -6t-12 0.5t-11 1.5q-12 3 -19.5 9t-7.5 14q0 16 9 33.5t30 23.5q8 2 20 2q19 0 37 -0.5t25 -0.5q10 0 22 4t18 11q16 17 27 40.5t18 64.5t10 105.5t3 162.5v175q0 94 -1 145t-6.5 74.5t-16.5 27t-30 3.5h-26
q-6 0 -6 4.5t6 4.5q10 0 28.5 -0.5l37 -1t34 -1t20.5 -0.5q6 0 20.5 0.5t31.5 1l34 1t28 0.5q6 0 6 -4.5t-6 -4.5h-20q-21 0 -32 -4t-16.5 -27.5t-6.5 -74.5t-1 -144v-115z" />
    <glyph glyph-name="ij" unicode="&#x133;" horiz-adv-x="429" 
d="M355 49q-1 -32 -9 -61t-22 -56t-33 -54t-42 -55q-29 -36 -56 -60t-51 -24q-8 0 -18 2q-22 5 -22 18t12 30t29 22q6 2 16 2q15 0 29 -0.5t19 -0.5q8 0 17.5 3.5t14.5 8.5l11 13.5t13.5 29t11.5 57t5 98.5v355q0 28 -3.5 44t-11 22.5t-20 6t-31.5 -4.5q-6 -2 -7.5 2t4.5 6
q38 8 67 22.5t58 34.5q2 2 10 -0.5t8 -6.5zM75 377q0 28 -3 44t-10.5 22.5t-19.5 6t-31 -4.5q-6 -2 -7.5 2t4.5 6q38 8 67 22.5t58 34.5q2 2 10 -0.5t8 -6.5v-393q0 -32 1.5 -52t7.5 -31t18 -14.5t33 -3.5q6 0 6 -4.5t-6 -4.5q-11 0 -25 0.5t-28 0.5t-25.5 0.5t-17.5 0.5
t-18 -0.5t-27 -0.5t-30 -0.5t-26 -0.5q-6 0 -6 4.5t6 4.5q21 0 33.5 3.5t18.5 14.5t7.5 31t1.5 52v267zM260 648q0 22 15 37.5t37 15.5t37.5 -15.5t15.5 -37.5t-15.5 -37t-37.5 -15t-37 15t-15 37zM57 648q0 22 15 37.5t37 15.5t37.5 -15.5t15.5 -37.5t-15.5 -37t-37.5 -15
t-37 15t-15 37z" />
    <glyph glyph-name="Jcircumflex" unicode="&#x134;" horiz-adv-x="285" 
d="M188 319v-23.5t0.5 -28.5t0.5 -29.5v-24.5q0 -77 -9 -127.5t-28.5 -89.5t-50.5 -73t-75 -77q-8 -8 -20 -18t-24.5 -19t-23.5 -15t-17 -6t-12 0.5t-11 1.5q-12 3 -19.5 9t-7.5 14q0 16 9 33.5t30 23.5q8 2 20 2q19 0 37 -0.5t25 -0.5q10 0 22 4t18 11q16 17 27 40.5
t18 64.5t10 105.5t3 162.5v175q0 94 -1 145t-6.5 74.5t-16.5 27t-30 3.5h-26q-6 0 -6 4.5t6 4.5q10 0 28.5 -0.5l37 -1t34 -1t20.5 -0.5q6 0 20.5 0.5t31.5 1l34 1t28 0.5q6 0 6 -4.5t-6 -4.5h-20q-21 0 -32 -4t-16.5 -27.5t-6.5 -74.5t-1 -144v-115zM151 912q-4 4 -7 0
l-82 -122q-6 -8 -13 -13.5t-21 -5.5q-10 0 -15 4.5t-5 9.5q0 3 2.5 9t15.5 20q9 10 22.5 23l29 27l32 29t33.5 28q4 4 9 0l67.5 -52.5l53.5 -44.5q12 -11 16 -17.5t4 -11.5q0 -6 -6 -13.5t-17 -7.5q-13 0 -21 6.5t-14 14.5l-37.5 52.5z" />
    <glyph glyph-name="jcircumflex" unicode="&#x135;" horiz-adv-x="223" 
d="M149 49q-1 -32 -9 -61t-22 -56t-33 -54t-42 -55q-29 -36 -56 -60t-51 -24q-8 0 -18 2q-22 5 -22 18t12 30t29 22q6 2 16 2q15 0 29 -0.5t19 -0.5q8 0 17.5 3.5t14.5 8.5l11 13.5t13.5 29t11.5 57t5 98.5v355q0 28 -3.5 44t-11 22.5t-20 6t-31.5 -4.5q-6 -2 -7.5 2t4.5 6
q38 8 67 22.5t58 34.5q2 2 10 -0.5t8 -6.5zM113 723q-4 4 -7 0l-82 -122q-6 -8 -13 -13.5t-21 -5.5q-10 0 -15 4.5t-5 9.5q0 3 2.5 9t15.5 20q9 10 22.5 23l29 27l32 29t33.5 28q4 4 9 0l67.5 -52.5l53.5 -44.5q12 -11 16 -17.5t4 -11.5q0 -6 -6 -13.5t-17 -7.5
q-13 0 -21 6.5t-14 14.5l-37.5 52.5z" />
    <glyph glyph-name="Kcommaaccent" unicode="&#x136;" horiz-adv-x="668" 
d="M243 0q-3 0 -18 0.5t-33 0.5t-34 0.5t-22 0.5t-23 -0.5t-36.5 -0.5t-35.5 -0.5t-19 -0.5q-6 0 -6 4.5t6 4.5q19 0 30 0.5t16 1.5q11 11 14.5 30t5.5 60q1 21 1.5 48l1 55t0.5 54v43v133q0 92 -1.5 142.5t-7 74.5t-16.5 28.5t-29 4.5h-18q-6 0 -6 4.5t6 4.5q10 0 27 -0.5
l34.5 -1t31.5 -1t20 -0.5q5 0 18.5 0.5t30 1l32.5 1t27 0.5q6 0 6 -4.5t-6 -4.5h-18q-18 0 -29 -4.5t-17 -28.5t-7.5 -74.5t-1.5 -142.5v-140l180 194q59 63 87.5 107t28.5 65q-2 25 -39 25q-6 0 -13 -2t-10 -2q-9 0 -9 6t11 6q6 0 22 -0.5t33 -0.5t32.5 -0.5t21.5 -0.5
q5 0 18.5 0.5t30 0.5t32.5 0.5t25 0.5q5 0 5 -4.5t-5 -4.5h-2q-26 0 -48 -8.5t-49.5 -31t-66 -61.5l-96.5 -101l-96 -103q14 9 31.5 15t38.5 6q25 0 37 -3t25 -10q23 -12 38.5 -29.5t27.5 -41t23 -52t25 -61.5q24 -60 41.5 -98t33.5 -59.5t31 -29t35 -7.5h12q10 0 9.5 -4.5
t-11.5 -4.5h-34q-26 0 -43.5 -2t-28.5 -2q-17 0 -28 5t-22 19q-14 18 -30.5 54.5t-38.5 96.5l-25 70t-29.5 67.5t-36 51t-43.5 20.5q-14 0 -27.5 -4t-35.5 -23l-68 -73v-21q0 -92 1.5 -142.5t7 -74.5t16.5 -28.5t29 -4.5h22q6 0 6 -4.5t-6 -4.5zM341 -241q-4 -2 -5.5 -0.5
t2.5 4.5q17 10 33.5 31.5t16.5 58.5q0 14 -5 27q-12 -20 -35 -20q-18 0 -30.5 12.5t-12.5 30.5q0 19 13 33t36 14q27 0 42.5 -22.5t15.5 -60.5q0 -19 -8 -36.5t-19.5 -32t-23.5 -24.5t-20 -15z" />
    <glyph glyph-name="kcommaaccent" unicode="&#x137;" horiz-adv-x="552" 
d="M466 0q-10 0 -19.5 2t-18.5 8q-19 12 -41.5 43t-56.5 90l-82 137l-103 -105v-166h61q6 0 6 -4.5t-6 -4.5q-3 0 -14.5 0.5t-25 0.5t-26.5 0.5t-19 0.5t-17.5 -0.5t-25.5 -0.5t-28 -0.5t-25 -0.5q-6 0 -6 4.5t6 4.5q16 0 25 3.5t13.5 15t5.5 33t1 58.5v562q0 32 -3 49.5
t-10.5 25t-19.5 7t-31 -3.5q-6 -1 -6 3.5t6 5.5q38 7 66.5 19t54.5 26q2 2 10 -0.5t8 -6.5v-619l157 162q33 34 49 60t18 44t-9 27.5t-33 9.5q-5 0 -5 4.5t5 4.5q10 0 25 -0.5t30 -0.5t27.5 -0.5t17.5 -0.5t22 0.5t35.5 0.5t33.5 0.5t18 0.5q5 0 5 -4.5t-5 -4.5
q-48 0 -101.5 -36t-125.5 -111l-13 -13l97 -154q30 -48 54.5 -80.5t44.5 -51.5t36.5 -27t31.5 -8q6 0 6.5 -4.5t-6.5 -4.5h-94zM290 -251q-4 -2 -5.5 -0.5t2.5 4.5q17 10 33.5 31.5t16.5 58.5q0 14 -5 27q-12 -20 -35 -20q-18 0 -30.5 12.5t-12.5 30.5q0 19 13 33t36 14
q27 0 42.5 -22.5t15.5 -60.5q0 -19 -8 -36.5t-19.5 -32t-23.5 -24.5t-20 -15z" />
    <glyph glyph-name="kgreenlandic" unicode="&#x138;" horiz-adv-x="552" 
d="M466 0q-10 0 -19.5 2t-18.5 8q-19 12 -41.5 43t-56.5 90l-82 137l-102 -104v-66q0 -32 1.5 -52t7.5 -31t18 -14.5t33 -3.5q6 0 6 -4.5t-6 -4.5q-11 0 -25 0.5t-28 0.5t-25.5 0.5t-17.5 0.5t-18 -0.5t-27 -0.5t-30 -0.5t-26 -0.5q-6 0 -6 4.5t6 4.5q21 0 33.5 3.5
t18.5 14.5t7.5 31t1.5 52v267q0 28 -3 44t-10.5 22.5t-19.5 6t-31 -4.5q-6 -2 -7.5 2t4.5 6q38 8 67 22.5t58 34.5q2 2 10 -0.5t8 -6.5v-315l156 161q33 34 49 60t18 44t-9 27.5t-33 9.5q-5 0 -5 4.5t5 4.5q10 0 25 -0.5t30 -0.5t27.5 -0.5t17.5 -0.5t22 0.5t35.5 0.5
t33.5 0.5t18 0.5q5 0 5 -4.5t-5 -4.5q-48 0 -101.5 -36t-125.5 -111l-13 -13l97 -154q30 -48 54.5 -80.5t44.5 -51.5t36.5 -27t31.5 -8q6 0 6.5 -4.5t-6.5 -4.5h-94z" />
    <glyph glyph-name="Lacute" unicode="&#x139;" horiz-adv-x="609" 
d="M171 161q0 -58 -2.5 -96t-5.5 -51q11 0 38 -0.5t57 -1t57 -1t39 -0.5q43 0 79 21.5t63 55t43.5 74t21.5 78.5l10 91q1 5 6.5 4.5t4.5 -5.5l-10 -92l-12 -106t-8.5 -70.5t-6.5 -40.5t-6 -15q-2 -2 -13 -3t-29 -1.5t-41.5 -1t-49.5 -0.5h-31h-38t-41 0.5t-41 0.5l-98 2
l-141 -3q-8 0 -8 3.5t8 3.5q22 0 35 3t21 16t12 40t7 74q2 26 2.5 62t0 73t-1 69t-0.5 49t-0.5 43l-1 54l-1 55t-0.5 48q0 34 -1.5 52.5t-7.5 27t-19.5 10t-37.5 1.5q-6 0 -6 4.5t6 4.5q3 0 20.5 -0.5t38 -0.5t39 -0.5t24.5 -0.5t21.5 0.5t34.5 0.5t37.5 0.5t29.5 0.5
q6 0 6 -4.5t-6 -4.5h-28q-26 0 -39.5 -4.5t-20.5 -28.5t-8 -74.5t-1 -142.5v-273zM143 768q-2 -2 -4 -2q-4 0 -4 4q0 1 3 4q19 18 39 42t36.5 46.5l28.5 39.5t16 21t10.5 5t13.5 1q6 0 11 -0.5t7 -2.5q3 -3 3 -19q0 -4 -3.5 -8.5t-8.5 -8.5q-5 -5 -21.5 -17l-38.5 -28.5
t-45.5 -36.5t-42.5 -40z" />
    <glyph glyph-name="lacute" unicode="&#x13a;" horiz-adv-x="217" 
d="M121 2q-6 0 -17.5 -0.5t-25.5 -0.5t-28 -0.5t-25 -0.5q-6 0 -6 4.5t6 4.5q16 0 25 3.5t13.5 15t5.5 33t1 58.5v562q0 32 -3 49.5t-10.5 25t-19.5 7t-31 -3.5q-6 -1 -6 3.5t6 5.5q38 7 66.5 19t54.5 26q2 2 10 -0.5t8 -6.5v-687q0 -39 1.5 -61t7.5 -33t17.5 -13.5
t32.5 -2.5q6 0 6 -4.5t-6 -4.5q-22 0 -47 1t-36 1zM82 863q-2 -2 -4 -2q-4 0 -4 4q0 1 3 4q19 18 39 42t36.5 46.5l28.5 39.5t16 21t10.5 5t13.5 1q6 0 11 -0.5t7 -2.5q3 -3 3 -19q0 -4 -3.5 -8.5t-8.5 -8.5q-5 -5 -21.5 -17l-38.5 -28.5t-45.5 -36.5t-42.5 -40z" />
    <glyph glyph-name="Lcommaaccent" unicode="&#x13b;" horiz-adv-x="609" 
d="M171 161q0 -58 -2.5 -96t-5.5 -51q11 0 38 -0.5t57 -1t57 -1t39 -0.5q43 0 79 21.5t63 55t43.5 74t21.5 78.5l10 91q1 5 6.5 4.5t4.5 -5.5l-10 -92l-12 -106t-8.5 -70.5t-6.5 -40.5t-6 -15q-2 -2 -13 -3t-29 -1.5t-41.5 -1t-49.5 -0.5h-31h-38t-41 0.5t-41 0.5l-98 2
l-141 -3q-8 0 -8 3.5t8 3.5q22 0 35 3t21 16t12 40t7 74q2 26 2.5 62t0 73t-1 69t-0.5 49t-0.5 43l-1 54l-1 55t-0.5 48q0 34 -1.5 52.5t-7.5 27t-19.5 10t-37.5 1.5q-6 0 -6 4.5t6 4.5q3 0 20.5 -0.5t38 -0.5t39 -0.5t24.5 -0.5t21.5 0.5t34.5 0.5t37.5 0.5t29.5 0.5
q6 0 6 -4.5t-6 -4.5h-28q-26 0 -39.5 -4.5t-20.5 -28.5t-8 -74.5t-1 -142.5v-273zM280 -261q-4 -2 -5.5 -0.5t2.5 4.5q17 10 33.5 31.5t16.5 58.5q0 14 -5 27q-12 -20 -35 -20q-18 0 -30.5 12.5t-12.5 30.5q0 19 13 33t36 14q27 0 42.5 -22.5t15.5 -60.5q0 -19 -8 -36.5
t-19.5 -32t-23.5 -24.5t-20 -15z" />
    <glyph glyph-name="lcommaaccent" unicode="&#x13c;" horiz-adv-x="217" 
d="M121 2q-6 0 -17.5 -0.5t-25.5 -0.5t-28 -0.5t-25 -0.5q-6 0 -6 4.5t6 4.5q16 0 25 3.5t13.5 15t5.5 33t1 58.5v562q0 32 -3 49.5t-10.5 25t-19.5 7t-31 -3.5q-6 -1 -6 3.5t6 5.5q38 7 66.5 19t54.5 26q2 2 10 -0.5t8 -6.5v-687q0 -39 1.5 -61t7.5 -33t17.5 -13.5
t32.5 -2.5q6 0 6 -4.5t-6 -4.5q-22 0 -47 1t-36 1zM95 -261q-4 -2 -5.5 -0.5t2.5 4.5q17 10 33.5 31.5t16.5 58.5q0 14 -5 27q-12 -20 -35 -20q-18 0 -30.5 12.5t-12.5 30.5q0 19 13 33t36 14q27 0 42.5 -22.5t15.5 -60.5q0 -19 -8 -36.5t-19.5 -32t-23.5 -24.5t-20 -15z
" />
    <glyph glyph-name="Lcaron" unicode="&#x13d;" horiz-adv-x="609" 
d="M171 161q0 -58 -2.5 -96t-5.5 -51q11 0 38 -0.5t57 -1t57 -1t39 -0.5q43 0 79 21.5t63 55t43.5 74t21.5 78.5l10 91q1 5 6.5 4.5t4.5 -5.5l-10 -92l-12 -106t-8.5 -70.5t-6.5 -40.5t-6 -15q-2 -2 -13 -3t-29 -1.5t-41.5 -1t-49.5 -0.5h-31h-38t-41 0.5t-41 0.5l-98 2
l-141 -3q-8 0 -8 3.5t8 3.5q22 0 35 3t21 16t12 40t7 74q2 26 2.5 62t0 73t-1 69t-0.5 49t-0.5 43l-1 54l-1 55t-0.5 48q0 34 -1.5 52.5t-7.5 27t-19.5 10t-37.5 1.5q-6 0 -6 4.5t6 4.5q3 0 20.5 -0.5t38 -0.5t39 -0.5t24.5 -0.5t21.5 0.5t34.5 0.5t37.5 0.5t29.5 0.5
q6 0 6 -4.5t-6 -4.5h-28q-26 0 -39.5 -4.5t-20.5 -28.5t-8 -74.5t-1 -142.5v-273zM134 782q4 -4 7 0l82 122q6 8 13 13.5t21 5.5q10 0 15 -4.5t5 -9.5q0 -3 -2.5 -9t-15.5 -20q-9 -10 -22.5 -23l-29 -27l-32.5 -29l-33 -28q-2 -2 -4.5 -2t-4.5 2l-67.5 52.5l-53.5 44.5
q-12 11 -16 17.5t-4 11.5q0 6 6 13.5t17 7.5q13 0 21 -6.5t14 -14.5l37.5 -52.5z" />
    <glyph glyph-name="lcaron" unicode="&#x13e;" horiz-adv-x="328" 
d="M121 2q-6 0 -17.5 -0.5t-25.5 -0.5t-28 -0.5t-25 -0.5q-6 0 -6 4.5t6 4.5q16 0 25 3.5t13.5 15t5.5 33t1 58.5v562q0 32 -3 49.5t-10.5 25t-19.5 7t-31 -3.5q-6 -1 -6 3.5t6 5.5q38 7 66.5 19t54.5 26q2 2 10 -0.5t8 -6.5v-687q0 -39 1.5 -61t7.5 -33t17.5 -13.5
t32.5 -2.5q6 0 6 -4.5t-6 -4.5q-22 0 -47 1t-36 1zM227 624q-4 -2 -5.5 -0.5t2.5 4.5q17 10 33.5 31.5t16.5 58.5q0 14 -5 27q-12 -20 -35 -20q-18 0 -30.5 12.5t-12.5 30.5q0 19 13 33t36 14q27 0 42.5 -22.5t15.5 -60.5q0 -19 -8 -36.5t-19.5 -32t-23.5 -24.5t-20 -15z
" />
    <glyph glyph-name="Ldot" unicode="&#x13f;" horiz-adv-x="609" 
d="M171 161q0 -58 -2.5 -96t-5.5 -51q11 0 38 -0.5t57 -1t57 -1t39 -0.5q43 0 79 21.5t63 55t43.5 74t21.5 78.5l10 91q1 5 6.5 4.5t4.5 -5.5l-10 -92l-12 -106t-8.5 -70.5t-6.5 -40.5t-6 -15q-2 -2 -13 -3t-29 -1.5t-41.5 -1t-49.5 -0.5h-31h-38t-41 0.5t-41 0.5l-98 2
l-141 -3q-8 0 -8 3.5t8 3.5q22 0 35 3t21 16t12 40t7 74q2 26 2.5 62t0 73t-1 69t-0.5 49t-0.5 43l-1 54l-1 55t-0.5 48q0 34 -1.5 52.5t-7.5 27t-19.5 10t-37.5 1.5q-6 0 -6 4.5t6 4.5q3 0 20.5 -0.5t38 -0.5t39 -0.5t24.5 -0.5t21.5 0.5t34.5 0.5t37.5 0.5t29.5 0.5
q6 0 6 -4.5t-6 -4.5h-28q-26 0 -39.5 -4.5t-20.5 -28.5t-8 -74.5t-1 -142.5v-273zM327 376q0 22 15 37.5t37 15.5t37.5 -15.5t15.5 -37.5t-15.5 -37t-37.5 -15t-37 15t-15 37z" />
    <glyph glyph-name="ldot" unicode="&#x140;" horiz-adv-x="351" 
d="M121 2q-6 0 -17.5 -0.5t-25.5 -0.5t-28 -0.5t-25 -0.5q-6 0 -6 4.5t6 4.5q16 0 25 3.5t13.5 15t5.5 33t1 58.5v562q0 32 -3 49.5t-10.5 25t-19.5 7t-31 -3.5q-6 -1 -6 3.5t6 5.5q38 7 66.5 19t54.5 26q2 2 10 -0.5t8 -6.5v-687q0 -39 1.5 -61t7.5 -33t17.5 -13.5
t32.5 -2.5q6 0 6 -4.5t-6 -4.5q-22 0 -47 1t-36 1zM216 378q0 22 15 37.5t37 15.5t37.5 -15.5t15.5 -37.5t-15.5 -37t-37.5 -15t-37 15t-15 37z" />
    <glyph glyph-name="Lslash" unicode="&#x141;" horiz-adv-x="609" 
d="M-35 337q-6 0 -9.5 8.5t-0.5 13.5l61.5 23t75.5 30q0 19 -0.5 42.5l-1 48.5l-1 48.5t-0.5 41.5q0 34 -1.5 52.5t-7.5 27t-19.5 10t-37.5 1.5q-6 0 -6 4.5t6 4.5q3 0 20.5 -0.5t38 -0.5t39 -0.5t24.5 -0.5t21.5 0.5t34.5 0.5t37.5 0.5t29.5 0.5q6 0 6 -4.5t-6 -4.5h-28
q-26 0 -39.5 -4.5t-20.5 -28.5t-8 -73.5t-1 -139.5q45 19 81.5 37.5l63.5 31.5q6 -2 10.5 -9.5t-0.5 -12.5l-71 -26.5t-84 -33.5v-264q0 -58 -2.5 -96t-5.5 -51q11 0 38 -0.5t57 -1t57 -1t39 -0.5q43 0 79 21.5t63 55t43.5 74t21.5 78.5l10 91q1 5 6.5 4.5t4.5 -5.5l-10 -92
l-12 -106t-8.5 -70.5t-6.5 -40.5t-6 -15q-2 -2 -13 -3t-29 -1.5t-41.5 -1t-49.5 -0.5h-31h-38t-41 0.5t-41 0.5l-98 2l-141 -3q-8 0 -8 3.5t8 3.5q22 0 35 3t21 16t12 40t7 74q2 26 2.5 62t0 73t-1 69t-0.5 49v6q-38 -17 -69.5 -32.5z" />
    <glyph glyph-name="lslash" unicode="&#x142;" horiz-adv-x="257" 
d="M141 2q-6 0 -17.5 -0.5t-25.5 -0.5t-28 -0.5t-25 -0.5q-6 0 -6 4.5t6 4.5q16 0 25 3.5t13.5 15t5.5 33t1 58.5v371q-38 -17 -70 -33l-59 -30q-6 0 -9.5 8.5t-0.5 13.5l62.5 23.5t76.5 29.5v179q0 32 -3 49.5t-10.5 25t-19.5 7t-31 -3.5q-6 -1 -6 3.5t6 5.5q38 7 66.5 19
t54.5 26q2 2 10 -0.5t8 -6.5v-279q45 19 82 37.5l65 32.5q6 -2 10.5 -9.5t-0.5 -12.5l-72 -26.5t-85 -33.5v-396q0 -39 1.5 -61t7.5 -33t17.5 -13.5t32.5 -2.5q6 0 6 -4.5t-6 -4.5q-22 0 -47 1t-36 1z" />
    <glyph glyph-name="Nacute" unicode="&#x143;" horiz-adv-x="716" 
d="M-1 685q-5 0 -5 4t5 4q78 0 111 2t38 2q7 0 10 -6q5 -10 16 -24.5t23 -28.5l416 -517v313q0 92 -11 142.5t-28 74.5t-37 28.5t-38 4.5h-14q-6 0 -6 4.5t6 4.5q11 0 31 -0.5l41 -1t38.5 -1t23.5 -0.5q11 0 33.5 1.5t44.5 1.5q6 0 6 -4.5t-6 -4.5h-7q-18 0 -30.5 -4.5
t-20 -28.5t-10.5 -74.5t-3 -142.5v-427q0 -10 -8 -10q-5 0 -12 7t-13 15l-482 601l-1 -361q0 -92 9.5 -142.5t24.5 -74.5t34 -28.5t37 -4.5h14q5 0 5 -4.5t-5 -4.5h-31t-40.5 1t-37.5 1.5t-23 0.5q-11 0 -35.5 -1.5t-45.5 -1.5q-5 0 -5.5 4.5t6.5 4.5h6q17 0 30.5 6t23 30.5
t15 74.5t5.5 139l1 359q0 5 -3.5 13.5t-12.5 17.5q-17 17 -35 26.5t-44 9.5h-4zM302 758q-2 -2 -4 -2q-4 0 -4 4q0 1 3 4q19 18 39 42t36.5 46.5l28.5 39.5t16 21t10.5 5t13.5 1q6 0 11 -0.5t7 -2.5q3 -3 3 -19q0 -4 -3.5 -8.5t-8.5 -8.5q-5 -5 -21.5 -17l-38.5 -28.5
t-45.5 -36.5t-42.5 -40z" />
    <glyph glyph-name="nacute" unicode="&#x144;" horiz-adv-x="562" 
d="M495 98q0 -33 2.5 -51t8.5 -26.5t15 -10t22 -1.5q6 0 6 -4.5t-6 -4.5q-3 0 -15 0.5t-26.5 0.5t-28 0.5t-19.5 0.5t-15.5 -0.5t-21.5 -0.5t-24.5 -0.5t-23.5 -0.5q-6 0 -6 4.5t6 4.5q15 0 25 2.5t16 12t8.5 28.5t2.5 52l-1 213q0 46 -10.5 77.5t-27.5 50.5t-38.5 27
t-44.5 8q-47 0 -81.5 -22t-69.5 -69v-380h52q6 0 6 -4.5t-6 -4.5q-3 0 -13 0.5t-22 0.5t-23.5 0.5t-17.5 0.5t-17.5 -0.5t-25.5 -0.5t-28 -0.5t-25 -0.5q-6 0 -6 4.5t6 4.5q16 0 25 3.5t13.5 15t5.5 33t1 58.5v258q0 22 -14.5 41t-31.5 35q-4 4 0 6q14 5 37 17t36 25
q2 2 6 -1q14 -14 26.5 -41t14.5 -58q38 51 82.5 80t102.5 29q34 0 63.5 -9.5t51.5 -33t35 -62.5t13 -98v-209zM259 547q-2 -2 -4 -2q-4 0 -4 4q0 1 3 4q19 18 39 42t36.5 46.5l28.5 39.5t16 21t10.5 5t13.5 1q6 0 11 -0.5t7 -2.5q3 -3 3 -19q0 -4 -3.5 -8.5t-8.5 -8.5
q-5 -5 -21.5 -17l-38.5 -28.5t-45.5 -36.5t-42.5 -40z" />
    <glyph glyph-name="Ncommaaccent" unicode="&#x145;" horiz-adv-x="716" 
d="M-1 685q-5 0 -5 4t5 4q78 0 111 2t38 2q7 0 10 -6q5 -10 16 -24.5t23 -28.5l416 -517v313q0 92 -11 142.5t-28 74.5t-37 28.5t-38 4.5h-14q-6 0 -6 4.5t6 4.5q11 0 31 -0.5l41 -1t38.5 -1t23.5 -0.5q11 0 33.5 1.5t44.5 1.5q6 0 6 -4.5t-6 -4.5h-7q-18 0 -30.5 -4.5
t-20 -28.5t-10.5 -74.5t-3 -142.5v-427q0 -10 -8 -10q-5 0 -12 7t-13 15l-482 601l-1 -361q0 -92 9.5 -142.5t24.5 -74.5t34 -28.5t37 -4.5h14q5 0 5 -4.5t-5 -4.5h-31t-40.5 1t-37.5 1.5t-23 0.5q-11 0 -35.5 -1.5t-45.5 -1.5q-5 0 -5.5 4.5t6.5 4.5h6q17 0 30.5 6t23 30.5
t15 74.5t5.5 139l1 359q0 5 -3.5 13.5t-12.5 17.5q-17 17 -35 26.5t-44 9.5h-4zM361 -241q-4 -2 -5.5 -0.5t2.5 4.5q17 10 33.5 31.5t16.5 58.5q0 14 -5 27q-12 -20 -35 -20q-18 0 -30.5 12.5t-12.5 30.5q0 19 13 33t36 14q27 0 42.5 -22.5t15.5 -60.5q0 -19 -8 -36.5
t-19.5 -32t-23.5 -24.5t-20 -15z" />
    <glyph glyph-name="ncommaaccent" unicode="&#x146;" horiz-adv-x="562" 
d="M495 98q0 -33 2.5 -51t8.5 -26.5t15 -10t22 -1.5q6 0 6 -4.5t-6 -4.5q-3 0 -15 0.5t-26.5 0.5t-28 0.5t-19.5 0.5t-15.5 -0.5t-21.5 -0.5t-24.5 -0.5t-23.5 -0.5q-6 0 -6 4.5t6 4.5q15 0 25 2.5t16 12t8.5 28.5t2.5 52l-1 213q0 46 -10.5 77.5t-27.5 50.5t-38.5 27
t-44.5 8q-47 0 -81.5 -22t-69.5 -69v-380h52q6 0 6 -4.5t-6 -4.5q-3 0 -13 0.5t-22 0.5t-23.5 0.5t-17.5 0.5t-17.5 -0.5t-25.5 -0.5t-28 -0.5t-25 -0.5q-6 0 -6 4.5t6 4.5q16 0 25 3.5t13.5 15t5.5 33t1 58.5v258q0 22 -14.5 41t-31.5 35q-4 4 0 6q14 5 37 17t36 25
q2 2 6 -1q14 -14 26.5 -41t14.5 -58q38 51 82.5 80t102.5 29q34 0 63.5 -9.5t51.5 -33t35 -62.5t13 -98v-209zM267 -251q-4 -2 -5.5 -0.5t2.5 4.5q17 10 33.5 31.5t16.5 58.5q0 14 -5 27q-12 -20 -35 -20q-18 0 -30.5 12.5t-12.5 30.5q0 19 13 33t36 14q27 0 42.5 -22.5
t15.5 -60.5q0 -19 -8 -36.5t-19.5 -32t-23.5 -24.5t-20 -15z" />
    <glyph glyph-name="Ncaron" unicode="&#x147;" horiz-adv-x="716" 
d="M-1 685q-5 0 -5 4t5 4q78 0 111 2t38 2q7 0 10 -6q5 -10 16 -24.5t23 -28.5l416 -517v313q0 92 -11 142.5t-28 74.5t-37 28.5t-38 4.5h-14q-6 0 -6 4.5t6 4.5q11 0 31 -0.5l41 -1t38.5 -1t23.5 -0.5q11 0 33.5 1.5t44.5 1.5q6 0 6 -4.5t-6 -4.5h-7q-18 0 -30.5 -4.5
t-20 -28.5t-10.5 -74.5t-3 -142.5v-427q0 -10 -8 -10q-5 0 -12 7t-13 15l-482 601l-1 -361q0 -92 9.5 -142.5t24.5 -74.5t34 -28.5t37 -4.5h14q5 0 5 -4.5t-5 -4.5h-31t-40.5 1t-37.5 1.5t-23 0.5q-11 0 -35.5 -1.5t-45.5 -1.5q-5 0 -5.5 4.5t6.5 4.5h6q17 0 30.5 6t23 30.5
t15 74.5t5.5 139l1 359q0 5 -3.5 13.5t-12.5 17.5q-17 17 -35 26.5t-44 9.5h-4zM355 782q4 -4 7 0l82 122q6 8 13 13.5t21 5.5q10 0 15 -4.5t5 -9.5q0 -3 -2.5 -9t-15.5 -20q-9 -10 -22.5 -23l-29 -27l-32.5 -29l-33 -28q-2 -2 -4.5 -2t-4.5 2l-67.5 52.5l-53.5 44.5
q-12 11 -16 17.5t-4 11.5q0 6 6 13.5t17 7.5q13 0 21 -6.5t14 -14.5l37.5 -52.5z" />
    <glyph glyph-name="ncaron" unicode="&#x148;" horiz-adv-x="562" 
d="M495 98q0 -33 2.5 -51t8.5 -26.5t15 -10t22 -1.5q6 0 6 -4.5t-6 -4.5q-3 0 -15 0.5t-26.5 0.5t-28 0.5t-19.5 0.5t-15.5 -0.5t-21.5 -0.5t-24.5 -0.5t-23.5 -0.5q-6 0 -6 4.5t6 4.5q15 0 25 2.5t16 12t8.5 28.5t2.5 52l-1 213q0 46 -10.5 77.5t-27.5 50.5t-38.5 27
t-44.5 8q-47 0 -81.5 -22t-69.5 -69v-380h52q6 0 6 -4.5t-6 -4.5q-3 0 -13 0.5t-22 0.5t-23.5 0.5t-17.5 0.5t-17.5 -0.5t-25.5 -0.5t-28 -0.5t-25 -0.5q-6 0 -6 4.5t6 4.5q16 0 25 3.5t13.5 15t5.5 33t1 58.5v258q0 22 -14.5 41t-31.5 35q-4 4 0 6q14 5 37 17t36 25
q2 2 6 -1q14 -14 26.5 -41t14.5 -58q38 51 82.5 80t102.5 29q34 0 63.5 -9.5t51.5 -33t35 -62.5t13 -98v-209zM295 585q4 -4 7 0l82 122q6 8 13 13.5t21 5.5q10 0 15 -4.5t5 -9.5q0 -3 -2.5 -9t-15.5 -20q-9 -10 -22.5 -23l-29 -27l-32.5 -29l-33 -28q-2 -2 -4.5 -2t-4.5 2
l-67.5 52.5l-53.5 44.5q-12 11 -16 17.5t-4 11.5q0 6 6 13.5t17 7.5q13 0 21 -6.5t14 -14.5l37.5 -52.5z" />
    <glyph glyph-name="Eng" unicode="&#x14a;" horiz-adv-x="716" 
d="M229 9q5 0 5 -4.5t-5 -4.5h-31t-40.5 1t-37.5 1.5t-23 0.5q-11 0 -35.5 -1.5t-45.5 -1.5q-5 0 -5.5 4.5t6.5 4.5h6q17 0 30.5 6t23 30.5t15 74.5t5.5 139l1 359q0 5 -3.5 13.5t-12.5 17.5q-17 17 -35 26.5t-44 9.5h-4q-5 0 -5 4t5 4q78 0 111 2t38 2q7 0 10 -6
q5 -10 16 -24.5t23 -28.5l416 -517v313q0 92 -11 142.5t-28 74.5t-37 28.5t-38 4.5h-14q-6 0 -6 4.5t6 4.5q11 0 31 -0.5l41 -1t38.5 -1t23.5 -0.5q11 0 33.5 1.5t44.5 1.5q6 0 6 -4.5t-6 -4.5h-7q-18 0 -30.5 -4.5t-20 -28.5t-10.5 -74.5t-3 -142.5l-1 -115v-22.5v-38
t0.5 -45t0.5 -45v-38v-23.5q0 -36 -1 -69t-8.5 -64.5t-25 -63t-51.5 -64.5q-8 -8 -20 -18t-24.5 -19t-23.5 -15t-17 -6t-12 0.5t-11 1.5q-12 3 -19.5 9t-7.5 14q0 16 9 33.5t30 23.5q8 2 20 2q19 0 37 -0.5t25 -0.5q10 0 22 5.5t18 12.5q13 14 24.5 36.5t11.5 54.5
q0 17 -6.5 32t-15.5 26l-469 582l-1 -361q0 -92 9.5 -142.5t24.5 -74.5t34 -28.5t37 -4.5h14z" />
    <glyph glyph-name="eng" unicode="&#x14b;" horiz-adv-x="562" 
d="M420 317q0 46 -10.5 77.5t-27.5 50.5t-38.5 27t-44.5 8q-47 0 -81.5 -22t-69.5 -69v-380h52q6 0 6 -4.5t-6 -4.5q-3 0 -13 0.5t-22 0.5t-23.5 0.5t-17.5 0.5t-17.5 -0.5t-25.5 -0.5t-28 -0.5t-25 -0.5q-6 0 -6 4.5t6 4.5q16 0 25 3.5t13.5 15t5.5 33t1 58.5v258
q0 22 -14.5 41t-31.5 35q-4 4 0 6q14 5 37 17t36 25q2 2 6 -1q14 -14 26.5 -41t14.5 -58q38 51 82.5 80t102.5 29q34 0 63.5 -9.5t51.5 -33t35 -62.5t13 -98v-258q-1 -32 -9 -61t-22 -56t-33 -54t-42 -55q-29 -36 -56 -60t-51 -24q-8 0 -18 2q-22 5 -22 18t12 30t29 22
q6 2 16 2q15 0 29 -0.5t19 -0.5q8 0 17.5 3.5t14.5 8.5l11 13.5t13.5 29t11.5 57t5 98.5v295z" />
    <glyph glyph-name="Omacron" unicode="&#x14c;" horiz-adv-x="794" 
d="M43 346q0 78 29 144t78 113t113 73.5t135 26.5q70 0 134 -27t112.5 -74.5t77 -113t28.5 -142.5t-29.5 -142t-79 -112.5t-114.5 -74.5t-135 -27q-71 0 -134 27t-111 74.5t-76 112.5t-28 142zM133 346q0 -77 17 -140.5t49.5 -109.5t80 -71t108.5 -25t111.5 25t86.5 71
t55.5 109.5t19.5 140.5t-17.5 141t-51 109.5t-81.5 71t-109 25.5q-62 0 -111.5 -25.5t-84.5 -71t-54 -109.5t-19 -141zM401 832h44t46 1t30 1t5 -2q0 -5 -12 -17.5t-34 -33.5q-6 0 -29 0.5t-49 0.5h-20.5t-17 -0.5l-17.5 -1t-21 -0.5q-25 -1 -30 -0.5t-5 2.5q0 5 12 17.5
t34 33.5q6 0 21.5 -0.5t41.5 -0.5h1z" />
    <glyph glyph-name="omacron" unicode="&#x14d;" horiz-adv-x="581" 
d="M284 -10q-53 0 -98.5 18t-78.5 50.5t-52 78.5t-19 103q0 54 19.5 103t54.5 86t83.5 59t106.5 22q53 0 98 -18t78 -51t51.5 -79.5t18.5 -104.5q0 -48 -19.5 -96t-54.5 -86t-83 -61.5t-105 -23.5zM301 1q80 0 122 64t42 176q0 47 -12 93.5t-35 83t-56 59.5t-74 23
q-44 0 -76 -17.5t-52.5 -49.5t-30.5 -76.5t-10 -99.5q0 -46 12 -92t35.5 -82.5t57 -59t77.5 -22.5zM294 636h44t46 1t30 1t5 -2q0 -5 -12 -17.5t-34 -33.5q-6 0 -29 0.5t-49 0.5h-20.5t-17 -0.5l-17.5 -1t-21 -0.5q-25 -1 -30 -0.5t-5 2.5q0 5 12 17.5t34 33.5
q6 0 21.5 -0.5t41.5 -0.5h1z" />
    <glyph glyph-name="Obreve" unicode="&#x14e;" horiz-adv-x="794" 
d="M43 346q0 78 29 144t78 113t113 73.5t135 26.5q70 0 134 -27t112.5 -74.5t77 -113t28.5 -142.5t-29.5 -142t-79 -112.5t-114.5 -74.5t-135 -27q-71 0 -134 27t-111 74.5t-76 112.5t-28 142zM133 346q0 -77 17 -140.5t49.5 -109.5t80 -71t108.5 -25t111.5 25t86.5 71
t55.5 109.5t19.5 140.5t-17.5 141t-51 109.5t-81.5 71t-109 25.5q-62 0 -111.5 -25.5t-84.5 -71t-54 -109.5t-19 -141zM410 781q-37 0 -66 20t-53 52q-6 7 -6 12q0 7 23 14q15 5 21 4.5t11 -7.5q27 -35 50 -54.5t52 -19.5q20 0 39.5 19t35.5 56q3 7 11 7q5 0 8 -3.5t0 -7.5
q-10 -17 -24.5 -33.5t-31 -29t-34.5 -20.5t-36 -9z" />
    <glyph glyph-name="obreve" unicode="&#x14f;" horiz-adv-x="581" 
d="M284 -10q-53 0 -98.5 18t-78.5 50.5t-52 78.5t-19 103q0 54 19.5 103t54.5 86t83.5 59t106.5 22q53 0 98 -18t78 -51t51.5 -79.5t18.5 -104.5q0 -48 -19.5 -96t-54.5 -86t-83 -61.5t-105 -23.5zM301 1q80 0 122 64t42 176q0 47 -12 93.5t-35 83t-56 59.5t-74 23
q-44 0 -76 -17.5t-52.5 -49.5t-30.5 -76.5t-10 -99.5q0 -46 12 -92t35.5 -82.5t57 -59t77.5 -22.5zM290 586q-37 0 -66 20t-53 52q-6 7 -6 12q0 7 23 14q15 5 21 4.5t11 -7.5q27 -35 50 -54.5t52 -19.5q20 0 39.5 19t35.5 56q3 7 11 7q5 0 8 -3.5t0 -7.5
q-10 -17 -24.5 -33.5t-31 -29t-34.5 -20.5t-36 -9z" />
    <glyph glyph-name="Ohungarumlaut" unicode="&#x150;" horiz-adv-x="794" 
d="M43 346q0 78 29 144t78 113t113 73.5t135 26.5q70 0 134 -27t112.5 -74.5t77 -113t28.5 -142.5t-29.5 -142t-79 -112.5t-114.5 -74.5t-135 -27q-71 0 -134 27t-111 74.5t-76 112.5t-28 142zM133 346q0 -77 17 -140.5t49.5 -109.5t80 -71t108.5 -25t111.5 25t86.5 71
t55.5 109.5t19.5 140.5t-17.5 141t-51 109.5t-81.5 71t-109 25.5q-62 0 -111.5 -25.5t-84.5 -71t-54 -109.5t-19 -141zM343 759q0 -2 -3 -2q-4 0 -6 4q0 2 2 4q15 18 28.5 41t25 45l19.5 38t11 20q2 4 8.5 5t12.5 1q13 0 19 -3q2 -2 2.5 -7t0.5 -11q0 -8 -9 -17l-16.5 -16
l-29 -28t-34.5 -35.5t-31 -38.5zM455 759q-2 -2 -4 -2q-3 0 -5 4q0 1 3 4q18 18 36 41t32.5 45l25 38t14.5 20q3 4 9.5 5t13.5 1q13 0 18 -3q2 -2 2.5 -7t0.5 -11q0 -8 -11 -17l-20 -16l-35 -28t-41.5 -35.5t-38.5 -38.5z" />
    <glyph glyph-name="ohungarumlaut" unicode="&#x151;" horiz-adv-x="581" 
d="M284 -10q-53 0 -98.5 18t-78.5 50.5t-52 78.5t-19 103q0 54 19.5 103t54.5 86t83.5 59t106.5 22q53 0 98 -18t78 -51t51.5 -79.5t18.5 -104.5q0 -48 -19.5 -96t-54.5 -86t-83 -61.5t-105 -23.5zM301 1q80 0 122 64t42 176q0 47 -12 93.5t-35 83t-56 59.5t-74 23
q-44 0 -76 -17.5t-52.5 -49.5t-30.5 -76.5t-10 -99.5q0 -46 12 -92t35.5 -82.5t57 -59t77.5 -22.5zM217 559q0 -2 -3 -2q-4 0 -6 4q0 2 2 4q15 18 28.5 41t25 45l19.5 38t11 20q2 4 8.5 5t12.5 1q13 0 19 -3q2 -2 2.5 -7t0.5 -11q0 -8 -9 -17l-16.5 -16l-29 -28t-34.5 -35.5
t-31 -38.5zM329 559q-2 -2 -4 -2q-3 0 -5 4q0 1 3 4q18 18 36 41t32.5 45l25 38t14.5 20q3 4 9.5 5t13.5 1q13 0 18 -3q2 -2 2.5 -7t0.5 -11q0 -8 -11 -17l-20 -16l-35 -28t-41.5 -35.5t-38.5 -38.5z" />
    <glyph glyph-name="OE" unicode="&#x152;" horiz-adv-x="1085" 
d="M623 365h97q47 0 76.5 8.5t46.5 23.5t23 36t6 47v21q0 6 5 6t5 -6q0 -11 -1 -32.5t-1.5 -44t-1.5 -41t-1 -24.5q0 -5 1 -25t1.5 -43t1.5 -43t1 -26t-5 -6t-5 6v15q0 26 -6 47.5t-23 36.5t-46.5 23.5t-76.5 8.5h-97v-192q0 -58 -2.5 -96t-5.5 -51q11 0 37.5 -0.5t56.5 -1
t56.5 -1t38.5 -0.5q43 0 80 17t64.5 45.5t44.5 65t22 74.5l6 53q1 5 6.5 4.5t4.5 -5.5l-6 -54l-11.5 -100t-8 -62t-6 -33t-5.5 -12q-2 -2 -13 -2.5t-29 -1t-41.5 -0.5h-49.5h-31h-38.5t-42 0.5t-41.5 0.5l-100 2l-174 -3q-17 -5 -37 -7.5t-41 -2.5q-71 0 -134 27t-111 74.5
t-76 112.5t-28 142q0 78 29 144t78 113t113 73.5t135 26.5q21 0 40.5 -2.5t36.5 -7.5q12 0 35.5 -0.5l48 -1t44.5 -1t26 -0.5h27.5t59 0.5t75 1l77.5 1t64.5 0.5h36.5q14 0 28 -1t19 -3q4 -2 11 -52.5l18 -131.5l4 -36q2 -5 -3 -5t-7 5l-5 36q-14 85 -69.5 130t-141.5 46
h-127q-17 0 -25 -4t-11 -27.5t-2.5 -73.5t0.5 -142v-69zM98 346q0 -77 17 -140.5t49.5 -109.5t80 -71t108.5 -25q56 0 92 12t57 34.5t30.5 55t12.5 73.5l2 85q0 20 -0.5 41.5t-0.5 44.5q0 92 -5 157.5t-23.5 107.5t-54 62t-96.5 20q-62 0 -111.5 -25.5t-84.5 -71t-54 -109.5
t-19 -141z" />
    <glyph glyph-name="oe" unicode="&#x153;" horiz-adv-x="973" 
d="M732 -10q-81 0 -140 34t-88 93q-35 -54 -91.5 -90.5t-128.5 -36.5q-53 0 -98.5 18t-78.5 50.5t-52 78.5t-19 103q0 54 19.5 103t54.5 86t83.5 59t106.5 22q77 0 135.5 -36t87.5 -102q19 30 45.5 55.5t57 44t64 28.5t67.5 10q54 0 89 -14.5t54.5 -35.5t26 -44.5t4.5 -40.5
q-2 -13 -10.5 -22t-31.5 -9h-342q-8 -37 -8 -77q0 -46 19 -86t52 -69.5t77.5 -46.5t95.5 -17q92 0 154.5 53t104.5 143q4 9 7.5 7.5t-0.5 -9.5q-20 -46 -50.5 -91t-71 -81t-89.5 -58t-106 -22zM301 1q80 0 122 64t42 176q0 47 -12 93.5t-35 83t-56 59.5t-74 23
q-44 0 -76 -17.5t-52.5 -49.5t-30.5 -76.5t-10 -99.5q0 -46 12 -92t35.5 -82.5t57 -59t77.5 -22.5zM795 356q11 0 24.5 3.5t15.5 5.5q9 10 9 32q0 14 -7 30t-21.5 29.5t-36 22.5t-50.5 9q-65 0 -112.5 -34t-67.5 -102q42 0 77 0.5t64 1.5t55 1.5t50 0.5z" />
    <glyph glyph-name="Racute" unicode="&#x154;" horiz-adv-x="642" 
d="M132 2q-6 0 -22.5 -0.5t-35 -0.5t-34 -0.5t-18.5 -0.5q-6 0 -6 4.5t6 4.5q19 0 30 0.5t16 1.5q11 11 14.5 30t5.5 60q1 21 1.5 48l1 55t0.5 54v43v133q0 92 -1.5 142.5t-7 74.5t-16.5 28.5t-29 4.5h-18q-6 0 -6 4.5t6 4.5q10 0 27 -0.5l33.5 -1t30.5 -1t20 -0.5
q5 0 22.5 0.5t38 1t38.5 1t24 0.5q130 0 193 -42t63 -122q0 -32 -18 -58.5t-48 -47t-68.5 -35t-78.5 -21.5q32 -1 55.5 -8t44.5 -25.5t41 -50t44 -80.5q31 -66 52 -104.5t38 -58.5t33.5 -25.5t39.5 -5.5h7q7 0 7.5 -4.5t-7.5 -4.5h-36q-26 0 -42 -2t-27 -2q-17 0 -28 5
t-23 19q-16 18 -36.5 54.5t-46.5 96.5q-28 65 -49.5 102.5t-43 56.5t-48 24t-63.5 6h-41v-101q0 -92 1.5 -142.5t7 -74.5t16.5 -28.5t29 -4.5h20q6 0 6 -4.5t-6 -4.5q-11 0 -27 0.5t-32.5 0.5t-30.5 0.5t-19 0.5zM167 370q14 1 34.5 1h49.5t59 9t54.5 28t40 49t15.5 72
q0 78 -40.5 116.5t-134.5 38.5h-39q-14 0 -22 -3t-11.5 -17.5t-4.5 -45t-1 -85.5v-163zM265 758q-2 -2 -4 -2q-4 0 -4 4q0 1 3 4q19 18 39 42t36.5 46.5l28.5 39.5t16 21t10.5 5t13.5 1q6 0 11 -0.5t7 -2.5q3 -3 3 -19q0 -4 -3.5 -8.5t-8.5 -8.5q-5 -5 -21.5 -17
l-38.5 -28.5t-45.5 -36.5t-42.5 -40z" />
    <glyph glyph-name="racute" unicode="&#x155;" horiz-adv-x="327" 
d="M215 493q26 17 57 17q18 0 31.5 -4t13.5 -14q0 -6 -3 -15t-9 -17t-15.5 -14t-22.5 -6h-37q-27 0 -42.5 -3t-24 -13t-10.5 -29t-2 -51v-335h61q6 0 6 -4.5t-6 -4.5q-3 0 -15 0.5t-26.5 0.5t-28 0.5t-19.5 0.5t-18.5 -0.5t-27.5 -0.5t-30 -0.5t-26 -0.5q-6 0 -6 4.5t6 4.5
q18 0 29 2.5t17 13.5t8 33t2 61v258q0 22 -14.5 41t-31.5 35q-4 4 0 6q14 5 35 17t34 25q2 2 6 -1q13 -12 26.5 -37.5t16.5 -54.5q9 33 27.5 52t38.5 33zM169 554q-2 -2 -4 -2q-4 0 -4 4q0 1 3 4q19 18 39 42t36.5 46.5l28.5 39.5t16 21t10.5 5t13.5 1q6 0 11 -0.5t7 -2.5
q3 -3 3 -19q0 -4 -3.5 -8.5t-8.5 -8.5q-5 -5 -21.5 -17l-38.5 -28.5t-45.5 -36.5t-42.5 -40z" />
    <glyph glyph-name="Rcommaaccent" unicode="&#x156;" horiz-adv-x="642" 
d="M132 2q-6 0 -22.5 -0.5t-35 -0.5t-34 -0.5t-18.5 -0.5q-6 0 -6 4.5t6 4.5q19 0 30 0.5t16 1.5q11 11 14.5 30t5.5 60q1 21 1.5 48l1 55t0.5 54v43v133q0 92 -1.5 142.5t-7 74.5t-16.5 28.5t-29 4.5h-18q-6 0 -6 4.5t6 4.5q10 0 27 -0.5l33.5 -1t30.5 -1t20 -0.5
q5 0 22.5 0.5t38 1t38.5 1t24 0.5q130 0 193 -42t63 -122q0 -32 -18 -58.5t-48 -47t-68.5 -35t-78.5 -21.5q32 -1 55.5 -8t44.5 -25.5t41 -50t44 -80.5q31 -66 52 -104.5t38 -58.5t33.5 -25.5t39.5 -5.5h7q7 0 7.5 -4.5t-7.5 -4.5h-36q-26 0 -42 -2t-27 -2q-17 0 -28 5
t-23 19q-16 18 -36.5 54.5t-46.5 96.5q-28 65 -49.5 102.5t-43 56.5t-48 24t-63.5 6h-41v-101q0 -92 1.5 -142.5t7 -74.5t16.5 -28.5t29 -4.5h20q6 0 6 -4.5t-6 -4.5q-11 0 -27 0.5t-32.5 0.5t-30.5 0.5t-19 0.5zM167 370q14 1 34.5 1h49.5t59 9t54.5 28t40 49t15.5 72
q0 78 -40.5 116.5t-134.5 38.5h-39q-14 0 -22 -3t-11.5 -17.5t-4.5 -45t-1 -85.5v-163zM341 -241q-4 -2 -5.5 -0.5t2.5 4.5q17 10 33.5 31.5t16.5 58.5q0 14 -5 27q-12 -20 -35 -20q-18 0 -30.5 12.5t-12.5 30.5q0 19 13 33t36 14q27 0 42.5 -22.5t15.5 -60.5
q0 -19 -8 -36.5t-19.5 -32t-23.5 -24.5t-20 -15z" />
    </font>
</defs>
</svg>
